%TF.GenerationSoftware,KiCad,Pcbnew,5.1.9-73d0e3b20d~88~ubuntu20.04.1*%
%TF.CreationDate,2021-02-21T20:05:17+08:00*%
%TF.ProjectId,weather_wifi,77656174-6865-4725-9f77-6966692e6b69,1.0*%
%TF.SameCoordinates,Original*%
%TF.FileFunction,Paste,Top*%
%TF.FilePolarity,Positive*%
%FSLAX46Y46*%
G04 Gerber Fmt 4.6, Leading zero omitted, Abs format (unit mm)*
G04 Created by KiCad (PCBNEW 5.1.9-73d0e3b20d~88~ubuntu20.04.1) date 2021-02-21 20:05:17*
%MOMM*%
%LPD*%
G01*
G04 APERTURE LIST*
%ADD10R,2.200000X1.800000*%
%ADD11R,1.300000X0.300000*%
%ADD12R,1.150000X0.300000*%
%ADD13R,0.800000X0.900000*%
%ADD14R,1.700000X0.900000*%
%ADD15R,1.000000X0.700000*%
%ADD16R,1.200000X1.400000*%
G04 APERTURE END LIST*
%TO.C,C4*%
G36*
G01*
X51870000Y-48852000D02*
X51870000Y-49192000D01*
G75*
G02*
X51730000Y-49332000I-140000J0D01*
G01*
X51450000Y-49332000D01*
G75*
G02*
X51310000Y-49192000I0J140000D01*
G01*
X51310000Y-48852000D01*
G75*
G02*
X51450000Y-48712000I140000J0D01*
G01*
X51730000Y-48712000D01*
G75*
G02*
X51870000Y-48852000I0J-140000D01*
G01*
G37*
G36*
G01*
X52830000Y-48852000D02*
X52830000Y-49192000D01*
G75*
G02*
X52690000Y-49332000I-140000J0D01*
G01*
X52410000Y-49332000D01*
G75*
G02*
X52270000Y-49192000I0J140000D01*
G01*
X52270000Y-48852000D01*
G75*
G02*
X52410000Y-48712000I140000J0D01*
G01*
X52690000Y-48712000D01*
G75*
G02*
X52830000Y-48852000I0J-140000D01*
G01*
G37*
%TD*%
D10*
%TO.C,J1*%
X81410000Y-50873000D03*
X81410000Y-63173000D03*
D11*
X78160000Y-61273000D03*
X78160000Y-60773000D03*
X78160000Y-60273000D03*
X78160000Y-59773000D03*
X78160000Y-59273000D03*
X78160000Y-58773000D03*
X78160000Y-58273000D03*
X78160000Y-57773000D03*
X78160000Y-57273000D03*
X78160000Y-56773000D03*
X78160000Y-56273000D03*
X78160000Y-55773000D03*
X78160000Y-55273000D03*
X78160000Y-54773000D03*
X78160000Y-54273000D03*
X78160000Y-53773000D03*
X78160000Y-53273000D03*
X78160000Y-52773000D03*
%TD*%
D12*
%TO.C,J2*%
X49390000Y-57660000D03*
X49390000Y-56860000D03*
X49390000Y-56360000D03*
X49390000Y-55860000D03*
X49390000Y-55360000D03*
X49390000Y-54860000D03*
X49390000Y-54360000D03*
X49390000Y-53860000D03*
X49390000Y-53360000D03*
X49390000Y-52860000D03*
X49390000Y-52060000D03*
X49390000Y-51260000D03*
X49390000Y-51560000D03*
X49390000Y-52360000D03*
X49390000Y-57160000D03*
X49390000Y-57960000D03*
%TD*%
%TO.C,L1*%
G36*
G01*
X59221920Y-45341250D02*
X59221920Y-44828750D01*
G75*
G02*
X59440670Y-44610000I218750J0D01*
G01*
X59878170Y-44610000D01*
G75*
G02*
X60096920Y-44828750I0J-218750D01*
G01*
X60096920Y-45341250D01*
G75*
G02*
X59878170Y-45560000I-218750J0D01*
G01*
X59440670Y-45560000D01*
G75*
G02*
X59221920Y-45341250I0J218750D01*
G01*
G37*
G36*
G01*
X60796920Y-45341250D02*
X60796920Y-44828750D01*
G75*
G02*
X61015670Y-44610000I218750J0D01*
G01*
X61453170Y-44610000D01*
G75*
G02*
X61671920Y-44828750I0J-218750D01*
G01*
X61671920Y-45341250D01*
G75*
G02*
X61453170Y-45560000I-218750J0D01*
G01*
X61015670Y-45560000D01*
G75*
G02*
X60796920Y-45341250I0J218750D01*
G01*
G37*
%TD*%
%TO.C,L2*%
G36*
G01*
X53056040Y-44981150D02*
X53056040Y-45493650D01*
G75*
G02*
X52837290Y-45712400I-218750J0D01*
G01*
X52399790Y-45712400D01*
G75*
G02*
X52181040Y-45493650I0J218750D01*
G01*
X52181040Y-44981150D01*
G75*
G02*
X52399790Y-44762400I218750J0D01*
G01*
X52837290Y-44762400D01*
G75*
G02*
X53056040Y-44981150I0J-218750D01*
G01*
G37*
G36*
G01*
X54631040Y-44981150D02*
X54631040Y-45493650D01*
G75*
G02*
X54412290Y-45712400I-218750J0D01*
G01*
X53974790Y-45712400D01*
G75*
G02*
X53756040Y-45493650I0J218750D01*
G01*
X53756040Y-44981150D01*
G75*
G02*
X53974790Y-44762400I218750J0D01*
G01*
X54412290Y-44762400D01*
G75*
G02*
X54631040Y-44981150I0J-218750D01*
G01*
G37*
%TD*%
D13*
%TO.C,Q1*%
X57470000Y-58912000D03*
X59370000Y-58912000D03*
X58420000Y-56912000D03*
%TD*%
%TO.C,Q2*%
X58420000Y-60468000D03*
X59370000Y-62468000D03*
X57470000Y-62468000D03*
%TD*%
%TO.C,Q3*%
X70170000Y-51038000D03*
X72070000Y-51038000D03*
X71120000Y-49038000D03*
%TD*%
D14*
%TO.C,SW1*%
X44958000Y-60784000D03*
X44958000Y-64184000D03*
%TD*%
%TO.C,SW2*%
X45212000Y-48436000D03*
X45212000Y-45036000D03*
%TD*%
D15*
%TO.C,U1*%
X51124000Y-64328000D03*
X51124000Y-66228000D03*
X53524000Y-65278000D03*
%TD*%
%TO.C,U2*%
G36*
G01*
X58583500Y-46426000D02*
X58708500Y-46426000D01*
G75*
G02*
X58771000Y-46488500I0J-62500D01*
G01*
X58771000Y-47163500D01*
G75*
G02*
X58708500Y-47226000I-62500J0D01*
G01*
X58583500Y-47226000D01*
G75*
G02*
X58521000Y-47163500I0J62500D01*
G01*
X58521000Y-46488500D01*
G75*
G02*
X58583500Y-46426000I62500J0D01*
G01*
G37*
G36*
G01*
X58083500Y-46426000D02*
X58208500Y-46426000D01*
G75*
G02*
X58271000Y-46488500I0J-62500D01*
G01*
X58271000Y-47163500D01*
G75*
G02*
X58208500Y-47226000I-62500J0D01*
G01*
X58083500Y-47226000D01*
G75*
G02*
X58021000Y-47163500I0J62500D01*
G01*
X58021000Y-46488500D01*
G75*
G02*
X58083500Y-46426000I62500J0D01*
G01*
G37*
G36*
G01*
X57583500Y-46426000D02*
X57708500Y-46426000D01*
G75*
G02*
X57771000Y-46488500I0J-62500D01*
G01*
X57771000Y-47163500D01*
G75*
G02*
X57708500Y-47226000I-62500J0D01*
G01*
X57583500Y-47226000D01*
G75*
G02*
X57521000Y-47163500I0J62500D01*
G01*
X57521000Y-46488500D01*
G75*
G02*
X57583500Y-46426000I62500J0D01*
G01*
G37*
G36*
G01*
X57083500Y-46426000D02*
X57208500Y-46426000D01*
G75*
G02*
X57271000Y-46488500I0J-62500D01*
G01*
X57271000Y-47163500D01*
G75*
G02*
X57208500Y-47226000I-62500J0D01*
G01*
X57083500Y-47226000D01*
G75*
G02*
X57021000Y-47163500I0J62500D01*
G01*
X57021000Y-46488500D01*
G75*
G02*
X57083500Y-46426000I62500J0D01*
G01*
G37*
G36*
G01*
X56583500Y-46426000D02*
X56708500Y-46426000D01*
G75*
G02*
X56771000Y-46488500I0J-62500D01*
G01*
X56771000Y-47163500D01*
G75*
G02*
X56708500Y-47226000I-62500J0D01*
G01*
X56583500Y-47226000D01*
G75*
G02*
X56521000Y-47163500I0J62500D01*
G01*
X56521000Y-46488500D01*
G75*
G02*
X56583500Y-46426000I62500J0D01*
G01*
G37*
G36*
G01*
X56083500Y-46426000D02*
X56208500Y-46426000D01*
G75*
G02*
X56271000Y-46488500I0J-62500D01*
G01*
X56271000Y-47163500D01*
G75*
G02*
X56208500Y-47226000I-62500J0D01*
G01*
X56083500Y-47226000D01*
G75*
G02*
X56021000Y-47163500I0J62500D01*
G01*
X56021000Y-46488500D01*
G75*
G02*
X56083500Y-46426000I62500J0D01*
G01*
G37*
G36*
G01*
X55583500Y-46426000D02*
X55708500Y-46426000D01*
G75*
G02*
X55771000Y-46488500I0J-62500D01*
G01*
X55771000Y-47163500D01*
G75*
G02*
X55708500Y-47226000I-62500J0D01*
G01*
X55583500Y-47226000D01*
G75*
G02*
X55521000Y-47163500I0J62500D01*
G01*
X55521000Y-46488500D01*
G75*
G02*
X55583500Y-46426000I62500J0D01*
G01*
G37*
G36*
G01*
X55083500Y-46426000D02*
X55208500Y-46426000D01*
G75*
G02*
X55271000Y-46488500I0J-62500D01*
G01*
X55271000Y-47163500D01*
G75*
G02*
X55208500Y-47226000I-62500J0D01*
G01*
X55083500Y-47226000D01*
G75*
G02*
X55021000Y-47163500I0J62500D01*
G01*
X55021000Y-46488500D01*
G75*
G02*
X55083500Y-46426000I62500J0D01*
G01*
G37*
G36*
G01*
X54108500Y-47401000D02*
X54783500Y-47401000D01*
G75*
G02*
X54846000Y-47463500I0J-62500D01*
G01*
X54846000Y-47588500D01*
G75*
G02*
X54783500Y-47651000I-62500J0D01*
G01*
X54108500Y-47651000D01*
G75*
G02*
X54046000Y-47588500I0J62500D01*
G01*
X54046000Y-47463500D01*
G75*
G02*
X54108500Y-47401000I62500J0D01*
G01*
G37*
G36*
G01*
X54108500Y-47901000D02*
X54783500Y-47901000D01*
G75*
G02*
X54846000Y-47963500I0J-62500D01*
G01*
X54846000Y-48088500D01*
G75*
G02*
X54783500Y-48151000I-62500J0D01*
G01*
X54108500Y-48151000D01*
G75*
G02*
X54046000Y-48088500I0J62500D01*
G01*
X54046000Y-47963500D01*
G75*
G02*
X54108500Y-47901000I62500J0D01*
G01*
G37*
G36*
G01*
X54108500Y-48401000D02*
X54783500Y-48401000D01*
G75*
G02*
X54846000Y-48463500I0J-62500D01*
G01*
X54846000Y-48588500D01*
G75*
G02*
X54783500Y-48651000I-62500J0D01*
G01*
X54108500Y-48651000D01*
G75*
G02*
X54046000Y-48588500I0J62500D01*
G01*
X54046000Y-48463500D01*
G75*
G02*
X54108500Y-48401000I62500J0D01*
G01*
G37*
G36*
G01*
X54108500Y-48901000D02*
X54783500Y-48901000D01*
G75*
G02*
X54846000Y-48963500I0J-62500D01*
G01*
X54846000Y-49088500D01*
G75*
G02*
X54783500Y-49151000I-62500J0D01*
G01*
X54108500Y-49151000D01*
G75*
G02*
X54046000Y-49088500I0J62500D01*
G01*
X54046000Y-48963500D01*
G75*
G02*
X54108500Y-48901000I62500J0D01*
G01*
G37*
G36*
G01*
X54108500Y-49401000D02*
X54783500Y-49401000D01*
G75*
G02*
X54846000Y-49463500I0J-62500D01*
G01*
X54846000Y-49588500D01*
G75*
G02*
X54783500Y-49651000I-62500J0D01*
G01*
X54108500Y-49651000D01*
G75*
G02*
X54046000Y-49588500I0J62500D01*
G01*
X54046000Y-49463500D01*
G75*
G02*
X54108500Y-49401000I62500J0D01*
G01*
G37*
G36*
G01*
X54108500Y-49901000D02*
X54783500Y-49901000D01*
G75*
G02*
X54846000Y-49963500I0J-62500D01*
G01*
X54846000Y-50088500D01*
G75*
G02*
X54783500Y-50151000I-62500J0D01*
G01*
X54108500Y-50151000D01*
G75*
G02*
X54046000Y-50088500I0J62500D01*
G01*
X54046000Y-49963500D01*
G75*
G02*
X54108500Y-49901000I62500J0D01*
G01*
G37*
G36*
G01*
X54108500Y-50401000D02*
X54783500Y-50401000D01*
G75*
G02*
X54846000Y-50463500I0J-62500D01*
G01*
X54846000Y-50588500D01*
G75*
G02*
X54783500Y-50651000I-62500J0D01*
G01*
X54108500Y-50651000D01*
G75*
G02*
X54046000Y-50588500I0J62500D01*
G01*
X54046000Y-50463500D01*
G75*
G02*
X54108500Y-50401000I62500J0D01*
G01*
G37*
G36*
G01*
X54108500Y-50901000D02*
X54783500Y-50901000D01*
G75*
G02*
X54846000Y-50963500I0J-62500D01*
G01*
X54846000Y-51088500D01*
G75*
G02*
X54783500Y-51151000I-62500J0D01*
G01*
X54108500Y-51151000D01*
G75*
G02*
X54046000Y-51088500I0J62500D01*
G01*
X54046000Y-50963500D01*
G75*
G02*
X54108500Y-50901000I62500J0D01*
G01*
G37*
G36*
G01*
X55083500Y-51326000D02*
X55208500Y-51326000D01*
G75*
G02*
X55271000Y-51388500I0J-62500D01*
G01*
X55271000Y-52063500D01*
G75*
G02*
X55208500Y-52126000I-62500J0D01*
G01*
X55083500Y-52126000D01*
G75*
G02*
X55021000Y-52063500I0J62500D01*
G01*
X55021000Y-51388500D01*
G75*
G02*
X55083500Y-51326000I62500J0D01*
G01*
G37*
G36*
G01*
X55583500Y-51326000D02*
X55708500Y-51326000D01*
G75*
G02*
X55771000Y-51388500I0J-62500D01*
G01*
X55771000Y-52063500D01*
G75*
G02*
X55708500Y-52126000I-62500J0D01*
G01*
X55583500Y-52126000D01*
G75*
G02*
X55521000Y-52063500I0J62500D01*
G01*
X55521000Y-51388500D01*
G75*
G02*
X55583500Y-51326000I62500J0D01*
G01*
G37*
G36*
G01*
X56083500Y-51326000D02*
X56208500Y-51326000D01*
G75*
G02*
X56271000Y-51388500I0J-62500D01*
G01*
X56271000Y-52063500D01*
G75*
G02*
X56208500Y-52126000I-62500J0D01*
G01*
X56083500Y-52126000D01*
G75*
G02*
X56021000Y-52063500I0J62500D01*
G01*
X56021000Y-51388500D01*
G75*
G02*
X56083500Y-51326000I62500J0D01*
G01*
G37*
G36*
G01*
X56583500Y-51326000D02*
X56708500Y-51326000D01*
G75*
G02*
X56771000Y-51388500I0J-62500D01*
G01*
X56771000Y-52063500D01*
G75*
G02*
X56708500Y-52126000I-62500J0D01*
G01*
X56583500Y-52126000D01*
G75*
G02*
X56521000Y-52063500I0J62500D01*
G01*
X56521000Y-51388500D01*
G75*
G02*
X56583500Y-51326000I62500J0D01*
G01*
G37*
G36*
G01*
X57083500Y-51326000D02*
X57208500Y-51326000D01*
G75*
G02*
X57271000Y-51388500I0J-62500D01*
G01*
X57271000Y-52063500D01*
G75*
G02*
X57208500Y-52126000I-62500J0D01*
G01*
X57083500Y-52126000D01*
G75*
G02*
X57021000Y-52063500I0J62500D01*
G01*
X57021000Y-51388500D01*
G75*
G02*
X57083500Y-51326000I62500J0D01*
G01*
G37*
G36*
G01*
X57583500Y-51326000D02*
X57708500Y-51326000D01*
G75*
G02*
X57771000Y-51388500I0J-62500D01*
G01*
X57771000Y-52063500D01*
G75*
G02*
X57708500Y-52126000I-62500J0D01*
G01*
X57583500Y-52126000D01*
G75*
G02*
X57521000Y-52063500I0J62500D01*
G01*
X57521000Y-51388500D01*
G75*
G02*
X57583500Y-51326000I62500J0D01*
G01*
G37*
G36*
G01*
X58083500Y-51326000D02*
X58208500Y-51326000D01*
G75*
G02*
X58271000Y-51388500I0J-62500D01*
G01*
X58271000Y-52063500D01*
G75*
G02*
X58208500Y-52126000I-62500J0D01*
G01*
X58083500Y-52126000D01*
G75*
G02*
X58021000Y-52063500I0J62500D01*
G01*
X58021000Y-51388500D01*
G75*
G02*
X58083500Y-51326000I62500J0D01*
G01*
G37*
G36*
G01*
X58583500Y-51326000D02*
X58708500Y-51326000D01*
G75*
G02*
X58771000Y-51388500I0J-62500D01*
G01*
X58771000Y-52063500D01*
G75*
G02*
X58708500Y-52126000I-62500J0D01*
G01*
X58583500Y-52126000D01*
G75*
G02*
X58521000Y-52063500I0J62500D01*
G01*
X58521000Y-51388500D01*
G75*
G02*
X58583500Y-51326000I62500J0D01*
G01*
G37*
G36*
G01*
X59008500Y-50901000D02*
X59683500Y-50901000D01*
G75*
G02*
X59746000Y-50963500I0J-62500D01*
G01*
X59746000Y-51088500D01*
G75*
G02*
X59683500Y-51151000I-62500J0D01*
G01*
X59008500Y-51151000D01*
G75*
G02*
X58946000Y-51088500I0J62500D01*
G01*
X58946000Y-50963500D01*
G75*
G02*
X59008500Y-50901000I62500J0D01*
G01*
G37*
G36*
G01*
X59008500Y-50401000D02*
X59683500Y-50401000D01*
G75*
G02*
X59746000Y-50463500I0J-62500D01*
G01*
X59746000Y-50588500D01*
G75*
G02*
X59683500Y-50651000I-62500J0D01*
G01*
X59008500Y-50651000D01*
G75*
G02*
X58946000Y-50588500I0J62500D01*
G01*
X58946000Y-50463500D01*
G75*
G02*
X59008500Y-50401000I62500J0D01*
G01*
G37*
G36*
G01*
X59008500Y-49901000D02*
X59683500Y-49901000D01*
G75*
G02*
X59746000Y-49963500I0J-62500D01*
G01*
X59746000Y-50088500D01*
G75*
G02*
X59683500Y-50151000I-62500J0D01*
G01*
X59008500Y-50151000D01*
G75*
G02*
X58946000Y-50088500I0J62500D01*
G01*
X58946000Y-49963500D01*
G75*
G02*
X59008500Y-49901000I62500J0D01*
G01*
G37*
G36*
G01*
X59008500Y-49401000D02*
X59683500Y-49401000D01*
G75*
G02*
X59746000Y-49463500I0J-62500D01*
G01*
X59746000Y-49588500D01*
G75*
G02*
X59683500Y-49651000I-62500J0D01*
G01*
X59008500Y-49651000D01*
G75*
G02*
X58946000Y-49588500I0J62500D01*
G01*
X58946000Y-49463500D01*
G75*
G02*
X59008500Y-49401000I62500J0D01*
G01*
G37*
G36*
G01*
X59008500Y-48901000D02*
X59683500Y-48901000D01*
G75*
G02*
X59746000Y-48963500I0J-62500D01*
G01*
X59746000Y-49088500D01*
G75*
G02*
X59683500Y-49151000I-62500J0D01*
G01*
X59008500Y-49151000D01*
G75*
G02*
X58946000Y-49088500I0J62500D01*
G01*
X58946000Y-48963500D01*
G75*
G02*
X59008500Y-48901000I62500J0D01*
G01*
G37*
G36*
G01*
X59008500Y-48401000D02*
X59683500Y-48401000D01*
G75*
G02*
X59746000Y-48463500I0J-62500D01*
G01*
X59746000Y-48588500D01*
G75*
G02*
X59683500Y-48651000I-62500J0D01*
G01*
X59008500Y-48651000D01*
G75*
G02*
X58946000Y-48588500I0J62500D01*
G01*
X58946000Y-48463500D01*
G75*
G02*
X59008500Y-48401000I62500J0D01*
G01*
G37*
G36*
G01*
X59008500Y-47901000D02*
X59683500Y-47901000D01*
G75*
G02*
X59746000Y-47963500I0J-62500D01*
G01*
X59746000Y-48088500D01*
G75*
G02*
X59683500Y-48151000I-62500J0D01*
G01*
X59008500Y-48151000D01*
G75*
G02*
X58946000Y-48088500I0J62500D01*
G01*
X58946000Y-47963500D01*
G75*
G02*
X59008500Y-47901000I62500J0D01*
G01*
G37*
G36*
G01*
X59008500Y-47401000D02*
X59683500Y-47401000D01*
G75*
G02*
X59746000Y-47463500I0J-62500D01*
G01*
X59746000Y-47588500D01*
G75*
G02*
X59683500Y-47651000I-62500J0D01*
G01*
X59008500Y-47651000D01*
G75*
G02*
X58946000Y-47588500I0J62500D01*
G01*
X58946000Y-47463500D01*
G75*
G02*
X59008500Y-47401000I62500J0D01*
G01*
G37*
G36*
G01*
X57325999Y-47606000D02*
X58316001Y-47606000D01*
G75*
G02*
X58566000Y-47855999I0J-249999D01*
G01*
X58566000Y-48846001D01*
G75*
G02*
X58316001Y-49096000I-249999J0D01*
G01*
X57325999Y-49096000D01*
G75*
G02*
X57076000Y-48846001I0J249999D01*
G01*
X57076000Y-47855999D01*
G75*
G02*
X57325999Y-47606000I249999J0D01*
G01*
G37*
G36*
G01*
X55475999Y-47606000D02*
X56466001Y-47606000D01*
G75*
G02*
X56716000Y-47855999I0J-249999D01*
G01*
X56716000Y-48846001D01*
G75*
G02*
X56466001Y-49096000I-249999J0D01*
G01*
X55475999Y-49096000D01*
G75*
G02*
X55226000Y-48846001I0J249999D01*
G01*
X55226000Y-47855999D01*
G75*
G02*
X55475999Y-47606000I249999J0D01*
G01*
G37*
G36*
G01*
X57325999Y-49456000D02*
X58316001Y-49456000D01*
G75*
G02*
X58566000Y-49705999I0J-249999D01*
G01*
X58566000Y-50696001D01*
G75*
G02*
X58316001Y-50946000I-249999J0D01*
G01*
X57325999Y-50946000D01*
G75*
G02*
X57076000Y-50696001I0J249999D01*
G01*
X57076000Y-49705999D01*
G75*
G02*
X57325999Y-49456000I249999J0D01*
G01*
G37*
G36*
G01*
X55475999Y-49456000D02*
X56466001Y-49456000D01*
G75*
G02*
X56716000Y-49705999I0J-249999D01*
G01*
X56716000Y-50696001D01*
G75*
G02*
X56466001Y-50946000I-249999J0D01*
G01*
X55475999Y-50946000D01*
G75*
G02*
X55226000Y-50696001I0J249999D01*
G01*
X55226000Y-49705999D01*
G75*
G02*
X55475999Y-49456000I249999J0D01*
G01*
G37*
%TD*%
%TO.C,U3*%
G36*
G01*
X63926000Y-54379000D02*
X63926000Y-54079000D01*
G75*
G02*
X64076000Y-53929000I150000J0D01*
G01*
X65376000Y-53929000D01*
G75*
G02*
X65526000Y-54079000I0J-150000D01*
G01*
X65526000Y-54379000D01*
G75*
G02*
X65376000Y-54529000I-150000J0D01*
G01*
X64076000Y-54529000D01*
G75*
G02*
X63926000Y-54379000I0J150000D01*
G01*
G37*
G36*
G01*
X63926000Y-55649000D02*
X63926000Y-55349000D01*
G75*
G02*
X64076000Y-55199000I150000J0D01*
G01*
X65376000Y-55199000D01*
G75*
G02*
X65526000Y-55349000I0J-150000D01*
G01*
X65526000Y-55649000D01*
G75*
G02*
X65376000Y-55799000I-150000J0D01*
G01*
X64076000Y-55799000D01*
G75*
G02*
X63926000Y-55649000I0J150000D01*
G01*
G37*
G36*
G01*
X63926000Y-56919000D02*
X63926000Y-56619000D01*
G75*
G02*
X64076000Y-56469000I150000J0D01*
G01*
X65376000Y-56469000D01*
G75*
G02*
X65526000Y-56619000I0J-150000D01*
G01*
X65526000Y-56919000D01*
G75*
G02*
X65376000Y-57069000I-150000J0D01*
G01*
X64076000Y-57069000D01*
G75*
G02*
X63926000Y-56919000I0J150000D01*
G01*
G37*
G36*
G01*
X63926000Y-58189000D02*
X63926000Y-57889000D01*
G75*
G02*
X64076000Y-57739000I150000J0D01*
G01*
X65376000Y-57739000D01*
G75*
G02*
X65526000Y-57889000I0J-150000D01*
G01*
X65526000Y-58189000D01*
G75*
G02*
X65376000Y-58339000I-150000J0D01*
G01*
X64076000Y-58339000D01*
G75*
G02*
X63926000Y-58189000I0J150000D01*
G01*
G37*
G36*
G01*
X71126000Y-58189000D02*
X71126000Y-57889000D01*
G75*
G02*
X71276000Y-57739000I150000J0D01*
G01*
X72576000Y-57739000D01*
G75*
G02*
X72726000Y-57889000I0J-150000D01*
G01*
X72726000Y-58189000D01*
G75*
G02*
X72576000Y-58339000I-150000J0D01*
G01*
X71276000Y-58339000D01*
G75*
G02*
X71126000Y-58189000I0J150000D01*
G01*
G37*
G36*
G01*
X71126000Y-56919000D02*
X71126000Y-56619000D01*
G75*
G02*
X71276000Y-56469000I150000J0D01*
G01*
X72576000Y-56469000D01*
G75*
G02*
X72726000Y-56619000I0J-150000D01*
G01*
X72726000Y-56919000D01*
G75*
G02*
X72576000Y-57069000I-150000J0D01*
G01*
X71276000Y-57069000D01*
G75*
G02*
X71126000Y-56919000I0J150000D01*
G01*
G37*
G36*
G01*
X71126000Y-55649000D02*
X71126000Y-55349000D01*
G75*
G02*
X71276000Y-55199000I150000J0D01*
G01*
X72576000Y-55199000D01*
G75*
G02*
X72726000Y-55349000I0J-150000D01*
G01*
X72726000Y-55649000D01*
G75*
G02*
X72576000Y-55799000I-150000J0D01*
G01*
X71276000Y-55799000D01*
G75*
G02*
X71126000Y-55649000I0J150000D01*
G01*
G37*
G36*
G01*
X71126000Y-54379000D02*
X71126000Y-54079000D01*
G75*
G02*
X71276000Y-53929000I150000J0D01*
G01*
X72576000Y-53929000D01*
G75*
G02*
X72726000Y-54079000I0J-150000D01*
G01*
X72726000Y-54379000D01*
G75*
G02*
X72576000Y-54529000I-150000J0D01*
G01*
X71276000Y-54529000D01*
G75*
G02*
X71126000Y-54379000I0J150000D01*
G01*
G37*
%TD*%
%TO.C,U4*%
G36*
G01*
X50965000Y-57486500D02*
X50965000Y-57361500D01*
G75*
G02*
X51027500Y-57299000I62500J0D01*
G01*
X51727500Y-57299000D01*
G75*
G02*
X51790000Y-57361500I0J-62500D01*
G01*
X51790000Y-57486500D01*
G75*
G02*
X51727500Y-57549000I-62500J0D01*
G01*
X51027500Y-57549000D01*
G75*
G02*
X50965000Y-57486500I0J62500D01*
G01*
G37*
G36*
G01*
X50965000Y-57986500D02*
X50965000Y-57861500D01*
G75*
G02*
X51027500Y-57799000I62500J0D01*
G01*
X51727500Y-57799000D01*
G75*
G02*
X51790000Y-57861500I0J-62500D01*
G01*
X51790000Y-57986500D01*
G75*
G02*
X51727500Y-58049000I-62500J0D01*
G01*
X51027500Y-58049000D01*
G75*
G02*
X50965000Y-57986500I0J62500D01*
G01*
G37*
G36*
G01*
X50965000Y-58486500D02*
X50965000Y-58361500D01*
G75*
G02*
X51027500Y-58299000I62500J0D01*
G01*
X51727500Y-58299000D01*
G75*
G02*
X51790000Y-58361500I0J-62500D01*
G01*
X51790000Y-58486500D01*
G75*
G02*
X51727500Y-58549000I-62500J0D01*
G01*
X51027500Y-58549000D01*
G75*
G02*
X50965000Y-58486500I0J62500D01*
G01*
G37*
G36*
G01*
X50965000Y-58986500D02*
X50965000Y-58861500D01*
G75*
G02*
X51027500Y-58799000I62500J0D01*
G01*
X51727500Y-58799000D01*
G75*
G02*
X51790000Y-58861500I0J-62500D01*
G01*
X51790000Y-58986500D01*
G75*
G02*
X51727500Y-59049000I-62500J0D01*
G01*
X51027500Y-59049000D01*
G75*
G02*
X50965000Y-58986500I0J62500D01*
G01*
G37*
G36*
G01*
X50965000Y-59486500D02*
X50965000Y-59361500D01*
G75*
G02*
X51027500Y-59299000I62500J0D01*
G01*
X51727500Y-59299000D01*
G75*
G02*
X51790000Y-59361500I0J-62500D01*
G01*
X51790000Y-59486500D01*
G75*
G02*
X51727500Y-59549000I-62500J0D01*
G01*
X51027500Y-59549000D01*
G75*
G02*
X50965000Y-59486500I0J62500D01*
G01*
G37*
G36*
G01*
X50965000Y-59986500D02*
X50965000Y-59861500D01*
G75*
G02*
X51027500Y-59799000I62500J0D01*
G01*
X51727500Y-59799000D01*
G75*
G02*
X51790000Y-59861500I0J-62500D01*
G01*
X51790000Y-59986500D01*
G75*
G02*
X51727500Y-60049000I-62500J0D01*
G01*
X51027500Y-60049000D01*
G75*
G02*
X50965000Y-59986500I0J62500D01*
G01*
G37*
G36*
G01*
X51965000Y-60986500D02*
X51965000Y-60286500D01*
G75*
G02*
X52027500Y-60224000I62500J0D01*
G01*
X52152500Y-60224000D01*
G75*
G02*
X52215000Y-60286500I0J-62500D01*
G01*
X52215000Y-60986500D01*
G75*
G02*
X52152500Y-61049000I-62500J0D01*
G01*
X52027500Y-61049000D01*
G75*
G02*
X51965000Y-60986500I0J62500D01*
G01*
G37*
G36*
G01*
X52465000Y-60986500D02*
X52465000Y-60286500D01*
G75*
G02*
X52527500Y-60224000I62500J0D01*
G01*
X52652500Y-60224000D01*
G75*
G02*
X52715000Y-60286500I0J-62500D01*
G01*
X52715000Y-60986500D01*
G75*
G02*
X52652500Y-61049000I-62500J0D01*
G01*
X52527500Y-61049000D01*
G75*
G02*
X52465000Y-60986500I0J62500D01*
G01*
G37*
G36*
G01*
X52965000Y-60986500D02*
X52965000Y-60286500D01*
G75*
G02*
X53027500Y-60224000I62500J0D01*
G01*
X53152500Y-60224000D01*
G75*
G02*
X53215000Y-60286500I0J-62500D01*
G01*
X53215000Y-60986500D01*
G75*
G02*
X53152500Y-61049000I-62500J0D01*
G01*
X53027500Y-61049000D01*
G75*
G02*
X52965000Y-60986500I0J62500D01*
G01*
G37*
G36*
G01*
X53465000Y-60986500D02*
X53465000Y-60286500D01*
G75*
G02*
X53527500Y-60224000I62500J0D01*
G01*
X53652500Y-60224000D01*
G75*
G02*
X53715000Y-60286500I0J-62500D01*
G01*
X53715000Y-60986500D01*
G75*
G02*
X53652500Y-61049000I-62500J0D01*
G01*
X53527500Y-61049000D01*
G75*
G02*
X53465000Y-60986500I0J62500D01*
G01*
G37*
G36*
G01*
X53965000Y-60986500D02*
X53965000Y-60286500D01*
G75*
G02*
X54027500Y-60224000I62500J0D01*
G01*
X54152500Y-60224000D01*
G75*
G02*
X54215000Y-60286500I0J-62500D01*
G01*
X54215000Y-60986500D01*
G75*
G02*
X54152500Y-61049000I-62500J0D01*
G01*
X54027500Y-61049000D01*
G75*
G02*
X53965000Y-60986500I0J62500D01*
G01*
G37*
G36*
G01*
X54465000Y-60986500D02*
X54465000Y-60286500D01*
G75*
G02*
X54527500Y-60224000I62500J0D01*
G01*
X54652500Y-60224000D01*
G75*
G02*
X54715000Y-60286500I0J-62500D01*
G01*
X54715000Y-60986500D01*
G75*
G02*
X54652500Y-61049000I-62500J0D01*
G01*
X54527500Y-61049000D01*
G75*
G02*
X54465000Y-60986500I0J62500D01*
G01*
G37*
G36*
G01*
X54890000Y-59986500D02*
X54890000Y-59861500D01*
G75*
G02*
X54952500Y-59799000I62500J0D01*
G01*
X55652500Y-59799000D01*
G75*
G02*
X55715000Y-59861500I0J-62500D01*
G01*
X55715000Y-59986500D01*
G75*
G02*
X55652500Y-60049000I-62500J0D01*
G01*
X54952500Y-60049000D01*
G75*
G02*
X54890000Y-59986500I0J62500D01*
G01*
G37*
G36*
G01*
X54890000Y-59486500D02*
X54890000Y-59361500D01*
G75*
G02*
X54952500Y-59299000I62500J0D01*
G01*
X55652500Y-59299000D01*
G75*
G02*
X55715000Y-59361500I0J-62500D01*
G01*
X55715000Y-59486500D01*
G75*
G02*
X55652500Y-59549000I-62500J0D01*
G01*
X54952500Y-59549000D01*
G75*
G02*
X54890000Y-59486500I0J62500D01*
G01*
G37*
G36*
G01*
X54890000Y-58986500D02*
X54890000Y-58861500D01*
G75*
G02*
X54952500Y-58799000I62500J0D01*
G01*
X55652500Y-58799000D01*
G75*
G02*
X55715000Y-58861500I0J-62500D01*
G01*
X55715000Y-58986500D01*
G75*
G02*
X55652500Y-59049000I-62500J0D01*
G01*
X54952500Y-59049000D01*
G75*
G02*
X54890000Y-58986500I0J62500D01*
G01*
G37*
G36*
G01*
X54890000Y-58486500D02*
X54890000Y-58361500D01*
G75*
G02*
X54952500Y-58299000I62500J0D01*
G01*
X55652500Y-58299000D01*
G75*
G02*
X55715000Y-58361500I0J-62500D01*
G01*
X55715000Y-58486500D01*
G75*
G02*
X55652500Y-58549000I-62500J0D01*
G01*
X54952500Y-58549000D01*
G75*
G02*
X54890000Y-58486500I0J62500D01*
G01*
G37*
G36*
G01*
X54890000Y-57986500D02*
X54890000Y-57861500D01*
G75*
G02*
X54952500Y-57799000I62500J0D01*
G01*
X55652500Y-57799000D01*
G75*
G02*
X55715000Y-57861500I0J-62500D01*
G01*
X55715000Y-57986500D01*
G75*
G02*
X55652500Y-58049000I-62500J0D01*
G01*
X54952500Y-58049000D01*
G75*
G02*
X54890000Y-57986500I0J62500D01*
G01*
G37*
G36*
G01*
X54890000Y-57486500D02*
X54890000Y-57361500D01*
G75*
G02*
X54952500Y-57299000I62500J0D01*
G01*
X55652500Y-57299000D01*
G75*
G02*
X55715000Y-57361500I0J-62500D01*
G01*
X55715000Y-57486500D01*
G75*
G02*
X55652500Y-57549000I-62500J0D01*
G01*
X54952500Y-57549000D01*
G75*
G02*
X54890000Y-57486500I0J62500D01*
G01*
G37*
G36*
G01*
X54465000Y-57061500D02*
X54465000Y-56361500D01*
G75*
G02*
X54527500Y-56299000I62500J0D01*
G01*
X54652500Y-56299000D01*
G75*
G02*
X54715000Y-56361500I0J-62500D01*
G01*
X54715000Y-57061500D01*
G75*
G02*
X54652500Y-57124000I-62500J0D01*
G01*
X54527500Y-57124000D01*
G75*
G02*
X54465000Y-57061500I0J62500D01*
G01*
G37*
G36*
G01*
X53965000Y-57061500D02*
X53965000Y-56361500D01*
G75*
G02*
X54027500Y-56299000I62500J0D01*
G01*
X54152500Y-56299000D01*
G75*
G02*
X54215000Y-56361500I0J-62500D01*
G01*
X54215000Y-57061500D01*
G75*
G02*
X54152500Y-57124000I-62500J0D01*
G01*
X54027500Y-57124000D01*
G75*
G02*
X53965000Y-57061500I0J62500D01*
G01*
G37*
G36*
G01*
X53465000Y-57061500D02*
X53465000Y-56361500D01*
G75*
G02*
X53527500Y-56299000I62500J0D01*
G01*
X53652500Y-56299000D01*
G75*
G02*
X53715000Y-56361500I0J-62500D01*
G01*
X53715000Y-57061500D01*
G75*
G02*
X53652500Y-57124000I-62500J0D01*
G01*
X53527500Y-57124000D01*
G75*
G02*
X53465000Y-57061500I0J62500D01*
G01*
G37*
G36*
G01*
X52965000Y-57061500D02*
X52965000Y-56361500D01*
G75*
G02*
X53027500Y-56299000I62500J0D01*
G01*
X53152500Y-56299000D01*
G75*
G02*
X53215000Y-56361500I0J-62500D01*
G01*
X53215000Y-57061500D01*
G75*
G02*
X53152500Y-57124000I-62500J0D01*
G01*
X53027500Y-57124000D01*
G75*
G02*
X52965000Y-57061500I0J62500D01*
G01*
G37*
G36*
G01*
X52465000Y-57061500D02*
X52465000Y-56361500D01*
G75*
G02*
X52527500Y-56299000I62500J0D01*
G01*
X52652500Y-56299000D01*
G75*
G02*
X52715000Y-56361500I0J-62500D01*
G01*
X52715000Y-57061500D01*
G75*
G02*
X52652500Y-57124000I-62500J0D01*
G01*
X52527500Y-57124000D01*
G75*
G02*
X52465000Y-57061500I0J62500D01*
G01*
G37*
G36*
G01*
X51965000Y-57061500D02*
X51965000Y-56361500D01*
G75*
G02*
X52027500Y-56299000I62500J0D01*
G01*
X52152500Y-56299000D01*
G75*
G02*
X52215000Y-56361500I0J-62500D01*
G01*
X52215000Y-57061500D01*
G75*
G02*
X52152500Y-57124000I-62500J0D01*
G01*
X52027500Y-57124000D01*
G75*
G02*
X51965000Y-57061500I0J62500D01*
G01*
G37*
G36*
G01*
X52120000Y-58294001D02*
X52120000Y-57703999D01*
G75*
G02*
X52369999Y-57454000I249999J0D01*
G01*
X52960001Y-57454000D01*
G75*
G02*
X53210000Y-57703999I0J-249999D01*
G01*
X53210000Y-58294001D01*
G75*
G02*
X52960001Y-58544000I-249999J0D01*
G01*
X52369999Y-58544000D01*
G75*
G02*
X52120000Y-58294001I0J249999D01*
G01*
G37*
G36*
G01*
X52120000Y-59644001D02*
X52120000Y-59053999D01*
G75*
G02*
X52369999Y-58804000I249999J0D01*
G01*
X52960001Y-58804000D01*
G75*
G02*
X53210000Y-59053999I0J-249999D01*
G01*
X53210000Y-59644001D01*
G75*
G02*
X52960001Y-59894000I-249999J0D01*
G01*
X52369999Y-59894000D01*
G75*
G02*
X52120000Y-59644001I0J249999D01*
G01*
G37*
G36*
G01*
X53470000Y-58294001D02*
X53470000Y-57703999D01*
G75*
G02*
X53719999Y-57454000I249999J0D01*
G01*
X54310001Y-57454000D01*
G75*
G02*
X54560000Y-57703999I0J-249999D01*
G01*
X54560000Y-58294001D01*
G75*
G02*
X54310001Y-58544000I-249999J0D01*
G01*
X53719999Y-58544000D01*
G75*
G02*
X53470000Y-58294001I0J249999D01*
G01*
G37*
G36*
G01*
X53470000Y-59644001D02*
X53470000Y-59053999D01*
G75*
G02*
X53719999Y-58804000I249999J0D01*
G01*
X54310001Y-58804000D01*
G75*
G02*
X54560000Y-59053999I0J-249999D01*
G01*
X54560000Y-59644001D01*
G75*
G02*
X54310001Y-59894000I-249999J0D01*
G01*
X53719999Y-59894000D01*
G75*
G02*
X53470000Y-59644001I0J249999D01*
G01*
G37*
%TD*%
%TO.C,U5*%
G36*
G01*
X71672000Y-65421000D02*
X71672000Y-65621000D01*
G75*
G02*
X71572000Y-65721000I-100000J0D01*
G01*
X70297000Y-65721000D01*
G75*
G02*
X70197000Y-65621000I0J100000D01*
G01*
X70197000Y-65421000D01*
G75*
G02*
X70297000Y-65321000I100000J0D01*
G01*
X71572000Y-65321000D01*
G75*
G02*
X71672000Y-65421000I0J-100000D01*
G01*
G37*
G36*
G01*
X71672000Y-64771000D02*
X71672000Y-64971000D01*
G75*
G02*
X71572000Y-65071000I-100000J0D01*
G01*
X70297000Y-65071000D01*
G75*
G02*
X70197000Y-64971000I0J100000D01*
G01*
X70197000Y-64771000D01*
G75*
G02*
X70297000Y-64671000I100000J0D01*
G01*
X71572000Y-64671000D01*
G75*
G02*
X71672000Y-64771000I0J-100000D01*
G01*
G37*
G36*
G01*
X71672000Y-64121000D02*
X71672000Y-64321000D01*
G75*
G02*
X71572000Y-64421000I-100000J0D01*
G01*
X70297000Y-64421000D01*
G75*
G02*
X70197000Y-64321000I0J100000D01*
G01*
X70197000Y-64121000D01*
G75*
G02*
X70297000Y-64021000I100000J0D01*
G01*
X71572000Y-64021000D01*
G75*
G02*
X71672000Y-64121000I0J-100000D01*
G01*
G37*
G36*
G01*
X71672000Y-63471000D02*
X71672000Y-63671000D01*
G75*
G02*
X71572000Y-63771000I-100000J0D01*
G01*
X70297000Y-63771000D01*
G75*
G02*
X70197000Y-63671000I0J100000D01*
G01*
X70197000Y-63471000D01*
G75*
G02*
X70297000Y-63371000I100000J0D01*
G01*
X71572000Y-63371000D01*
G75*
G02*
X71672000Y-63471000I0J-100000D01*
G01*
G37*
G36*
G01*
X71672000Y-62821000D02*
X71672000Y-63021000D01*
G75*
G02*
X71572000Y-63121000I-100000J0D01*
G01*
X70297000Y-63121000D01*
G75*
G02*
X70197000Y-63021000I0J100000D01*
G01*
X70197000Y-62821000D01*
G75*
G02*
X70297000Y-62721000I100000J0D01*
G01*
X71572000Y-62721000D01*
G75*
G02*
X71672000Y-62821000I0J-100000D01*
G01*
G37*
G36*
G01*
X71672000Y-62171000D02*
X71672000Y-62371000D01*
G75*
G02*
X71572000Y-62471000I-100000J0D01*
G01*
X70297000Y-62471000D01*
G75*
G02*
X70197000Y-62371000I0J100000D01*
G01*
X70197000Y-62171000D01*
G75*
G02*
X70297000Y-62071000I100000J0D01*
G01*
X71572000Y-62071000D01*
G75*
G02*
X71672000Y-62171000I0J-100000D01*
G01*
G37*
G36*
G01*
X71672000Y-61521000D02*
X71672000Y-61721000D01*
G75*
G02*
X71572000Y-61821000I-100000J0D01*
G01*
X70297000Y-61821000D01*
G75*
G02*
X70197000Y-61721000I0J100000D01*
G01*
X70197000Y-61521000D01*
G75*
G02*
X70297000Y-61421000I100000J0D01*
G01*
X71572000Y-61421000D01*
G75*
G02*
X71672000Y-61521000I0J-100000D01*
G01*
G37*
G36*
G01*
X71672000Y-60871000D02*
X71672000Y-61071000D01*
G75*
G02*
X71572000Y-61171000I-100000J0D01*
G01*
X70297000Y-61171000D01*
G75*
G02*
X70197000Y-61071000I0J100000D01*
G01*
X70197000Y-60871000D01*
G75*
G02*
X70297000Y-60771000I100000J0D01*
G01*
X71572000Y-60771000D01*
G75*
G02*
X71672000Y-60871000I0J-100000D01*
G01*
G37*
G36*
G01*
X65947000Y-60871000D02*
X65947000Y-61071000D01*
G75*
G02*
X65847000Y-61171000I-100000J0D01*
G01*
X64572000Y-61171000D01*
G75*
G02*
X64472000Y-61071000I0J100000D01*
G01*
X64472000Y-60871000D01*
G75*
G02*
X64572000Y-60771000I100000J0D01*
G01*
X65847000Y-60771000D01*
G75*
G02*
X65947000Y-60871000I0J-100000D01*
G01*
G37*
G36*
G01*
X65947000Y-61521000D02*
X65947000Y-61721000D01*
G75*
G02*
X65847000Y-61821000I-100000J0D01*
G01*
X64572000Y-61821000D01*
G75*
G02*
X64472000Y-61721000I0J100000D01*
G01*
X64472000Y-61521000D01*
G75*
G02*
X64572000Y-61421000I100000J0D01*
G01*
X65847000Y-61421000D01*
G75*
G02*
X65947000Y-61521000I0J-100000D01*
G01*
G37*
G36*
G01*
X65947000Y-62171000D02*
X65947000Y-62371000D01*
G75*
G02*
X65847000Y-62471000I-100000J0D01*
G01*
X64572000Y-62471000D01*
G75*
G02*
X64472000Y-62371000I0J100000D01*
G01*
X64472000Y-62171000D01*
G75*
G02*
X64572000Y-62071000I100000J0D01*
G01*
X65847000Y-62071000D01*
G75*
G02*
X65947000Y-62171000I0J-100000D01*
G01*
G37*
G36*
G01*
X65947000Y-62821000D02*
X65947000Y-63021000D01*
G75*
G02*
X65847000Y-63121000I-100000J0D01*
G01*
X64572000Y-63121000D01*
G75*
G02*
X64472000Y-63021000I0J100000D01*
G01*
X64472000Y-62821000D01*
G75*
G02*
X64572000Y-62721000I100000J0D01*
G01*
X65847000Y-62721000D01*
G75*
G02*
X65947000Y-62821000I0J-100000D01*
G01*
G37*
G36*
G01*
X65947000Y-63471000D02*
X65947000Y-63671000D01*
G75*
G02*
X65847000Y-63771000I-100000J0D01*
G01*
X64572000Y-63771000D01*
G75*
G02*
X64472000Y-63671000I0J100000D01*
G01*
X64472000Y-63471000D01*
G75*
G02*
X64572000Y-63371000I100000J0D01*
G01*
X65847000Y-63371000D01*
G75*
G02*
X65947000Y-63471000I0J-100000D01*
G01*
G37*
G36*
G01*
X65947000Y-64121000D02*
X65947000Y-64321000D01*
G75*
G02*
X65847000Y-64421000I-100000J0D01*
G01*
X64572000Y-64421000D01*
G75*
G02*
X64472000Y-64321000I0J100000D01*
G01*
X64472000Y-64121000D01*
G75*
G02*
X64572000Y-64021000I100000J0D01*
G01*
X65847000Y-64021000D01*
G75*
G02*
X65947000Y-64121000I0J-100000D01*
G01*
G37*
G36*
G01*
X65947000Y-64771000D02*
X65947000Y-64971000D01*
G75*
G02*
X65847000Y-65071000I-100000J0D01*
G01*
X64572000Y-65071000D01*
G75*
G02*
X64472000Y-64971000I0J100000D01*
G01*
X64472000Y-64771000D01*
G75*
G02*
X64572000Y-64671000I100000J0D01*
G01*
X65847000Y-64671000D01*
G75*
G02*
X65947000Y-64771000I0J-100000D01*
G01*
G37*
G36*
G01*
X65947000Y-65421000D02*
X65947000Y-65621000D01*
G75*
G02*
X65847000Y-65721000I-100000J0D01*
G01*
X64572000Y-65721000D01*
G75*
G02*
X64472000Y-65621000I0J100000D01*
G01*
X64472000Y-65421000D01*
G75*
G02*
X64572000Y-65321000I100000J0D01*
G01*
X65847000Y-65321000D01*
G75*
G02*
X65947000Y-65421000I0J-100000D01*
G01*
G37*
%TD*%
D16*
%TO.C,Y1*%
X62015000Y-48374120D03*
X62015000Y-50574120D03*
X63715000Y-50574120D03*
X63715000Y-48374120D03*
%TD*%
%TO.C,C1*%
G36*
G01*
X55415000Y-64824000D02*
X55075000Y-64824000D01*
G75*
G02*
X54935000Y-64684000I0J140000D01*
G01*
X54935000Y-64404000D01*
G75*
G02*
X55075000Y-64264000I140000J0D01*
G01*
X55415000Y-64264000D01*
G75*
G02*
X55555000Y-64404000I0J-140000D01*
G01*
X55555000Y-64684000D01*
G75*
G02*
X55415000Y-64824000I-140000J0D01*
G01*
G37*
G36*
G01*
X55415000Y-65784000D02*
X55075000Y-65784000D01*
G75*
G02*
X54935000Y-65644000I0J140000D01*
G01*
X54935000Y-65364000D01*
G75*
G02*
X55075000Y-65224000I140000J0D01*
G01*
X55415000Y-65224000D01*
G75*
G02*
X55555000Y-65364000I0J-140000D01*
G01*
X55555000Y-65644000D01*
G75*
G02*
X55415000Y-65784000I-140000J0D01*
G01*
G37*
%TD*%
%TO.C,C2*%
G36*
G01*
X65427680Y-50066600D02*
X65087680Y-50066600D01*
G75*
G02*
X64947680Y-49926600I0J140000D01*
G01*
X64947680Y-49646600D01*
G75*
G02*
X65087680Y-49506600I140000J0D01*
G01*
X65427680Y-49506600D01*
G75*
G02*
X65567680Y-49646600I0J-140000D01*
G01*
X65567680Y-49926600D01*
G75*
G02*
X65427680Y-50066600I-140000J0D01*
G01*
G37*
G36*
G01*
X65427680Y-51026600D02*
X65087680Y-51026600D01*
G75*
G02*
X64947680Y-50886600I0J140000D01*
G01*
X64947680Y-50606600D01*
G75*
G02*
X65087680Y-50466600I140000J0D01*
G01*
X65427680Y-50466600D01*
G75*
G02*
X65567680Y-50606600I0J-140000D01*
G01*
X65567680Y-50886600D01*
G75*
G02*
X65427680Y-51026600I-140000J0D01*
G01*
G37*
%TD*%
%TO.C,C3*%
G36*
G01*
X62531600Y-47002520D02*
X62531600Y-46662520D01*
G75*
G02*
X62671600Y-46522520I140000J0D01*
G01*
X62951600Y-46522520D01*
G75*
G02*
X63091600Y-46662520I0J-140000D01*
G01*
X63091600Y-47002520D01*
G75*
G02*
X62951600Y-47142520I-140000J0D01*
G01*
X62671600Y-47142520D01*
G75*
G02*
X62531600Y-47002520I0J140000D01*
G01*
G37*
G36*
G01*
X61571600Y-47002520D02*
X61571600Y-46662520D01*
G75*
G02*
X61711600Y-46522520I140000J0D01*
G01*
X61991600Y-46522520D01*
G75*
G02*
X62131600Y-46662520I0J-140000D01*
G01*
X62131600Y-47002520D01*
G75*
G02*
X61991600Y-47142520I-140000J0D01*
G01*
X61711600Y-47142520D01*
G75*
G02*
X61571600Y-47002520I0J140000D01*
G01*
G37*
%TD*%
%TO.C,C5*%
G36*
G01*
X50055600Y-65519840D02*
X49715600Y-65519840D01*
G75*
G02*
X49575600Y-65379840I0J140000D01*
G01*
X49575600Y-65099840D01*
G75*
G02*
X49715600Y-64959840I140000J0D01*
G01*
X50055600Y-64959840D01*
G75*
G02*
X50195600Y-65099840I0J-140000D01*
G01*
X50195600Y-65379840D01*
G75*
G02*
X50055600Y-65519840I-140000J0D01*
G01*
G37*
G36*
G01*
X50055600Y-64559840D02*
X49715600Y-64559840D01*
G75*
G02*
X49575600Y-64419840I0J140000D01*
G01*
X49575600Y-64139840D01*
G75*
G02*
X49715600Y-63999840I140000J0D01*
G01*
X50055600Y-63999840D01*
G75*
G02*
X50195600Y-64139840I0J-140000D01*
G01*
X50195600Y-64419840D01*
G75*
G02*
X50055600Y-64559840I-140000J0D01*
G01*
G37*
%TD*%
%TO.C,C6*%
G36*
G01*
X51864920Y-49893400D02*
X51864920Y-50233400D01*
G75*
G02*
X51724920Y-50373400I-140000J0D01*
G01*
X51444920Y-50373400D01*
G75*
G02*
X51304920Y-50233400I0J140000D01*
G01*
X51304920Y-49893400D01*
G75*
G02*
X51444920Y-49753400I140000J0D01*
G01*
X51724920Y-49753400D01*
G75*
G02*
X51864920Y-49893400I0J-140000D01*
G01*
G37*
G36*
G01*
X52824920Y-49893400D02*
X52824920Y-50233400D01*
G75*
G02*
X52684920Y-50373400I-140000J0D01*
G01*
X52404920Y-50373400D01*
G75*
G02*
X52264920Y-50233400I0J140000D01*
G01*
X52264920Y-49893400D01*
G75*
G02*
X52404920Y-49753400I140000J0D01*
G01*
X52684920Y-49753400D01*
G75*
G02*
X52824920Y-49893400I0J-140000D01*
G01*
G37*
%TD*%
%TO.C,C7*%
G36*
G01*
X51870000Y-51900000D02*
X51870000Y-52240000D01*
G75*
G02*
X51730000Y-52380000I-140000J0D01*
G01*
X51450000Y-52380000D01*
G75*
G02*
X51310000Y-52240000I0J140000D01*
G01*
X51310000Y-51900000D01*
G75*
G02*
X51450000Y-51760000I140000J0D01*
G01*
X51730000Y-51760000D01*
G75*
G02*
X51870000Y-51900000I0J-140000D01*
G01*
G37*
G36*
G01*
X52830000Y-51900000D02*
X52830000Y-52240000D01*
G75*
G02*
X52690000Y-52380000I-140000J0D01*
G01*
X52410000Y-52380000D01*
G75*
G02*
X52270000Y-52240000I0J140000D01*
G01*
X52270000Y-51900000D01*
G75*
G02*
X52410000Y-51760000I140000J0D01*
G01*
X52690000Y-51760000D01*
G75*
G02*
X52830000Y-51900000I0J-140000D01*
G01*
G37*
%TD*%
%TO.C,C8*%
G36*
G01*
X56634200Y-64824000D02*
X56294200Y-64824000D01*
G75*
G02*
X56154200Y-64684000I0J140000D01*
G01*
X56154200Y-64404000D01*
G75*
G02*
X56294200Y-64264000I140000J0D01*
G01*
X56634200Y-64264000D01*
G75*
G02*
X56774200Y-64404000I0J-140000D01*
G01*
X56774200Y-64684000D01*
G75*
G02*
X56634200Y-64824000I-140000J0D01*
G01*
G37*
G36*
G01*
X56634200Y-65784000D02*
X56294200Y-65784000D01*
G75*
G02*
X56154200Y-65644000I0J140000D01*
G01*
X56154200Y-65364000D01*
G75*
G02*
X56294200Y-65224000I140000J0D01*
G01*
X56634200Y-65224000D01*
G75*
G02*
X56774200Y-65364000I0J-140000D01*
G01*
X56774200Y-65644000D01*
G75*
G02*
X56634200Y-65784000I-140000J0D01*
G01*
G37*
%TD*%
%TO.C,C9*%
G36*
G01*
X52632000Y-62568000D02*
X52632000Y-62908000D01*
G75*
G02*
X52492000Y-63048000I-140000J0D01*
G01*
X52212000Y-63048000D01*
G75*
G02*
X52072000Y-62908000I0J140000D01*
G01*
X52072000Y-62568000D01*
G75*
G02*
X52212000Y-62428000I140000J0D01*
G01*
X52492000Y-62428000D01*
G75*
G02*
X52632000Y-62568000I0J-140000D01*
G01*
G37*
G36*
G01*
X53592000Y-62568000D02*
X53592000Y-62908000D01*
G75*
G02*
X53452000Y-63048000I-140000J0D01*
G01*
X53172000Y-63048000D01*
G75*
G02*
X53032000Y-62908000I0J140000D01*
G01*
X53032000Y-62568000D01*
G75*
G02*
X53172000Y-62428000I140000J0D01*
G01*
X53452000Y-62428000D01*
G75*
G02*
X53592000Y-62568000I0J-140000D01*
G01*
G37*
%TD*%
%TO.C,C10*%
G36*
G01*
X73916000Y-54145000D02*
X73916000Y-53805000D01*
G75*
G02*
X74056000Y-53665000I140000J0D01*
G01*
X74336000Y-53665000D01*
G75*
G02*
X74476000Y-53805000I0J-140000D01*
G01*
X74476000Y-54145000D01*
G75*
G02*
X74336000Y-54285000I-140000J0D01*
G01*
X74056000Y-54285000D01*
G75*
G02*
X73916000Y-54145000I0J140000D01*
G01*
G37*
G36*
G01*
X74876000Y-54145000D02*
X74876000Y-53805000D01*
G75*
G02*
X75016000Y-53665000I140000J0D01*
G01*
X75296000Y-53665000D01*
G75*
G02*
X75436000Y-53805000I0J-140000D01*
G01*
X75436000Y-54145000D01*
G75*
G02*
X75296000Y-54285000I-140000J0D01*
G01*
X75016000Y-54285000D01*
G75*
G02*
X74876000Y-54145000I0J140000D01*
G01*
G37*
%TD*%
%TO.C,C11*%
G36*
G01*
X74876000Y-55669000D02*
X74876000Y-55329000D01*
G75*
G02*
X75016000Y-55189000I140000J0D01*
G01*
X75296000Y-55189000D01*
G75*
G02*
X75436000Y-55329000I0J-140000D01*
G01*
X75436000Y-55669000D01*
G75*
G02*
X75296000Y-55809000I-140000J0D01*
G01*
X75016000Y-55809000D01*
G75*
G02*
X74876000Y-55669000I0J140000D01*
G01*
G37*
G36*
G01*
X73916000Y-55669000D02*
X73916000Y-55329000D01*
G75*
G02*
X74056000Y-55189000I140000J0D01*
G01*
X74336000Y-55189000D01*
G75*
G02*
X74476000Y-55329000I0J-140000D01*
G01*
X74476000Y-55669000D01*
G75*
G02*
X74336000Y-55809000I-140000J0D01*
G01*
X74056000Y-55809000D01*
G75*
G02*
X73916000Y-55669000I0J140000D01*
G01*
G37*
%TD*%
%TO.C,C12*%
G36*
G01*
X73916000Y-57193000D02*
X73916000Y-56853000D01*
G75*
G02*
X74056000Y-56713000I140000J0D01*
G01*
X74336000Y-56713000D01*
G75*
G02*
X74476000Y-56853000I0J-140000D01*
G01*
X74476000Y-57193000D01*
G75*
G02*
X74336000Y-57333000I-140000J0D01*
G01*
X74056000Y-57333000D01*
G75*
G02*
X73916000Y-57193000I0J140000D01*
G01*
G37*
G36*
G01*
X74876000Y-57193000D02*
X74876000Y-56853000D01*
G75*
G02*
X75016000Y-56713000I140000J0D01*
G01*
X75296000Y-56713000D01*
G75*
G02*
X75436000Y-56853000I0J-140000D01*
G01*
X75436000Y-57193000D01*
G75*
G02*
X75296000Y-57333000I-140000J0D01*
G01*
X75016000Y-57333000D01*
G75*
G02*
X74876000Y-57193000I0J140000D01*
G01*
G37*
%TD*%
%TO.C,C13*%
G36*
G01*
X64701600Y-45536640D02*
X65041600Y-45536640D01*
G75*
G02*
X65181600Y-45676640I0J-140000D01*
G01*
X65181600Y-45956640D01*
G75*
G02*
X65041600Y-46096640I-140000J0D01*
G01*
X64701600Y-46096640D01*
G75*
G02*
X64561600Y-45956640I0J140000D01*
G01*
X64561600Y-45676640D01*
G75*
G02*
X64701600Y-45536640I140000J0D01*
G01*
G37*
G36*
G01*
X64701600Y-46496640D02*
X65041600Y-46496640D01*
G75*
G02*
X65181600Y-46636640I0J-140000D01*
G01*
X65181600Y-46916640D01*
G75*
G02*
X65041600Y-47056640I-140000J0D01*
G01*
X64701600Y-47056640D01*
G75*
G02*
X64561600Y-46916640I0J140000D01*
G01*
X64561600Y-46636640D01*
G75*
G02*
X64701600Y-46496640I140000J0D01*
G01*
G37*
%TD*%
%TO.C,C14*%
G36*
G01*
X57955360Y-44269120D02*
X58295360Y-44269120D01*
G75*
G02*
X58435360Y-44409120I0J-140000D01*
G01*
X58435360Y-44689120D01*
G75*
G02*
X58295360Y-44829120I-140000J0D01*
G01*
X57955360Y-44829120D01*
G75*
G02*
X57815360Y-44689120I0J140000D01*
G01*
X57815360Y-44409120D01*
G75*
G02*
X57955360Y-44269120I140000J0D01*
G01*
G37*
G36*
G01*
X57955360Y-45229120D02*
X58295360Y-45229120D01*
G75*
G02*
X58435360Y-45369120I0J-140000D01*
G01*
X58435360Y-45649120D01*
G75*
G02*
X58295360Y-45789120I-140000J0D01*
G01*
X57955360Y-45789120D01*
G75*
G02*
X57815360Y-45649120I0J140000D01*
G01*
X57815360Y-45369120D01*
G75*
G02*
X57955360Y-45229120I140000J0D01*
G01*
G37*
%TD*%
%TO.C,R1*%
G36*
G01*
X63635040Y-46549280D02*
X64005040Y-46549280D01*
G75*
G02*
X64140040Y-46684280I0J-135000D01*
G01*
X64140040Y-46954280D01*
G75*
G02*
X64005040Y-47089280I-135000J0D01*
G01*
X63635040Y-47089280D01*
G75*
G02*
X63500040Y-46954280I0J135000D01*
G01*
X63500040Y-46684280D01*
G75*
G02*
X63635040Y-46549280I135000J0D01*
G01*
G37*
G36*
G01*
X63635040Y-45529280D02*
X64005040Y-45529280D01*
G75*
G02*
X64140040Y-45664280I0J-135000D01*
G01*
X64140040Y-45934280D01*
G75*
G02*
X64005040Y-46069280I-135000J0D01*
G01*
X63635040Y-46069280D01*
G75*
G02*
X63500040Y-45934280I0J135000D01*
G01*
X63500040Y-45664280D01*
G75*
G02*
X63635040Y-45529280I135000J0D01*
G01*
G37*
%TD*%
%TO.C,R2*%
G36*
G01*
X61029000Y-56878000D02*
X61399000Y-56878000D01*
G75*
G02*
X61534000Y-57013000I0J-135000D01*
G01*
X61534000Y-57283000D01*
G75*
G02*
X61399000Y-57418000I-135000J0D01*
G01*
X61029000Y-57418000D01*
G75*
G02*
X60894000Y-57283000I0J135000D01*
G01*
X60894000Y-57013000D01*
G75*
G02*
X61029000Y-56878000I135000J0D01*
G01*
G37*
G36*
G01*
X61029000Y-57898000D02*
X61399000Y-57898000D01*
G75*
G02*
X61534000Y-58033000I0J-135000D01*
G01*
X61534000Y-58303000D01*
G75*
G02*
X61399000Y-58438000I-135000J0D01*
G01*
X61029000Y-58438000D01*
G75*
G02*
X60894000Y-58303000I0J135000D01*
G01*
X60894000Y-58033000D01*
G75*
G02*
X61029000Y-57898000I135000J0D01*
G01*
G37*
%TD*%
%TO.C,R3*%
G36*
G01*
X61029000Y-61454000D02*
X61399000Y-61454000D01*
G75*
G02*
X61534000Y-61589000I0J-135000D01*
G01*
X61534000Y-61859000D01*
G75*
G02*
X61399000Y-61994000I-135000J0D01*
G01*
X61029000Y-61994000D01*
G75*
G02*
X60894000Y-61859000I0J135000D01*
G01*
X60894000Y-61589000D01*
G75*
G02*
X61029000Y-61454000I135000J0D01*
G01*
G37*
G36*
G01*
X61029000Y-60434000D02*
X61399000Y-60434000D01*
G75*
G02*
X61534000Y-60569000I0J-135000D01*
G01*
X61534000Y-60839000D01*
G75*
G02*
X61399000Y-60974000I-135000J0D01*
G01*
X61029000Y-60974000D01*
G75*
G02*
X60894000Y-60839000I0J135000D01*
G01*
X60894000Y-60569000D01*
G75*
G02*
X61029000Y-60434000I135000J0D01*
G01*
G37*
%TD*%
%TO.C,R4*%
G36*
G01*
X68268000Y-50405000D02*
X68638000Y-50405000D01*
G75*
G02*
X68773000Y-50540000I0J-135000D01*
G01*
X68773000Y-50810000D01*
G75*
G02*
X68638000Y-50945000I-135000J0D01*
G01*
X68268000Y-50945000D01*
G75*
G02*
X68133000Y-50810000I0J135000D01*
G01*
X68133000Y-50540000D01*
G75*
G02*
X68268000Y-50405000I135000J0D01*
G01*
G37*
G36*
G01*
X68268000Y-49385000D02*
X68638000Y-49385000D01*
G75*
G02*
X68773000Y-49520000I0J-135000D01*
G01*
X68773000Y-49790000D01*
G75*
G02*
X68638000Y-49925000I-135000J0D01*
G01*
X68268000Y-49925000D01*
G75*
G02*
X68133000Y-49790000I0J135000D01*
G01*
X68133000Y-49520000D01*
G75*
G02*
X68268000Y-49385000I135000J0D01*
G01*
G37*
%TD*%
%TO.C,R5*%
G36*
G01*
X52860160Y-54450400D02*
X52860160Y-54820400D01*
G75*
G02*
X52725160Y-54955400I-135000J0D01*
G01*
X52455160Y-54955400D01*
G75*
G02*
X52320160Y-54820400I0J135000D01*
G01*
X52320160Y-54450400D01*
G75*
G02*
X52455160Y-54315400I135000J0D01*
G01*
X52725160Y-54315400D01*
G75*
G02*
X52860160Y-54450400I0J-135000D01*
G01*
G37*
G36*
G01*
X51840160Y-54450400D02*
X51840160Y-54820400D01*
G75*
G02*
X51705160Y-54955400I-135000J0D01*
G01*
X51435160Y-54955400D01*
G75*
G02*
X51300160Y-54820400I0J135000D01*
G01*
X51300160Y-54450400D01*
G75*
G02*
X51435160Y-54315400I135000J0D01*
G01*
X51705160Y-54315400D01*
G75*
G02*
X51840160Y-54450400I0J-135000D01*
G01*
G37*
%TD*%
%TO.C,R6*%
G36*
G01*
X52850000Y-53434400D02*
X52850000Y-53804400D01*
G75*
G02*
X52715000Y-53939400I-135000J0D01*
G01*
X52445000Y-53939400D01*
G75*
G02*
X52310000Y-53804400I0J135000D01*
G01*
X52310000Y-53434400D01*
G75*
G02*
X52445000Y-53299400I135000J0D01*
G01*
X52715000Y-53299400D01*
G75*
G02*
X52850000Y-53434400I0J-135000D01*
G01*
G37*
G36*
G01*
X51830000Y-53434400D02*
X51830000Y-53804400D01*
G75*
G02*
X51695000Y-53939400I-135000J0D01*
G01*
X51425000Y-53939400D01*
G75*
G02*
X51290000Y-53804400I0J135000D01*
G01*
X51290000Y-53434400D01*
G75*
G02*
X51425000Y-53299400I135000J0D01*
G01*
X51695000Y-53299400D01*
G75*
G02*
X51830000Y-53434400I0J-135000D01*
G01*
G37*
%TD*%
%TO.C,R7*%
G36*
G01*
X48045400Y-61232200D02*
X48045400Y-61602200D01*
G75*
G02*
X47910400Y-61737200I-135000J0D01*
G01*
X47640400Y-61737200D01*
G75*
G02*
X47505400Y-61602200I0J135000D01*
G01*
X47505400Y-61232200D01*
G75*
G02*
X47640400Y-61097200I135000J0D01*
G01*
X47910400Y-61097200D01*
G75*
G02*
X48045400Y-61232200I0J-135000D01*
G01*
G37*
G36*
G01*
X49065400Y-61232200D02*
X49065400Y-61602200D01*
G75*
G02*
X48930400Y-61737200I-135000J0D01*
G01*
X48660400Y-61737200D01*
G75*
G02*
X48525400Y-61602200I0J135000D01*
G01*
X48525400Y-61232200D01*
G75*
G02*
X48660400Y-61097200I135000J0D01*
G01*
X48930400Y-61097200D01*
G75*
G02*
X49065400Y-61232200I0J-135000D01*
G01*
G37*
%TD*%
%TO.C,R8*%
G36*
G01*
X51282920Y-47235960D02*
X51282920Y-46865960D01*
G75*
G02*
X51417920Y-46730960I135000J0D01*
G01*
X51687920Y-46730960D01*
G75*
G02*
X51822920Y-46865960I0J-135000D01*
G01*
X51822920Y-47235960D01*
G75*
G02*
X51687920Y-47370960I-135000J0D01*
G01*
X51417920Y-47370960D01*
G75*
G02*
X51282920Y-47235960I0J135000D01*
G01*
G37*
G36*
G01*
X52302920Y-47235960D02*
X52302920Y-46865960D01*
G75*
G02*
X52437920Y-46730960I135000J0D01*
G01*
X52707920Y-46730960D01*
G75*
G02*
X52842920Y-46865960I0J-135000D01*
G01*
X52842920Y-47235960D01*
G75*
G02*
X52707920Y-47370960I-135000J0D01*
G01*
X52437920Y-47370960D01*
G75*
G02*
X52302920Y-47235960I0J135000D01*
G01*
G37*
%TD*%
%TO.C,R10*%
G36*
G01*
X55374320Y-45772920D02*
X55374320Y-45402920D01*
G75*
G02*
X55509320Y-45267920I135000J0D01*
G01*
X55779320Y-45267920D01*
G75*
G02*
X55914320Y-45402920I0J-135000D01*
G01*
X55914320Y-45772920D01*
G75*
G02*
X55779320Y-45907920I-135000J0D01*
G01*
X55509320Y-45907920D01*
G75*
G02*
X55374320Y-45772920I0J135000D01*
G01*
G37*
G36*
G01*
X56394320Y-45772920D02*
X56394320Y-45402920D01*
G75*
G02*
X56529320Y-45267920I135000J0D01*
G01*
X56799320Y-45267920D01*
G75*
G02*
X56934320Y-45402920I0J-135000D01*
G01*
X56934320Y-45772920D01*
G75*
G02*
X56799320Y-45907920I-135000J0D01*
G01*
X56529320Y-45907920D01*
G75*
G02*
X56394320Y-45772920I0J135000D01*
G01*
G37*
%TD*%
%TO.C,R11*%
G36*
G01*
X65748320Y-45529280D02*
X66118320Y-45529280D01*
G75*
G02*
X66253320Y-45664280I0J-135000D01*
G01*
X66253320Y-45934280D01*
G75*
G02*
X66118320Y-46069280I-135000J0D01*
G01*
X65748320Y-46069280D01*
G75*
G02*
X65613320Y-45934280I0J135000D01*
G01*
X65613320Y-45664280D01*
G75*
G02*
X65748320Y-45529280I135000J0D01*
G01*
G37*
G36*
G01*
X65748320Y-46549280D02*
X66118320Y-46549280D01*
G75*
G02*
X66253320Y-46684280I0J-135000D01*
G01*
X66253320Y-46954280D01*
G75*
G02*
X66118320Y-47089280I-135000J0D01*
G01*
X65748320Y-47089280D01*
G75*
G02*
X65613320Y-46954280I0J135000D01*
G01*
X65613320Y-46684280D01*
G75*
G02*
X65748320Y-46549280I135000J0D01*
G01*
G37*
%TD*%
%TO.C,R12*%
G36*
G01*
X66839680Y-50039840D02*
X66469680Y-50039840D01*
G75*
G02*
X66334680Y-49904840I0J135000D01*
G01*
X66334680Y-49634840D01*
G75*
G02*
X66469680Y-49499840I135000J0D01*
G01*
X66839680Y-49499840D01*
G75*
G02*
X66974680Y-49634840I0J-135000D01*
G01*
X66974680Y-49904840D01*
G75*
G02*
X66839680Y-50039840I-135000J0D01*
G01*
G37*
G36*
G01*
X66839680Y-51059840D02*
X66469680Y-51059840D01*
G75*
G02*
X66334680Y-50924840I0J135000D01*
G01*
X66334680Y-50654840D01*
G75*
G02*
X66469680Y-50519840I135000J0D01*
G01*
X66839680Y-50519840D01*
G75*
G02*
X66974680Y-50654840I0J-135000D01*
G01*
X66974680Y-50924840D01*
G75*
G02*
X66839680Y-51059840I-135000J0D01*
G01*
G37*
%TD*%
%TO.C,R13*%
G36*
G01*
X49053000Y-62299000D02*
X49053000Y-62669000D01*
G75*
G02*
X48918000Y-62804000I-135000J0D01*
G01*
X48648000Y-62804000D01*
G75*
G02*
X48513000Y-62669000I0J135000D01*
G01*
X48513000Y-62299000D01*
G75*
G02*
X48648000Y-62164000I135000J0D01*
G01*
X48918000Y-62164000D01*
G75*
G02*
X49053000Y-62299000I0J-135000D01*
G01*
G37*
G36*
G01*
X48033000Y-62299000D02*
X48033000Y-62669000D01*
G75*
G02*
X47898000Y-62804000I-135000J0D01*
G01*
X47628000Y-62804000D01*
G75*
G02*
X47493000Y-62669000I0J135000D01*
G01*
X47493000Y-62299000D01*
G75*
G02*
X47628000Y-62164000I135000J0D01*
G01*
X47898000Y-62164000D01*
G75*
G02*
X48033000Y-62299000I0J-135000D01*
G01*
G37*
%TD*%
%TO.C,R14*%
G36*
G01*
X75456000Y-58489000D02*
X75456000Y-58859000D01*
G75*
G02*
X75321000Y-58994000I-135000J0D01*
G01*
X75051000Y-58994000D01*
G75*
G02*
X74916000Y-58859000I0J135000D01*
G01*
X74916000Y-58489000D01*
G75*
G02*
X75051000Y-58354000I135000J0D01*
G01*
X75321000Y-58354000D01*
G75*
G02*
X75456000Y-58489000I0J-135000D01*
G01*
G37*
G36*
G01*
X74436000Y-58489000D02*
X74436000Y-58859000D01*
G75*
G02*
X74301000Y-58994000I-135000J0D01*
G01*
X74031000Y-58994000D01*
G75*
G02*
X73896000Y-58859000I0J135000D01*
G01*
X73896000Y-58489000D01*
G75*
G02*
X74031000Y-58354000I135000J0D01*
G01*
X74301000Y-58354000D01*
G75*
G02*
X74436000Y-58489000I0J-135000D01*
G01*
G37*
%TD*%
M02*
