%TF.GenerationSoftware,KiCad,Pcbnew,5.1.9-73d0e3b20d~88~ubuntu20.04.1*%
%TF.CreationDate,2021-02-21T20:05:17+08:00*%
%TF.ProjectId,weather_wifi,77656174-6865-4725-9f77-6966692e6b69,1.0*%
%TF.SameCoordinates,Original*%
%TF.FileFunction,Legend,Bot*%
%TF.FilePolarity,Positive*%
%FSLAX46Y46*%
G04 Gerber Fmt 4.6, Leading zero omitted, Abs format (unit mm)*
G04 Created by KiCad (PCBNEW 5.1.9-73d0e3b20d~88~ubuntu20.04.1) date 2021-02-21 20:05:17*
%MOMM*%
%LPD*%
G01*
G04 APERTURE LIST*
%ADD10C,0.010000*%
G04 APERTURE END LIST*
D10*
%TO.C,G1*%
G36*
X78367935Y-52722910D02*
G01*
X78418596Y-52798659D01*
X78440987Y-52852638D01*
X78469112Y-52971490D01*
X78446649Y-53040867D01*
X78438708Y-53048910D01*
X78403147Y-53068471D01*
X78413561Y-53017189D01*
X78415505Y-52950777D01*
X78392326Y-52936371D01*
X78362684Y-52902719D01*
X78369235Y-52867098D01*
X78370195Y-52807632D01*
X78351085Y-52797826D01*
X78307642Y-52762639D01*
X78306353Y-52751644D01*
X78324672Y-52702851D01*
X78367935Y-52722910D01*
G37*
X78367935Y-52722910D02*
X78418596Y-52798659D01*
X78440987Y-52852638D01*
X78469112Y-52971490D01*
X78446649Y-53040867D01*
X78438708Y-53048910D01*
X78403147Y-53068471D01*
X78413561Y-53017189D01*
X78415505Y-52950777D01*
X78392326Y-52936371D01*
X78362684Y-52902719D01*
X78369235Y-52867098D01*
X78370195Y-52807632D01*
X78351085Y-52797826D01*
X78307642Y-52762639D01*
X78306353Y-52751644D01*
X78324672Y-52702851D01*
X78367935Y-52722910D01*
G36*
X77200745Y-52972585D02*
G01*
X77260212Y-53043478D01*
X77323369Y-53137582D01*
X77370189Y-53225828D01*
X77382544Y-53269740D01*
X77346855Y-53286005D01*
X77301898Y-53277515D01*
X77252947Y-53267047D01*
X77275463Y-53295635D01*
X77310725Y-53325147D01*
X77359706Y-53378573D01*
X77348506Y-53398189D01*
X77289395Y-53363765D01*
X77212371Y-53279366D01*
X77201134Y-53264060D01*
X77126389Y-53149150D01*
X77113679Y-53097595D01*
X77163331Y-53104024D01*
X77209535Y-53126193D01*
X77279933Y-53160970D01*
X77281787Y-53147127D01*
X77225212Y-53081353D01*
X77170622Y-53001867D01*
X77164996Y-52953971D01*
X77200745Y-52972585D01*
G37*
X77200745Y-52972585D02*
X77260212Y-53043478D01*
X77323369Y-53137582D01*
X77370189Y-53225828D01*
X77382544Y-53269740D01*
X77346855Y-53286005D01*
X77301898Y-53277515D01*
X77252947Y-53267047D01*
X77275463Y-53295635D01*
X77310725Y-53325147D01*
X77359706Y-53378573D01*
X77348506Y-53398189D01*
X77289395Y-53363765D01*
X77212371Y-53279366D01*
X77201134Y-53264060D01*
X77126389Y-53149150D01*
X77113679Y-53097595D01*
X77163331Y-53104024D01*
X77209535Y-53126193D01*
X77279933Y-53160970D01*
X77281787Y-53147127D01*
X77225212Y-53081353D01*
X77170622Y-53001867D01*
X77164996Y-52953971D01*
X77200745Y-52972585D01*
G36*
X80303532Y-58117362D02*
G01*
X80280665Y-58222342D01*
X80280120Y-58224123D01*
X80238921Y-58329702D01*
X80200572Y-58383915D01*
X80194461Y-58385826D01*
X80182951Y-58348345D01*
X80203391Y-58257117D01*
X80206757Y-58247195D01*
X80255485Y-58133277D01*
X80291441Y-58088837D01*
X80303532Y-58117362D01*
G37*
X80303532Y-58117362D02*
X80280665Y-58222342D01*
X80280120Y-58224123D01*
X80238921Y-58329702D01*
X80200572Y-58383915D01*
X80194461Y-58385826D01*
X80182951Y-58348345D01*
X80203391Y-58257117D01*
X80206757Y-58247195D01*
X80255485Y-58133277D01*
X80291441Y-58088837D01*
X80303532Y-58117362D01*
G36*
X78557954Y-57721659D02*
G01*
X78622958Y-57758926D01*
X78612069Y-57783024D01*
X78586169Y-57785462D01*
X78523546Y-57751921D01*
X78514498Y-57739809D01*
X78521931Y-57713566D01*
X78557954Y-57721659D01*
G37*
X78557954Y-57721659D02*
X78622958Y-57758926D01*
X78612069Y-57783024D01*
X78586169Y-57785462D01*
X78523546Y-57751921D01*
X78514498Y-57739809D01*
X78521931Y-57713566D01*
X78557954Y-57721659D01*
G36*
X77856080Y-59399340D02*
G01*
X77968902Y-59505793D01*
X78021311Y-59563969D01*
X78023195Y-59585500D01*
X78015230Y-59586553D01*
X77978856Y-59555650D01*
X77901103Y-59476573D01*
X77842049Y-59413371D01*
X77682898Y-59240189D01*
X77856080Y-59399340D01*
G37*
X77856080Y-59399340D02*
X77968902Y-59505793D01*
X78021311Y-59563969D01*
X78023195Y-59585500D01*
X78015230Y-59586553D01*
X77978856Y-59555650D01*
X77901103Y-59476573D01*
X77842049Y-59413371D01*
X77682898Y-59240189D01*
X77856080Y-59399340D01*
G36*
X78162378Y-59633180D02*
G01*
X78245855Y-59667649D01*
X78350943Y-59720528D01*
X78387395Y-59759882D01*
X78375967Y-59771280D01*
X78314072Y-59819955D01*
X78225564Y-59918971D01*
X78170630Y-59990644D01*
X78085571Y-60100519D01*
X78020615Y-60171065D01*
X77987163Y-60192433D01*
X77996617Y-60154774D01*
X78010259Y-60129189D01*
X78057292Y-60057011D01*
X78134169Y-59948466D01*
X78158516Y-59915294D01*
X78274143Y-59759125D01*
X78163248Y-59673117D01*
X78100172Y-59622550D01*
X78096655Y-59609452D01*
X78162378Y-59633180D01*
G37*
X78162378Y-59633180D02*
X78245855Y-59667649D01*
X78350943Y-59720528D01*
X78387395Y-59759882D01*
X78375967Y-59771280D01*
X78314072Y-59819955D01*
X78225564Y-59918971D01*
X78170630Y-59990644D01*
X78085571Y-60100519D01*
X78020615Y-60171065D01*
X77987163Y-60192433D01*
X77996617Y-60154774D01*
X78010259Y-60129189D01*
X78057292Y-60057011D01*
X78134169Y-59948466D01*
X78158516Y-59915294D01*
X78274143Y-59759125D01*
X78163248Y-59673117D01*
X78100172Y-59622550D01*
X78096655Y-59609452D01*
X78162378Y-59633180D01*
G36*
X74264961Y-58355915D02*
G01*
X74304794Y-58388575D01*
X74357126Y-58444401D01*
X74460444Y-58553094D01*
X74601689Y-58700968D01*
X74767803Y-58874335D01*
X74841936Y-58951553D01*
X75004722Y-59124002D01*
X75137468Y-59270427D01*
X75230302Y-59379456D01*
X75273349Y-59439717D01*
X75272968Y-59448008D01*
X75226709Y-59416521D01*
X75128424Y-59329504D01*
X74989982Y-59198122D01*
X74823256Y-59033541D01*
X74706064Y-58914791D01*
X74532607Y-58733756D01*
X74387324Y-58575336D01*
X74280358Y-58451153D01*
X74221850Y-58372829D01*
X74214790Y-58351813D01*
X74264961Y-58355915D01*
G37*
X74264961Y-58355915D02*
X74304794Y-58388575D01*
X74357126Y-58444401D01*
X74460444Y-58553094D01*
X74601689Y-58700968D01*
X74767803Y-58874335D01*
X74841936Y-58951553D01*
X75004722Y-59124002D01*
X75137468Y-59270427D01*
X75230302Y-59379456D01*
X75273349Y-59439717D01*
X75272968Y-59448008D01*
X75226709Y-59416521D01*
X75128424Y-59329504D01*
X74989982Y-59198122D01*
X74823256Y-59033541D01*
X74706064Y-58914791D01*
X74532607Y-58733756D01*
X74387324Y-58575336D01*
X74280358Y-58451153D01*
X74221850Y-58372829D01*
X74214790Y-58351813D01*
X74264961Y-58355915D01*
G36*
X76813141Y-59694311D02*
G01*
X76806801Y-59721766D01*
X76782353Y-59725098D01*
X76744340Y-59708201D01*
X76751565Y-59694311D01*
X76806372Y-59688783D01*
X76813141Y-59694311D01*
G37*
X76813141Y-59694311D02*
X76806801Y-59721766D01*
X76782353Y-59725098D01*
X76744340Y-59708201D01*
X76751565Y-59694311D01*
X76806372Y-59688783D01*
X76813141Y-59694311D01*
G36*
X75685535Y-59767785D02*
G01*
X75782040Y-59858043D01*
X75812004Y-59901870D01*
X75797494Y-59909826D01*
X75760366Y-59878846D01*
X75687906Y-59802374D01*
X75670494Y-59782826D01*
X75558535Y-59655826D01*
X75685535Y-59767785D01*
G37*
X75685535Y-59767785D02*
X75782040Y-59858043D01*
X75812004Y-59901870D01*
X75797494Y-59909826D01*
X75760366Y-59878846D01*
X75687906Y-59802374D01*
X75670494Y-59782826D01*
X75558535Y-59655826D01*
X75685535Y-59767785D01*
G36*
X76679753Y-59745650D02*
G01*
X76649145Y-59767389D01*
X76553183Y-59806769D01*
X76450527Y-59842574D01*
X76301346Y-59891692D01*
X76181642Y-59931222D01*
X76135808Y-59946440D01*
X76093863Y-59949804D01*
X76112717Y-59921880D01*
X76174837Y-59887064D01*
X76289368Y-59842585D01*
X76426720Y-59797639D01*
X76557303Y-59761423D01*
X76651527Y-59743133D01*
X76679753Y-59745650D01*
G37*
X76679753Y-59745650D02*
X76649145Y-59767389D01*
X76553183Y-59806769D01*
X76450527Y-59842574D01*
X76301346Y-59891692D01*
X76181642Y-59931222D01*
X76135808Y-59946440D01*
X76093863Y-59949804D01*
X76112717Y-59921880D01*
X76174837Y-59887064D01*
X76289368Y-59842585D01*
X76426720Y-59797639D01*
X76557303Y-59761423D01*
X76651527Y-59743133D01*
X76679753Y-59745650D01*
G36*
X76252360Y-50939008D02*
G01*
X76188823Y-51053029D01*
X76148527Y-51088290D01*
X76135808Y-51048033D01*
X76163464Y-50987236D01*
X76230012Y-50898453D01*
X76230455Y-50897942D01*
X76325103Y-50788918D01*
X76252360Y-50939008D01*
G37*
X76252360Y-50939008D02*
X76188823Y-51053029D01*
X76148527Y-51088290D01*
X76135808Y-51048033D01*
X76163464Y-50987236D01*
X76230012Y-50898453D01*
X76230455Y-50897942D01*
X76325103Y-50788918D01*
X76252360Y-50939008D01*
G36*
X76447671Y-50831387D02*
G01*
X76440643Y-50878779D01*
X76403290Y-50968182D01*
X76353763Y-51062987D01*
X76310214Y-51126583D01*
X76297005Y-51135280D01*
X76301053Y-51098725D01*
X76337166Y-51007662D01*
X76352650Y-50974224D01*
X76405379Y-50876462D01*
X76442223Y-50831114D01*
X76447671Y-50831387D01*
G37*
X76447671Y-50831387D02*
X76440643Y-50878779D01*
X76403290Y-50968182D01*
X76353763Y-51062987D01*
X76310214Y-51126583D01*
X76297005Y-51135280D01*
X76301053Y-51098725D01*
X76337166Y-51007662D01*
X76352650Y-50974224D01*
X76405379Y-50876462D01*
X76442223Y-50831114D01*
X76447671Y-50831387D01*
G36*
X72010232Y-52212856D02*
G01*
X72003892Y-52240311D01*
X71979444Y-52243644D01*
X71941431Y-52226747D01*
X71948656Y-52212856D01*
X72003463Y-52207329D01*
X72010232Y-52212856D01*
G37*
X72010232Y-52212856D02*
X72003892Y-52240311D01*
X71979444Y-52243644D01*
X71941431Y-52226747D01*
X71948656Y-52212856D01*
X72003463Y-52207329D01*
X72010232Y-52212856D01*
G36*
X71840898Y-52220553D02*
G01*
X71817808Y-52243644D01*
X71794717Y-52220553D01*
X71817808Y-52197462D01*
X71840898Y-52220553D01*
G37*
X71840898Y-52220553D02*
X71817808Y-52243644D01*
X71794717Y-52220553D01*
X71817808Y-52197462D01*
X71840898Y-52220553D01*
G36*
X71425262Y-52220553D02*
G01*
X71402171Y-52243644D01*
X71379080Y-52220553D01*
X71402171Y-52197462D01*
X71425262Y-52220553D01*
G37*
X71425262Y-52220553D02*
X71402171Y-52243644D01*
X71379080Y-52220553D01*
X71402171Y-52197462D01*
X71425262Y-52220553D01*
G36*
X71225141Y-52212856D02*
G01*
X71218801Y-52240311D01*
X71194353Y-52243644D01*
X71156340Y-52226747D01*
X71163565Y-52212856D01*
X71218372Y-52207329D01*
X71225141Y-52212856D01*
G37*
X71225141Y-52212856D02*
X71218801Y-52240311D01*
X71194353Y-52243644D01*
X71156340Y-52226747D01*
X71163565Y-52212856D01*
X71218372Y-52207329D01*
X71225141Y-52212856D01*
G36*
X71043300Y-52261924D02*
G01*
X71029527Y-52282914D01*
X70982686Y-52286180D01*
X70933409Y-52274901D01*
X70954785Y-52258278D01*
X71026961Y-52252773D01*
X71043300Y-52261924D01*
G37*
X71043300Y-52261924D02*
X71029527Y-52282914D01*
X70982686Y-52286180D01*
X70933409Y-52274901D01*
X70954785Y-52258278D01*
X71026961Y-52252773D01*
X71043300Y-52261924D01*
G36*
X70855686Y-52305220D02*
G01*
X70849347Y-52332675D01*
X70824898Y-52336008D01*
X70786886Y-52319110D01*
X70794111Y-52305220D01*
X70848918Y-52299693D01*
X70855686Y-52305220D01*
G37*
X70855686Y-52305220D02*
X70849347Y-52332675D01*
X70824898Y-52336008D01*
X70786886Y-52319110D01*
X70794111Y-52305220D01*
X70848918Y-52299693D01*
X70855686Y-52305220D01*
G36*
X70717141Y-52351401D02*
G01*
X70710801Y-52378856D01*
X70686353Y-52382189D01*
X70648340Y-52365292D01*
X70655565Y-52351401D01*
X70710372Y-52345874D01*
X70717141Y-52351401D01*
G37*
X70717141Y-52351401D02*
X70710801Y-52378856D01*
X70686353Y-52382189D01*
X70648340Y-52365292D01*
X70655565Y-52351401D01*
X70710372Y-52345874D01*
X70717141Y-52351401D01*
G36*
X70593989Y-52405280D02*
G01*
X70570898Y-52428371D01*
X70547808Y-52405280D01*
X70570898Y-52382189D01*
X70593989Y-52405280D01*
G37*
X70593989Y-52405280D02*
X70570898Y-52428371D01*
X70547808Y-52405280D01*
X70570898Y-52382189D01*
X70593989Y-52405280D01*
G36*
X71737528Y-52581368D02*
G01*
X71748323Y-52593851D01*
X71682003Y-52600856D01*
X71633080Y-52601452D01*
X71543645Y-52596905D01*
X71530077Y-52586475D01*
X71552800Y-52580436D01*
X71673133Y-52573000D01*
X71737528Y-52581368D01*
G37*
X71737528Y-52581368D02*
X71748323Y-52593851D01*
X71682003Y-52600856D01*
X71633080Y-52601452D01*
X71543645Y-52596905D01*
X71530077Y-52586475D01*
X71552800Y-52580436D01*
X71673133Y-52573000D01*
X71737528Y-52581368D01*
G36*
X71366573Y-52631379D02*
G01*
X71352799Y-52652369D01*
X71305959Y-52655634D01*
X71256681Y-52644356D01*
X71278058Y-52627733D01*
X71350234Y-52622227D01*
X71366573Y-52631379D01*
G37*
X71366573Y-52631379D02*
X71352799Y-52652369D01*
X71305959Y-52655634D01*
X71256681Y-52644356D01*
X71278058Y-52627733D01*
X71350234Y-52622227D01*
X71366573Y-52631379D01*
G36*
X71992649Y-52646703D02*
G01*
X72002535Y-52659280D01*
X72018790Y-52700817D01*
X71975097Y-52685173D01*
X71933262Y-52659280D01*
X71897758Y-52622207D01*
X71918991Y-52613806D01*
X71992649Y-52646703D01*
G37*
X71992649Y-52646703D02*
X72002535Y-52659280D01*
X72018790Y-52700817D01*
X71975097Y-52685173D01*
X71933262Y-52659280D01*
X71897758Y-52622207D01*
X71918991Y-52613806D01*
X71992649Y-52646703D01*
G36*
X71148171Y-52682371D02*
G01*
X71125080Y-52705462D01*
X71101989Y-52682371D01*
X71125080Y-52659280D01*
X71148171Y-52682371D01*
G37*
X71148171Y-52682371D02*
X71125080Y-52705462D01*
X71101989Y-52682371D01*
X71125080Y-52659280D01*
X71148171Y-52682371D01*
G36*
X72212770Y-52273440D02*
G01*
X72337986Y-52348599D01*
X72469385Y-52447884D01*
X72578101Y-52550024D01*
X72627331Y-52615605D01*
X72666630Y-52704716D01*
X72657473Y-52724581D01*
X72609363Y-52677867D01*
X72548681Y-52593535D01*
X72443803Y-52478221D01*
X72300334Y-52371297D01*
X72249043Y-52342876D01*
X72149168Y-52287042D01*
X72109615Y-52251060D01*
X72122606Y-52243680D01*
X72212770Y-52273440D01*
G37*
X72212770Y-52273440D02*
X72337986Y-52348599D01*
X72469385Y-52447884D01*
X72578101Y-52550024D01*
X72627331Y-52615605D01*
X72666630Y-52704716D01*
X72657473Y-52724581D01*
X72609363Y-52677867D01*
X72548681Y-52593535D01*
X72443803Y-52478221D01*
X72300334Y-52371297D01*
X72249043Y-52342876D01*
X72149168Y-52287042D01*
X72109615Y-52251060D01*
X72122606Y-52243680D01*
X72212770Y-52273440D01*
G36*
X70963444Y-52728553D02*
G01*
X70940353Y-52751644D01*
X70917262Y-52728553D01*
X70940353Y-52705462D01*
X70963444Y-52728553D01*
G37*
X70963444Y-52728553D02*
X70940353Y-52751644D01*
X70917262Y-52728553D01*
X70940353Y-52705462D01*
X70963444Y-52728553D01*
G36*
X70824898Y-52774735D02*
G01*
X70801808Y-52797826D01*
X70778717Y-52774735D01*
X70801808Y-52751644D01*
X70824898Y-52774735D01*
G37*
X70824898Y-52774735D02*
X70801808Y-52797826D01*
X70778717Y-52774735D01*
X70801808Y-52751644D01*
X70824898Y-52774735D01*
G36*
X70732535Y-52820917D02*
G01*
X70709444Y-52844008D01*
X70686353Y-52820917D01*
X70709444Y-52797826D01*
X70732535Y-52820917D01*
G37*
X70732535Y-52820917D02*
X70709444Y-52844008D01*
X70686353Y-52820917D01*
X70709444Y-52797826D01*
X70732535Y-52820917D01*
G36*
X72656777Y-52813220D02*
G01*
X72662304Y-52868027D01*
X72656777Y-52874795D01*
X72629322Y-52868456D01*
X72625989Y-52844008D01*
X72642887Y-52805995D01*
X72656777Y-52813220D01*
G37*
X72656777Y-52813220D02*
X72662304Y-52868027D01*
X72656777Y-52874795D01*
X72629322Y-52868456D01*
X72625989Y-52844008D01*
X72642887Y-52805995D01*
X72656777Y-52813220D01*
G36*
X72010232Y-52813220D02*
G01*
X72015759Y-52868027D01*
X72010232Y-52874795D01*
X71982777Y-52868456D01*
X71979444Y-52844008D01*
X71996341Y-52805995D01*
X72010232Y-52813220D01*
G37*
X72010232Y-52813220D02*
X72015759Y-52868027D01*
X72010232Y-52874795D01*
X71982777Y-52868456D01*
X71979444Y-52844008D01*
X71996341Y-52805995D01*
X72010232Y-52813220D01*
G36*
X70640171Y-52867098D02*
G01*
X70617080Y-52890189D01*
X70593989Y-52867098D01*
X70617080Y-52844008D01*
X70640171Y-52867098D01*
G37*
X70640171Y-52867098D02*
X70617080Y-52890189D01*
X70593989Y-52867098D01*
X70617080Y-52844008D01*
X70640171Y-52867098D01*
G36*
X72607836Y-52965214D02*
G01*
X72556717Y-53028735D01*
X72487319Y-53097035D01*
X72450038Y-53121098D01*
X72459415Y-53092255D01*
X72510535Y-53028735D01*
X72579933Y-52960435D01*
X72617214Y-52936371D01*
X72607836Y-52965214D01*
G37*
X72607836Y-52965214D02*
X72556717Y-53028735D01*
X72487319Y-53097035D01*
X72450038Y-53121098D01*
X72459415Y-53092255D01*
X72510535Y-53028735D01*
X72579933Y-52960435D01*
X72617214Y-52936371D01*
X72607836Y-52965214D01*
G36*
X72395080Y-53144189D02*
G01*
X72371989Y-53167280D01*
X72348898Y-53144189D01*
X72371989Y-53121098D01*
X72395080Y-53144189D01*
G37*
X72395080Y-53144189D02*
X72371989Y-53167280D01*
X72348898Y-53144189D01*
X72371989Y-53121098D01*
X72395080Y-53144189D01*
G36*
X72048384Y-53040035D02*
G01*
X72094898Y-53073394D01*
X72172753Y-53130123D01*
X72206504Y-53154212D01*
X72191326Y-53166653D01*
X72177523Y-53167280D01*
X72113174Y-53134562D01*
X72065917Y-53086462D01*
X72026565Y-53032449D01*
X72048384Y-53040035D01*
G37*
X72048384Y-53040035D02*
X72094898Y-53073394D01*
X72172753Y-53130123D01*
X72206504Y-53154212D01*
X72191326Y-53166653D01*
X72177523Y-53167280D01*
X72113174Y-53134562D01*
X72065917Y-53086462D01*
X72026565Y-53032449D01*
X72048384Y-53040035D01*
G36*
X70593989Y-53328917D02*
G01*
X70570898Y-53352008D01*
X70547808Y-53328917D01*
X70570898Y-53305826D01*
X70593989Y-53328917D01*
G37*
X70593989Y-53328917D02*
X70570898Y-53352008D01*
X70547808Y-53328917D01*
X70570898Y-53305826D01*
X70593989Y-53328917D01*
G36*
X70775828Y-53334251D02*
G01*
X70852024Y-53402662D01*
X70932070Y-53485761D01*
X70991595Y-53558253D01*
X71006259Y-53594820D01*
X70965638Y-53572645D01*
X70885457Y-53501733D01*
X70840401Y-53456756D01*
X70760958Y-53368036D01*
X70724814Y-53313770D01*
X70727851Y-53305826D01*
X70775828Y-53334251D01*
G37*
X70775828Y-53334251D02*
X70852024Y-53402662D01*
X70932070Y-53485761D01*
X70991595Y-53558253D01*
X71006259Y-53594820D01*
X70965638Y-53572645D01*
X70885457Y-53501733D01*
X70840401Y-53456756D01*
X70760958Y-53368036D01*
X70724814Y-53313770D01*
X70727851Y-53305826D01*
X70775828Y-53334251D01*
G36*
X73722808Y-53781991D02*
G01*
X73737180Y-53795377D01*
X73673323Y-53802665D01*
X73641989Y-53803111D01*
X73557970Y-53798297D01*
X73548068Y-53786309D01*
X73561171Y-53781991D01*
X73678299Y-53774809D01*
X73722808Y-53781991D01*
G37*
X73722808Y-53781991D02*
X73737180Y-53795377D01*
X73673323Y-53802665D01*
X73641989Y-53803111D01*
X73557970Y-53798297D01*
X73548068Y-53786309D01*
X73561171Y-53781991D01*
X73678299Y-53774809D01*
X73722808Y-53781991D01*
G36*
X73395686Y-53783038D02*
G01*
X73389347Y-53810493D01*
X73364898Y-53813826D01*
X73326886Y-53796928D01*
X73334111Y-53783038D01*
X73388918Y-53777511D01*
X73395686Y-53783038D01*
G37*
X73395686Y-53783038D02*
X73389347Y-53810493D01*
X73364898Y-53813826D01*
X73326886Y-53796928D01*
X73334111Y-53783038D01*
X73388918Y-53777511D01*
X73395686Y-53783038D01*
G36*
X73006989Y-53827415D02*
G01*
X73028874Y-53838836D01*
X72970852Y-53846082D01*
X72903080Y-53847429D01*
X72803196Y-53843827D01*
X72775776Y-53834616D01*
X72799171Y-53827415D01*
X72933744Y-53819775D01*
X73006989Y-53827415D01*
G37*
X73006989Y-53827415D02*
X73028874Y-53838836D01*
X72970852Y-53846082D01*
X72903080Y-53847429D01*
X72803196Y-53843827D01*
X72775776Y-53834616D01*
X72799171Y-53827415D01*
X72933744Y-53819775D01*
X73006989Y-53827415D01*
G36*
X72591353Y-53829422D02*
G01*
X72597154Y-53846278D01*
X72533626Y-53852716D01*
X72468065Y-53845458D01*
X72475898Y-53829422D01*
X72570449Y-53823323D01*
X72591353Y-53829422D01*
G37*
X72591353Y-53829422D02*
X72597154Y-53846278D01*
X72533626Y-53852716D01*
X72468065Y-53845458D01*
X72475898Y-53829422D01*
X72570449Y-53823323D01*
X72591353Y-53829422D01*
G36*
X71880002Y-53867377D02*
G01*
X71859139Y-53887198D01*
X71755419Y-53917275D01*
X71725444Y-53924186D01*
X71640514Y-53938232D01*
X71637462Y-53922268D01*
X71656171Y-53908299D01*
X71762348Y-53866964D01*
X71813959Y-53860715D01*
X71880002Y-53867377D01*
G37*
X71880002Y-53867377D02*
X71859139Y-53887198D01*
X71755419Y-53917275D01*
X71725444Y-53924186D01*
X71640514Y-53938232D01*
X71637462Y-53922268D01*
X71656171Y-53908299D01*
X71762348Y-53866964D01*
X71813959Y-53860715D01*
X71880002Y-53867377D01*
G36*
X71548414Y-53967765D02*
G01*
X71542074Y-53995220D01*
X71517626Y-53998553D01*
X71479613Y-53981656D01*
X71486838Y-53967765D01*
X71541645Y-53962238D01*
X71548414Y-53967765D01*
G37*
X71548414Y-53967765D02*
X71542074Y-53995220D01*
X71517626Y-53998553D01*
X71479613Y-53981656D01*
X71486838Y-53967765D01*
X71541645Y-53962238D01*
X71548414Y-53967765D01*
G36*
X74062310Y-53801239D02*
G01*
X74145453Y-53879692D01*
X74215693Y-53969504D01*
X74242353Y-54033440D01*
X74210425Y-54103706D01*
X74200478Y-54111346D01*
X74176027Y-54097436D01*
X74181127Y-54051093D01*
X74160429Y-53952503D01*
X74078229Y-53866302D01*
X74007230Y-53801957D01*
X73991798Y-53768840D01*
X73997166Y-53767644D01*
X74062310Y-53801239D01*
G37*
X74062310Y-53801239D02*
X74145453Y-53879692D01*
X74215693Y-53969504D01*
X74242353Y-54033440D01*
X74210425Y-54103706D01*
X74200478Y-54111346D01*
X74176027Y-54097436D01*
X74181127Y-54051093D01*
X74160429Y-53952503D01*
X74078229Y-53866302D01*
X74007230Y-53801957D01*
X73991798Y-53768840D01*
X73997166Y-53767644D01*
X74062310Y-53801239D01*
G36*
X73792959Y-54152988D02*
G01*
X73794494Y-54168149D01*
X73722199Y-54174341D01*
X73711262Y-54174277D01*
X73639636Y-54167618D01*
X73646473Y-54153562D01*
X73654414Y-54151277D01*
X73755012Y-54144516D01*
X73792959Y-54152988D01*
G37*
X73792959Y-54152988D02*
X73794494Y-54168149D01*
X73722199Y-54174341D01*
X73711262Y-54174277D01*
X73639636Y-54167618D01*
X73646473Y-54153562D01*
X73654414Y-54151277D01*
X73755012Y-54144516D01*
X73792959Y-54152988D01*
G36*
X72961686Y-54199170D02*
G01*
X72963222Y-54214331D01*
X72890926Y-54220522D01*
X72879989Y-54220459D01*
X72808363Y-54213800D01*
X72815201Y-54199744D01*
X72823141Y-54197458D01*
X72923739Y-54190698D01*
X72961686Y-54199170D01*
G37*
X72961686Y-54199170D02*
X72963222Y-54214331D01*
X72890926Y-54220522D01*
X72879989Y-54220459D01*
X72808363Y-54213800D01*
X72815201Y-54199744D01*
X72823141Y-54197458D01*
X72923739Y-54190698D01*
X72961686Y-54199170D01*
G36*
X72268080Y-54232708D02*
G01*
X72336097Y-54238957D01*
X72317095Y-54257033D01*
X72288158Y-54269006D01*
X72230842Y-54298542D01*
X72244168Y-54335502D01*
X72288158Y-54376446D01*
X72394333Y-54446002D01*
X72464353Y-54473337D01*
X72528911Y-54491261D01*
X72503077Y-54498587D01*
X72460858Y-54501196D01*
X72362512Y-54472985D01*
X72264585Y-54399667D01*
X72183491Y-54301194D01*
X72175443Y-54248986D01*
X72240665Y-54232496D01*
X72268080Y-54232708D01*
G37*
X72268080Y-54232708D02*
X72336097Y-54238957D01*
X72317095Y-54257033D01*
X72288158Y-54269006D01*
X72230842Y-54298542D01*
X72244168Y-54335502D01*
X72288158Y-54376446D01*
X72394333Y-54446002D01*
X72464353Y-54473337D01*
X72528911Y-54491261D01*
X72503077Y-54498587D01*
X72460858Y-54501196D01*
X72362512Y-54472985D01*
X72264585Y-54399667D01*
X72183491Y-54301194D01*
X72175443Y-54248986D01*
X72240665Y-54232496D01*
X72268080Y-54232708D01*
G36*
X71404416Y-54029582D02*
G01*
X71395295Y-54069093D01*
X71408119Y-54143996D01*
X71490995Y-54262118D01*
X71613610Y-54394764D01*
X71727676Y-54513059D01*
X71807415Y-54601204D01*
X71838773Y-54643503D01*
X71837743Y-54645098D01*
X71796508Y-54614626D01*
X71708834Y-54534145D01*
X71592476Y-54420058D01*
X71573775Y-54401192D01*
X71431554Y-54249041D01*
X71355002Y-54143355D01*
X71338074Y-54072392D01*
X71374724Y-54024410D01*
X71378551Y-54021971D01*
X71404416Y-54029582D01*
G37*
X71404416Y-54029582D02*
X71395295Y-54069093D01*
X71408119Y-54143996D01*
X71490995Y-54262118D01*
X71613610Y-54394764D01*
X71727676Y-54513059D01*
X71807415Y-54601204D01*
X71838773Y-54643503D01*
X71837743Y-54645098D01*
X71796508Y-54614626D01*
X71708834Y-54534145D01*
X71592476Y-54420058D01*
X71573775Y-54401192D01*
X71431554Y-54249041D01*
X71355002Y-54143355D01*
X71338074Y-54072392D01*
X71374724Y-54024410D01*
X71378551Y-54021971D01*
X71404416Y-54029582D01*
G36*
X72967086Y-54339594D02*
G01*
X73046727Y-54398946D01*
X73095934Y-54447183D01*
X73177423Y-54547242D01*
X73214110Y-54630583D01*
X73212459Y-54651537D01*
X73191042Y-54684238D01*
X73183817Y-54641603D01*
X73149613Y-54561821D01*
X73071516Y-54466871D01*
X73064959Y-54460599D01*
X72978652Y-54391992D01*
X72898144Y-54376477D01*
X72778671Y-54404867D01*
X72665144Y-54434133D01*
X72595901Y-54441531D01*
X72589205Y-54438981D01*
X72617109Y-54416220D01*
X72708942Y-54380194D01*
X72762614Y-54363127D01*
X72886900Y-54331316D01*
X72967086Y-54339594D01*
G37*
X72967086Y-54339594D02*
X73046727Y-54398946D01*
X73095934Y-54447183D01*
X73177423Y-54547242D01*
X73214110Y-54630583D01*
X73212459Y-54651537D01*
X73191042Y-54684238D01*
X73183817Y-54641603D01*
X73149613Y-54561821D01*
X73071516Y-54466871D01*
X73064959Y-54460599D01*
X72978652Y-54391992D01*
X72898144Y-54376477D01*
X72778671Y-54404867D01*
X72665144Y-54434133D01*
X72595901Y-54441531D01*
X72589205Y-54438981D01*
X72617109Y-54416220D01*
X72708942Y-54380194D01*
X72762614Y-54363127D01*
X72886900Y-54331316D01*
X72967086Y-54339594D01*
G36*
X73133989Y-54714371D02*
G01*
X73110898Y-54737462D01*
X73087808Y-54714371D01*
X73110898Y-54691280D01*
X73133989Y-54714371D01*
G37*
X73133989Y-54714371D02*
X73110898Y-54737462D01*
X73087808Y-54714371D01*
X73110898Y-54691280D01*
X73133989Y-54714371D01*
G36*
X73041626Y-54760553D02*
G01*
X73018535Y-54783644D01*
X72995444Y-54760553D01*
X73018535Y-54737462D01*
X73041626Y-54760553D01*
G37*
X73041626Y-54760553D02*
X73018535Y-54783644D01*
X72995444Y-54760553D01*
X73018535Y-54737462D01*
X73041626Y-54760553D01*
G36*
X72933868Y-54799038D02*
G01*
X72927529Y-54826493D01*
X72903080Y-54829826D01*
X72865067Y-54812928D01*
X72872292Y-54799038D01*
X72927099Y-54793511D01*
X72933868Y-54799038D01*
G37*
X72933868Y-54799038D02*
X72927529Y-54826493D01*
X72903080Y-54829826D01*
X72865067Y-54812928D01*
X72872292Y-54799038D01*
X72927099Y-54793511D01*
X72933868Y-54799038D01*
G36*
X74900444Y-54937786D02*
G01*
X74906245Y-54954642D01*
X74842717Y-54961079D01*
X74777155Y-54953822D01*
X74784989Y-54937786D01*
X74879540Y-54931686D01*
X74900444Y-54937786D01*
G37*
X74900444Y-54937786D02*
X74906245Y-54954642D01*
X74842717Y-54961079D01*
X74777155Y-54953822D01*
X74784989Y-54937786D01*
X74879540Y-54931686D01*
X74900444Y-54937786D01*
G36*
X74392444Y-54937786D02*
G01*
X74398245Y-54954642D01*
X74334717Y-54961079D01*
X74269155Y-54953822D01*
X74276989Y-54937786D01*
X74371540Y-54931686D01*
X74392444Y-54937786D01*
G37*
X74392444Y-54937786D02*
X74398245Y-54954642D01*
X74334717Y-54961079D01*
X74269155Y-54953822D01*
X74276989Y-54937786D01*
X74371540Y-54931686D01*
X74392444Y-54937786D01*
G36*
X74180777Y-54983765D02*
G01*
X74174438Y-55011220D01*
X74149989Y-55014553D01*
X74111976Y-54997656D01*
X74119201Y-54983765D01*
X74174008Y-54978238D01*
X74180777Y-54983765D01*
G37*
X74180777Y-54983765D02*
X74174438Y-55011220D01*
X74149989Y-55014553D01*
X74111976Y-54997656D01*
X74119201Y-54983765D01*
X74174008Y-54978238D01*
X74180777Y-54983765D01*
G36*
X72816354Y-54891017D02*
G01*
X72846950Y-54967542D01*
X72843746Y-54996918D01*
X72812245Y-54980453D01*
X72793331Y-54943495D01*
X72767166Y-54855804D01*
X72777909Y-54838308D01*
X72816354Y-54891017D01*
G37*
X72816354Y-54891017D02*
X72846950Y-54967542D01*
X72843746Y-54996918D01*
X72812245Y-54980453D01*
X72793331Y-54943495D01*
X72767166Y-54855804D01*
X72777909Y-54838308D01*
X72816354Y-54891017D01*
G36*
X72148777Y-55076129D02*
G01*
X72142438Y-55103584D01*
X72117989Y-55106917D01*
X72079976Y-55090019D01*
X72087201Y-55076129D01*
X72142008Y-55070602D01*
X72148777Y-55076129D01*
G37*
X72148777Y-55076129D02*
X72142438Y-55103584D01*
X72117989Y-55106917D01*
X72079976Y-55090019D01*
X72087201Y-55076129D01*
X72142008Y-55070602D01*
X72148777Y-55076129D01*
G36*
X72842409Y-55090566D02*
G01*
X72833808Y-55106917D01*
X72790294Y-55151020D01*
X72782175Y-55153098D01*
X72779024Y-55123267D01*
X72787626Y-55106917D01*
X72831139Y-55062813D01*
X72839259Y-55060735D01*
X72842409Y-55090566D01*
G37*
X72842409Y-55090566D02*
X72833808Y-55106917D01*
X72790294Y-55151020D01*
X72782175Y-55153098D01*
X72779024Y-55123267D01*
X72787626Y-55106917D01*
X72831139Y-55062813D01*
X72839259Y-55060735D01*
X72842409Y-55090566D01*
G36*
X72025626Y-55130008D02*
G01*
X72002535Y-55153098D01*
X71979444Y-55130008D01*
X72002535Y-55106917D01*
X72025626Y-55130008D01*
G37*
X72025626Y-55130008D02*
X72002535Y-55153098D01*
X71979444Y-55130008D01*
X72002535Y-55106917D01*
X72025626Y-55130008D01*
G36*
X71917868Y-55168492D02*
G01*
X71911529Y-55195947D01*
X71887080Y-55199280D01*
X71849067Y-55182383D01*
X71856292Y-55168492D01*
X71911099Y-55162965D01*
X71917868Y-55168492D01*
G37*
X71917868Y-55168492D02*
X71911529Y-55195947D01*
X71887080Y-55199280D01*
X71849067Y-55182383D01*
X71856292Y-55168492D01*
X71911099Y-55162965D01*
X71917868Y-55168492D01*
G36*
X72703523Y-55173570D02*
G01*
X72672171Y-55199280D01*
X72587981Y-55238359D01*
X72556717Y-55244048D01*
X72548456Y-55224991D01*
X72579808Y-55199280D01*
X72663998Y-55160202D01*
X72695262Y-55154513D01*
X72703523Y-55173570D01*
G37*
X72703523Y-55173570D02*
X72672171Y-55199280D01*
X72587981Y-55238359D01*
X72556717Y-55244048D01*
X72548456Y-55224991D01*
X72579808Y-55199280D01*
X72663998Y-55160202D01*
X72695262Y-55154513D01*
X72703523Y-55173570D01*
G36*
X72289670Y-55087408D02*
G01*
X72382479Y-55153098D01*
X72450518Y-55214540D01*
X72462746Y-55243558D01*
X72459036Y-55243926D01*
X72397541Y-55215785D01*
X72309146Y-55151562D01*
X72238416Y-55084137D01*
X72235835Y-55062834D01*
X72289670Y-55087408D01*
G37*
X72289670Y-55087408D02*
X72382479Y-55153098D01*
X72450518Y-55214540D01*
X72462746Y-55243558D01*
X72459036Y-55243926D01*
X72397541Y-55215785D01*
X72309146Y-55151562D01*
X72238416Y-55084137D01*
X72235835Y-55062834D01*
X72289670Y-55087408D01*
G36*
X71818536Y-54736283D02*
G01*
X71759415Y-54774257D01*
X71658833Y-54806150D01*
X71510711Y-54860559D01*
X71450745Y-54938284D01*
X71479869Y-55037509D01*
X71516587Y-55082720D01*
X71619939Y-55167509D01*
X71719638Y-55213622D01*
X71788685Y-55228908D01*
X71768006Y-55235887D01*
X71722539Y-55239173D01*
X71630210Y-55211565D01*
X71523088Y-55135353D01*
X71501739Y-55114436D01*
X71416295Y-54997249D01*
X71414274Y-54903566D01*
X71498828Y-54825331D01*
X71638106Y-54765985D01*
X71751957Y-54733052D01*
X71814436Y-54726708D01*
X71818536Y-54736283D01*
G37*
X71818536Y-54736283D02*
X71759415Y-54774257D01*
X71658833Y-54806150D01*
X71510711Y-54860559D01*
X71450745Y-54938284D01*
X71479869Y-55037509D01*
X71516587Y-55082720D01*
X71619939Y-55167509D01*
X71719638Y-55213622D01*
X71788685Y-55228908D01*
X71768006Y-55235887D01*
X71722539Y-55239173D01*
X71630210Y-55211565D01*
X71523088Y-55135353D01*
X71501739Y-55114436D01*
X71416295Y-54997249D01*
X71414274Y-54903566D01*
X71498828Y-54825331D01*
X71638106Y-54765985D01*
X71751957Y-54733052D01*
X71814436Y-54726708D01*
X71818536Y-54736283D01*
G36*
X74040101Y-55027816D02*
G01*
X74022749Y-55058242D01*
X73965708Y-55083684D01*
X73870316Y-55133176D01*
X73749647Y-55219647D01*
X73707645Y-55254833D01*
X73618001Y-55324694D01*
X73576104Y-55337850D01*
X73577545Y-55318806D01*
X73627440Y-55258794D01*
X73723818Y-55182470D01*
X73839962Y-55106642D01*
X73949155Y-55048116D01*
X74024683Y-55023699D01*
X74040101Y-55027816D01*
G37*
X74040101Y-55027816D02*
X74022749Y-55058242D01*
X73965708Y-55083684D01*
X73870316Y-55133176D01*
X73749647Y-55219647D01*
X73707645Y-55254833D01*
X73618001Y-55324694D01*
X73576104Y-55337850D01*
X73577545Y-55318806D01*
X73627440Y-55258794D01*
X73723818Y-55182470D01*
X73839962Y-55106642D01*
X73949155Y-55048116D01*
X74024683Y-55023699D01*
X74040101Y-55027816D01*
G36*
X74981262Y-55407098D02*
G01*
X74958171Y-55430189D01*
X74935080Y-55407098D01*
X74958171Y-55384008D01*
X74981262Y-55407098D01*
G37*
X74981262Y-55407098D02*
X74958171Y-55430189D01*
X74935080Y-55407098D01*
X74958171Y-55384008D01*
X74981262Y-55407098D01*
G36*
X74334717Y-55407098D02*
G01*
X74311626Y-55430189D01*
X74288535Y-55407098D01*
X74311626Y-55384008D01*
X74334717Y-55407098D01*
G37*
X74334717Y-55407098D02*
X74311626Y-55430189D01*
X74288535Y-55407098D01*
X74311626Y-55384008D01*
X74334717Y-55407098D01*
G36*
X75129933Y-54993850D02*
G01*
X75258854Y-55060941D01*
X75402588Y-55155622D01*
X75543299Y-55263872D01*
X75663156Y-55371669D01*
X75744325Y-55464994D01*
X75768973Y-55529824D01*
X75762716Y-55541584D01*
X75727523Y-55520407D01*
X75664624Y-55442514D01*
X75641691Y-55408839D01*
X75521123Y-55281786D01*
X75333851Y-55154653D01*
X75253859Y-55111961D01*
X75122866Y-55042257D01*
X75043145Y-54991215D01*
X75029808Y-54968691D01*
X75033656Y-54968371D01*
X75129933Y-54993850D01*
G37*
X75129933Y-54993850D02*
X75258854Y-55060941D01*
X75402588Y-55155622D01*
X75543299Y-55263872D01*
X75663156Y-55371669D01*
X75744325Y-55464994D01*
X75768973Y-55529824D01*
X75762716Y-55541584D01*
X75727523Y-55520407D01*
X75664624Y-55442514D01*
X75641691Y-55408839D01*
X75521123Y-55281786D01*
X75333851Y-55154653D01*
X75253859Y-55111961D01*
X75122866Y-55042257D01*
X75043145Y-54991215D01*
X75029808Y-54968691D01*
X75033656Y-54968371D01*
X75129933Y-54993850D01*
G36*
X75122135Y-55509725D02*
G01*
X75190288Y-55585146D01*
X75210782Y-55630555D01*
X75209605Y-55632202D01*
X75172308Y-55612952D01*
X75108805Y-55539489D01*
X75101610Y-55529575D01*
X75014139Y-55407098D01*
X75122135Y-55509725D01*
G37*
X75122135Y-55509725D02*
X75190288Y-55585146D01*
X75210782Y-55630555D01*
X75209605Y-55632202D01*
X75172308Y-55612952D01*
X75108805Y-55539489D01*
X75101610Y-55529575D01*
X75014139Y-55407098D01*
X75122135Y-55509725D01*
G36*
X74230708Y-55452184D02*
G01*
X74212686Y-55476371D01*
X74156131Y-55581396D01*
X74137225Y-55638008D01*
X74119315Y-55701026D01*
X74111785Y-55674699D01*
X74109165Y-55632117D01*
X74138974Y-55525193D01*
X74184626Y-55470480D01*
X74239231Y-55430852D01*
X74230708Y-55452184D01*
G37*
X74230708Y-55452184D02*
X74212686Y-55476371D01*
X74156131Y-55581396D01*
X74137225Y-55638008D01*
X74119315Y-55701026D01*
X74111785Y-55674699D01*
X74109165Y-55632117D01*
X74138974Y-55525193D01*
X74184626Y-55470480D01*
X74239231Y-55430852D01*
X74230708Y-55452184D01*
G36*
X73535278Y-55487917D02*
G01*
X73542460Y-55605044D01*
X73535278Y-55649553D01*
X73521892Y-55663926D01*
X73514605Y-55600068D01*
X73514158Y-55568735D01*
X73518973Y-55484715D01*
X73530961Y-55474813D01*
X73535278Y-55487917D01*
G37*
X73535278Y-55487917D02*
X73542460Y-55605044D01*
X73535278Y-55649553D01*
X73521892Y-55663926D01*
X73514605Y-55600068D01*
X73514158Y-55568735D01*
X73518973Y-55484715D01*
X73530961Y-55474813D01*
X73535278Y-55487917D01*
G36*
X72564414Y-55861220D02*
G01*
X72558074Y-55888675D01*
X72533626Y-55892008D01*
X72495613Y-55875110D01*
X72502838Y-55861220D01*
X72557645Y-55855693D01*
X72564414Y-55861220D01*
G37*
X72564414Y-55861220D02*
X72558074Y-55888675D01*
X72533626Y-55892008D01*
X72495613Y-55875110D01*
X72502838Y-55861220D01*
X72557645Y-55855693D01*
X72564414Y-55861220D01*
G36*
X75212171Y-55720522D02*
G01*
X75176705Y-55781953D01*
X75094082Y-55856443D01*
X74999963Y-55916163D01*
X74937918Y-55934543D01*
X74890800Y-55927180D01*
X74933465Y-55906166D01*
X74935080Y-55905574D01*
X75018718Y-55857001D01*
X75108262Y-55785716D01*
X75180027Y-55728596D01*
X75212059Y-55719257D01*
X75212171Y-55720522D01*
G37*
X75212171Y-55720522D02*
X75176705Y-55781953D01*
X75094082Y-55856443D01*
X74999963Y-55916163D01*
X74937918Y-55934543D01*
X74890800Y-55927180D01*
X74933465Y-55906166D01*
X74935080Y-55905574D01*
X75018718Y-55857001D01*
X75108262Y-55785716D01*
X75180027Y-55728596D01*
X75212059Y-55719257D01*
X75212171Y-55720522D01*
G36*
X72845353Y-55906355D02*
G01*
X72859726Y-55919741D01*
X72795868Y-55927028D01*
X72764535Y-55927475D01*
X72680515Y-55922660D01*
X72670613Y-55910672D01*
X72683717Y-55906355D01*
X72800844Y-55899173D01*
X72845353Y-55906355D01*
G37*
X72845353Y-55906355D02*
X72859726Y-55919741D01*
X72795868Y-55927028D01*
X72764535Y-55927475D01*
X72680515Y-55922660D01*
X72670613Y-55910672D01*
X72683717Y-55906355D01*
X72800844Y-55899173D01*
X72845353Y-55906355D01*
G36*
X75807808Y-55709999D02*
G01*
X75783181Y-55838474D01*
X75739837Y-55917817D01*
X75698031Y-55962220D01*
X75701025Y-55942221D01*
X75735812Y-55851677D01*
X75768995Y-55734402D01*
X75792393Y-55644572D01*
X75803096Y-55640563D01*
X75807808Y-55709999D01*
G37*
X75807808Y-55709999D02*
X75783181Y-55838474D01*
X75739837Y-55917817D01*
X75698031Y-55962220D01*
X75701025Y-55942221D01*
X75735812Y-55851677D01*
X75768995Y-55734402D01*
X75792393Y-55644572D01*
X75803096Y-55640563D01*
X75807808Y-55709999D01*
G36*
X74246134Y-55814531D02*
G01*
X74259257Y-55822928D01*
X74376365Y-55876022D01*
X74537693Y-55921667D01*
X74622852Y-55937411D01*
X74755862Y-55957679D01*
X74802358Y-55968833D01*
X74767341Y-55974255D01*
X74681080Y-55976802D01*
X74518264Y-55962877D01*
X74365872Y-55923616D01*
X74351806Y-55917851D01*
X74242749Y-55859159D01*
X74174921Y-55802391D01*
X74172938Y-55799414D01*
X74181099Y-55782674D01*
X74246134Y-55814531D01*
G37*
X74246134Y-55814531D02*
X74259257Y-55822928D01*
X74376365Y-55876022D01*
X74537693Y-55921667D01*
X74622852Y-55937411D01*
X74755862Y-55957679D01*
X74802358Y-55968833D01*
X74767341Y-55974255D01*
X74681080Y-55976802D01*
X74518264Y-55962877D01*
X74365872Y-55923616D01*
X74351806Y-55917851D01*
X74242749Y-55859159D01*
X74174921Y-55802391D01*
X74172938Y-55799414D01*
X74181099Y-55782674D01*
X74246134Y-55814531D01*
G36*
X73592254Y-55841358D02*
G01*
X73632583Y-55894108D01*
X73671203Y-55970220D01*
X73653835Y-55975133D01*
X73594881Y-55913982D01*
X73555576Y-55847938D01*
X73556338Y-55823719D01*
X73592254Y-55841358D01*
G37*
X73592254Y-55841358D02*
X73632583Y-55894108D01*
X73671203Y-55970220D01*
X73653835Y-55975133D01*
X73594881Y-55913982D01*
X73555576Y-55847938D01*
X73556338Y-55823719D01*
X73592254Y-55841358D01*
G36*
X73121482Y-55956470D02*
G01*
X73107709Y-55977460D01*
X73060868Y-55980725D01*
X73011591Y-55969447D01*
X73032967Y-55952824D01*
X73105143Y-55947318D01*
X73121482Y-55956470D01*
G37*
X73121482Y-55956470D02*
X73107709Y-55977460D01*
X73060868Y-55980725D01*
X73011591Y-55969447D01*
X73032967Y-55952824D01*
X73105143Y-55947318D01*
X73121482Y-55956470D01*
G36*
X73468808Y-55999968D02*
G01*
X73474609Y-56016824D01*
X73411080Y-56023261D01*
X73345519Y-56016004D01*
X73353353Y-55999968D01*
X73447903Y-55993868D01*
X73468808Y-55999968D01*
G37*
X73468808Y-55999968D02*
X73474609Y-56016824D01*
X73411080Y-56023261D01*
X73345519Y-56016004D01*
X73353353Y-55999968D01*
X73447903Y-55993868D01*
X73468808Y-55999968D01*
G36*
X75659500Y-56060384D02*
G01*
X75650898Y-56076735D01*
X75607385Y-56120839D01*
X75599266Y-56122917D01*
X75596115Y-56093086D01*
X75604717Y-56076735D01*
X75648230Y-56032631D01*
X75656349Y-56030553D01*
X75659500Y-56060384D01*
G37*
X75659500Y-56060384D02*
X75650898Y-56076735D01*
X75607385Y-56120839D01*
X75599266Y-56122917D01*
X75596115Y-56093086D01*
X75604717Y-56076735D01*
X75648230Y-56032631D01*
X75656349Y-56030553D01*
X75659500Y-56060384D01*
G36*
X75520955Y-56152748D02*
G01*
X75512353Y-56169098D01*
X75468840Y-56213202D01*
X75460720Y-56215280D01*
X75457569Y-56185449D01*
X75466171Y-56169098D01*
X75509684Y-56124995D01*
X75517804Y-56122917D01*
X75520955Y-56152748D01*
G37*
X75520955Y-56152748D02*
X75512353Y-56169098D01*
X75468840Y-56213202D01*
X75460720Y-56215280D01*
X75457569Y-56185449D01*
X75466171Y-56169098D01*
X75509684Y-56124995D01*
X75517804Y-56122917D01*
X75520955Y-56152748D01*
G36*
X75396898Y-56238371D02*
G01*
X75373808Y-56261462D01*
X75350717Y-56238371D01*
X75373808Y-56215280D01*
X75396898Y-56238371D01*
G37*
X75396898Y-56238371D02*
X75373808Y-56261462D01*
X75350717Y-56238371D01*
X75373808Y-56215280D01*
X75396898Y-56238371D01*
G36*
X75304535Y-56284553D02*
G01*
X75281444Y-56307644D01*
X75258353Y-56284553D01*
X75281444Y-56261462D01*
X75304535Y-56284553D01*
G37*
X75304535Y-56284553D02*
X75281444Y-56307644D01*
X75258353Y-56284553D01*
X75281444Y-56261462D01*
X75304535Y-56284553D01*
G36*
X72437616Y-55935991D02*
G01*
X72470101Y-56007810D01*
X72547730Y-56110412D01*
X72588867Y-56155354D01*
X72671140Y-56244813D01*
X72712963Y-56299579D01*
X72713381Y-56307644D01*
X72670527Y-56277416D01*
X72587811Y-56200645D01*
X72537503Y-56150008D01*
X72452205Y-56045141D01*
X72409411Y-55958206D01*
X72409343Y-55930644D01*
X72430800Y-55896124D01*
X72437616Y-55935991D01*
G37*
X72437616Y-55935991D02*
X72470101Y-56007810D01*
X72547730Y-56110412D01*
X72588867Y-56155354D01*
X72671140Y-56244813D01*
X72712963Y-56299579D01*
X72713381Y-56307644D01*
X72670527Y-56277416D01*
X72587811Y-56200645D01*
X72537503Y-56150008D01*
X72452205Y-56045141D01*
X72409411Y-55958206D01*
X72409343Y-55930644D01*
X72430800Y-55896124D01*
X72437616Y-55935991D01*
G36*
X75212171Y-56330735D02*
G01*
X75189080Y-56353826D01*
X75165989Y-56330735D01*
X75189080Y-56307644D01*
X75212171Y-56330735D01*
G37*
X75212171Y-56330735D02*
X75189080Y-56353826D01*
X75165989Y-56330735D01*
X75189080Y-56307644D01*
X75212171Y-56330735D01*
G36*
X74981262Y-56376917D02*
G01*
X74958171Y-56400008D01*
X74935080Y-56376917D01*
X74958171Y-56353826D01*
X74981262Y-56376917D01*
G37*
X74981262Y-56376917D02*
X74958171Y-56400008D01*
X74935080Y-56376917D01*
X74958171Y-56353826D01*
X74981262Y-56376917D01*
G36*
X74688777Y-56415401D02*
G01*
X74682438Y-56442856D01*
X74657989Y-56446189D01*
X74619976Y-56429292D01*
X74627201Y-56415401D01*
X74682008Y-56409874D01*
X74688777Y-56415401D01*
G37*
X74688777Y-56415401D02*
X74682438Y-56442856D01*
X74657989Y-56446189D01*
X74619976Y-56429292D01*
X74627201Y-56415401D01*
X74682008Y-56409874D01*
X74688777Y-56415401D01*
G36*
X73872898Y-56423098D02*
G01*
X73849808Y-56446189D01*
X73826717Y-56423098D01*
X73849808Y-56400008D01*
X73872898Y-56423098D01*
G37*
X73872898Y-56423098D02*
X73849808Y-56446189D01*
X73826717Y-56423098D01*
X73849808Y-56400008D01*
X73872898Y-56423098D01*
G36*
X72841504Y-57800856D02*
G01*
X72835165Y-57828311D01*
X72810717Y-57831644D01*
X72772704Y-57814747D01*
X72779929Y-57800856D01*
X72834736Y-57795329D01*
X72841504Y-57800856D01*
G37*
X72841504Y-57800856D02*
X72835165Y-57828311D01*
X72810717Y-57831644D01*
X72772704Y-57814747D01*
X72779929Y-57800856D01*
X72834736Y-57795329D01*
X72841504Y-57800856D01*
G36*
X72702959Y-57847038D02*
G01*
X72696620Y-57874493D01*
X72672171Y-57877826D01*
X72634158Y-57860928D01*
X72641383Y-57847038D01*
X72696190Y-57841511D01*
X72702959Y-57847038D01*
G37*
X72702959Y-57847038D02*
X72696620Y-57874493D01*
X72672171Y-57877826D01*
X72634158Y-57860928D01*
X72641383Y-57847038D01*
X72696190Y-57841511D01*
X72702959Y-57847038D01*
G36*
X72564414Y-57893220D02*
G01*
X72558074Y-57920675D01*
X72533626Y-57924008D01*
X72495613Y-57907110D01*
X72502838Y-57893220D01*
X72557645Y-57887693D01*
X72564414Y-57893220D01*
G37*
X72564414Y-57893220D02*
X72558074Y-57920675D01*
X72533626Y-57924008D01*
X72495613Y-57907110D01*
X72502838Y-57893220D01*
X72557645Y-57887693D01*
X72564414Y-57893220D01*
G36*
X72441262Y-57947098D02*
G01*
X72418171Y-57970189D01*
X72395080Y-57947098D01*
X72418171Y-57924008D01*
X72441262Y-57947098D01*
G37*
X72441262Y-57947098D02*
X72418171Y-57970189D01*
X72395080Y-57947098D01*
X72418171Y-57924008D01*
X72441262Y-57947098D01*
G36*
X73768989Y-57851830D02*
G01*
X73859963Y-57937021D01*
X73913276Y-57992702D01*
X73919080Y-58001920D01*
X73904668Y-58013767D01*
X73854100Y-57972254D01*
X73756377Y-57868314D01*
X73754539Y-57866280D01*
X73618898Y-57716189D01*
X73768989Y-57851830D01*
G37*
X73768989Y-57851830D02*
X73859963Y-57937021D01*
X73913276Y-57992702D01*
X73919080Y-58001920D01*
X73904668Y-58013767D01*
X73854100Y-57972254D01*
X73756377Y-57868314D01*
X73754539Y-57866280D01*
X73618898Y-57716189D01*
X73768989Y-57851830D01*
G36*
X70553592Y-56215280D02*
G01*
X70589581Y-56252999D01*
X70681887Y-56347848D01*
X70822013Y-56491150D01*
X71001464Y-56674229D01*
X71211744Y-56888410D01*
X71444357Y-57125016D01*
X71464602Y-57145594D01*
X72357182Y-58052817D01*
X72087495Y-58154780D01*
X71918438Y-58212653D01*
X71762568Y-58255968D01*
X71679262Y-58271774D01*
X71575411Y-58294762D01*
X71413462Y-58343728D01*
X71220946Y-58410029D01*
X71125080Y-58445734D01*
X70883154Y-58537900D01*
X70718156Y-58599567D01*
X70620902Y-58633650D01*
X70582211Y-58643060D01*
X70592900Y-58630710D01*
X70643787Y-58599512D01*
X70648006Y-58597053D01*
X70747166Y-58548878D01*
X70905310Y-58482266D01*
X71094123Y-58408941D01*
X71167552Y-58381927D01*
X71341524Y-58314949D01*
X71476615Y-58255276D01*
X71553377Y-58211877D01*
X71563808Y-58199128D01*
X71533562Y-58140213D01*
X71451344Y-58030245D01*
X71329932Y-57884040D01*
X71182103Y-57716412D01*
X71020634Y-57542177D01*
X70858304Y-57376150D01*
X70829877Y-57348180D01*
X70701611Y-57217706D01*
X70603851Y-57108494D01*
X70552150Y-57038316D01*
X70547808Y-57025927D01*
X70576492Y-57032507D01*
X70654080Y-57094942D01*
X70767871Y-57200267D01*
X70905166Y-57335519D01*
X71053265Y-57487732D01*
X71199469Y-57643941D01*
X71331078Y-57791183D01*
X71435392Y-57916492D01*
X71482849Y-57980487D01*
X71574628Y-58100226D01*
X71655502Y-58180320D01*
X71696155Y-58201009D01*
X71781810Y-58186392D01*
X71903212Y-58149683D01*
X72031784Y-58101846D01*
X72138952Y-58053844D01*
X72196139Y-58016641D01*
X72199018Y-58008082D01*
X72165006Y-57967205D01*
X72075471Y-57869287D01*
X71939158Y-57723622D01*
X71764814Y-57539505D01*
X71561183Y-57326229D01*
X71379080Y-57136720D01*
X71157391Y-56905340D01*
X70957511Y-56694210D01*
X70788299Y-56512893D01*
X70658614Y-56370950D01*
X70577315Y-56277944D01*
X70553030Y-56245094D01*
X70547732Y-56210486D01*
X70553592Y-56215280D01*
G37*
X70553592Y-56215280D02*
X70589581Y-56252999D01*
X70681887Y-56347848D01*
X70822013Y-56491150D01*
X71001464Y-56674229D01*
X71211744Y-56888410D01*
X71444357Y-57125016D01*
X71464602Y-57145594D01*
X72357182Y-58052817D01*
X72087495Y-58154780D01*
X71918438Y-58212653D01*
X71762568Y-58255968D01*
X71679262Y-58271774D01*
X71575411Y-58294762D01*
X71413462Y-58343728D01*
X71220946Y-58410029D01*
X71125080Y-58445734D01*
X70883154Y-58537900D01*
X70718156Y-58599567D01*
X70620902Y-58633650D01*
X70582211Y-58643060D01*
X70592900Y-58630710D01*
X70643787Y-58599512D01*
X70648006Y-58597053D01*
X70747166Y-58548878D01*
X70905310Y-58482266D01*
X71094123Y-58408941D01*
X71167552Y-58381927D01*
X71341524Y-58314949D01*
X71476615Y-58255276D01*
X71553377Y-58211877D01*
X71563808Y-58199128D01*
X71533562Y-58140213D01*
X71451344Y-58030245D01*
X71329932Y-57884040D01*
X71182103Y-57716412D01*
X71020634Y-57542177D01*
X70858304Y-57376150D01*
X70829877Y-57348180D01*
X70701611Y-57217706D01*
X70603851Y-57108494D01*
X70552150Y-57038316D01*
X70547808Y-57025927D01*
X70576492Y-57032507D01*
X70654080Y-57094942D01*
X70767871Y-57200267D01*
X70905166Y-57335519D01*
X71053265Y-57487732D01*
X71199469Y-57643941D01*
X71331078Y-57791183D01*
X71435392Y-57916492D01*
X71482849Y-57980487D01*
X71574628Y-58100226D01*
X71655502Y-58180320D01*
X71696155Y-58201009D01*
X71781810Y-58186392D01*
X71903212Y-58149683D01*
X72031784Y-58101846D01*
X72138952Y-58053844D01*
X72196139Y-58016641D01*
X72199018Y-58008082D01*
X72165006Y-57967205D01*
X72075471Y-57869287D01*
X71939158Y-57723622D01*
X71764814Y-57539505D01*
X71561183Y-57326229D01*
X71379080Y-57136720D01*
X71157391Y-56905340D01*
X70957511Y-56694210D01*
X70788299Y-56512893D01*
X70658614Y-56370950D01*
X70577315Y-56277944D01*
X70553030Y-56245094D01*
X70547732Y-56210486D01*
X70553592Y-56215280D01*
G36*
X70586658Y-59414178D02*
G01*
X70678000Y-59498299D01*
X70814739Y-59630880D01*
X70987587Y-59802841D01*
X71187258Y-60005101D01*
X71304060Y-60124853D01*
X71512516Y-60340226D01*
X71696372Y-60531661D01*
X71846858Y-60689902D01*
X71955205Y-60805695D01*
X72012642Y-60869785D01*
X72019337Y-60879644D01*
X71983016Y-60848418D01*
X71891069Y-60760905D01*
X71752954Y-60626354D01*
X71578132Y-60454014D01*
X71376062Y-60253133D01*
X71265278Y-60142390D01*
X71054894Y-59930073D01*
X70869787Y-59740142D01*
X70718886Y-59582020D01*
X70611121Y-59465130D01*
X70555423Y-59398895D01*
X70550001Y-59387599D01*
X70586658Y-59414178D01*
G37*
X70586658Y-59414178D02*
X70678000Y-59498299D01*
X70814739Y-59630880D01*
X70987587Y-59802841D01*
X71187258Y-60005101D01*
X71304060Y-60124853D01*
X71512516Y-60340226D01*
X71696372Y-60531661D01*
X71846858Y-60689902D01*
X71955205Y-60805695D01*
X72012642Y-60869785D01*
X72019337Y-60879644D01*
X71983016Y-60848418D01*
X71891069Y-60760905D01*
X71752954Y-60626354D01*
X71578132Y-60454014D01*
X71376062Y-60253133D01*
X71265278Y-60142390D01*
X71054894Y-59930073D01*
X70869787Y-59740142D01*
X70718886Y-59582020D01*
X70611121Y-59465130D01*
X70555423Y-59398895D01*
X70550001Y-59387599D01*
X70586658Y-59414178D01*
G36*
X78260171Y-61364553D02*
G01*
X78237080Y-61387644D01*
X78213989Y-61364553D01*
X78237080Y-61341462D01*
X78260171Y-61364553D01*
G37*
X78260171Y-61364553D02*
X78237080Y-61387644D01*
X78213989Y-61364553D01*
X78237080Y-61341462D01*
X78260171Y-61364553D01*
G36*
X78483945Y-61360143D02*
G01*
X78533523Y-61406643D01*
X78523353Y-61433376D01*
X78516897Y-61433826D01*
X78477835Y-61401024D01*
X78463579Y-61380508D01*
X78458136Y-61348906D01*
X78483945Y-61360143D01*
G37*
X78483945Y-61360143D02*
X78533523Y-61406643D01*
X78523353Y-61433376D01*
X78516897Y-61433826D01*
X78477835Y-61401024D01*
X78463579Y-61380508D01*
X78458136Y-61348906D01*
X78483945Y-61360143D01*
G36*
X78347045Y-61358256D02*
G01*
X78398717Y-61410735D01*
X78427661Y-61461790D01*
X78382506Y-61476723D01*
X78346644Y-61476362D01*
X78284821Y-61466064D01*
X78295095Y-61449326D01*
X78332565Y-61403922D01*
X78327006Y-61383699D01*
X78313547Y-61343233D01*
X78347045Y-61358256D01*
G37*
X78347045Y-61358256D02*
X78398717Y-61410735D01*
X78427661Y-61461790D01*
X78382506Y-61476723D01*
X78346644Y-61476362D01*
X78284821Y-61466064D01*
X78295095Y-61449326D01*
X78332565Y-61403922D01*
X78327006Y-61383699D01*
X78313547Y-61343233D01*
X78347045Y-61358256D01*
G36*
X78130366Y-61411586D02*
G01*
X78137105Y-61421510D01*
X78121856Y-61472216D01*
X78060911Y-61524365D01*
X77991920Y-61564313D01*
X77991860Y-61547421D01*
X78027740Y-61498972D01*
X78083167Y-61425456D01*
X78103933Y-61396117D01*
X78130366Y-61411586D01*
G37*
X78130366Y-61411586D02*
X78137105Y-61421510D01*
X78121856Y-61472216D01*
X78060911Y-61524365D01*
X77991920Y-61564313D01*
X77991860Y-61547421D01*
X78027740Y-61498972D01*
X78083167Y-61425456D01*
X78103933Y-61396117D01*
X78130366Y-61411586D01*
G36*
X79888080Y-61476512D02*
G01*
X79984585Y-61566771D01*
X80014549Y-61610597D01*
X80000039Y-61618553D01*
X79962911Y-61587573D01*
X79890452Y-61511101D01*
X79873039Y-61491553D01*
X79761080Y-61364553D01*
X79888080Y-61476512D01*
G37*
X79888080Y-61476512D02*
X79984585Y-61566771D01*
X80014549Y-61610597D01*
X80000039Y-61618553D01*
X79962911Y-61587573D01*
X79890452Y-61511101D01*
X79873039Y-61491553D01*
X79761080Y-61364553D01*
X79888080Y-61476512D01*
G36*
X77886378Y-61544053D02*
G01*
X77915250Y-61613177D01*
X77892633Y-61640460D01*
X77838267Y-61631391D01*
X77815412Y-61596397D01*
X77802661Y-61515082D01*
X77838701Y-61502431D01*
X77886378Y-61544053D01*
G37*
X77886378Y-61544053D02*
X77915250Y-61613177D01*
X77892633Y-61640460D01*
X77838267Y-61631391D01*
X77815412Y-61596397D01*
X77802661Y-61515082D01*
X77838701Y-61502431D01*
X77886378Y-61544053D01*
G36*
X78233502Y-61530308D02*
G01*
X78262288Y-61593609D01*
X78277741Y-61687563D01*
X78276304Y-61771054D01*
X78257113Y-61803280D01*
X78222067Y-61764573D01*
X78213989Y-61710917D01*
X78190838Y-61635940D01*
X78158571Y-61618553D01*
X78126649Y-61604523D01*
X78157801Y-61563904D01*
X78215227Y-61527231D01*
X78233502Y-61530308D01*
G37*
X78233502Y-61530308D02*
X78262288Y-61593609D01*
X78277741Y-61687563D01*
X78276304Y-61771054D01*
X78257113Y-61803280D01*
X78222067Y-61764573D01*
X78213989Y-61710917D01*
X78190838Y-61635940D01*
X78158571Y-61618553D01*
X78126649Y-61604523D01*
X78157801Y-61563904D01*
X78215227Y-61527231D01*
X78233502Y-61530308D01*
G36*
X78167808Y-61826371D02*
G01*
X78144717Y-61849462D01*
X78121626Y-61826371D01*
X78144717Y-61803280D01*
X78167808Y-61826371D01*
G37*
X78167808Y-61826371D02*
X78144717Y-61849462D01*
X78121626Y-61826371D01*
X78144717Y-61803280D01*
X78167808Y-61826371D01*
G36*
X78071845Y-61683489D02*
G01*
X78099131Y-61743956D01*
X78047912Y-61793076D01*
X78034851Y-61800289D01*
X77967314Y-61826388D01*
X77955371Y-61786326D01*
X77961149Y-61751079D01*
X77988593Y-61652974D01*
X78025188Y-61638624D01*
X78071845Y-61683489D01*
G37*
X78071845Y-61683489D02*
X78099131Y-61743956D01*
X78047912Y-61793076D01*
X78034851Y-61800289D01*
X77967314Y-61826388D01*
X77955371Y-61786326D01*
X77961149Y-61751079D01*
X77988593Y-61652974D01*
X78025188Y-61638624D01*
X78071845Y-61683489D01*
G36*
X77659808Y-61826371D02*
G01*
X77636717Y-61849462D01*
X77613626Y-61826371D01*
X77636717Y-61803280D01*
X77659808Y-61826371D01*
G37*
X77659808Y-61826371D02*
X77636717Y-61849462D01*
X77613626Y-61826371D01*
X77636717Y-61803280D01*
X77659808Y-61826371D01*
G36*
X77606870Y-61609094D02*
G01*
X77613626Y-61620955D01*
X77574396Y-61664060D01*
X77477828Y-61672138D01*
X77463535Y-61670204D01*
X77430601Y-61700329D01*
X77428898Y-61715858D01*
X77462491Y-61746737D01*
X77498171Y-61740398D01*
X77557703Y-61738147D01*
X77567444Y-61755822D01*
X77537202Y-61816915D01*
X77470783Y-61814544D01*
X77428898Y-61780189D01*
X77360817Y-61736784D01*
X77324167Y-61741651D01*
X77297828Y-61741395D01*
X77306223Y-61722599D01*
X77363559Y-61674941D01*
X77455361Y-61632671D01*
X77547756Y-61606988D01*
X77606870Y-61609094D01*
G37*
X77606870Y-61609094D02*
X77613626Y-61620955D01*
X77574396Y-61664060D01*
X77477828Y-61672138D01*
X77463535Y-61670204D01*
X77430601Y-61700329D01*
X77428898Y-61715858D01*
X77462491Y-61746737D01*
X77498171Y-61740398D01*
X77557703Y-61738147D01*
X77567444Y-61755822D01*
X77537202Y-61816915D01*
X77470783Y-61814544D01*
X77428898Y-61780189D01*
X77360817Y-61736784D01*
X77324167Y-61741651D01*
X77297828Y-61741395D01*
X77306223Y-61722599D01*
X77363559Y-61674941D01*
X77455361Y-61632671D01*
X77547756Y-61606988D01*
X77606870Y-61609094D01*
G36*
X77059444Y-61872553D02*
G01*
X77036353Y-61895644D01*
X77013262Y-61872553D01*
X77036353Y-61849462D01*
X77059444Y-61872553D01*
G37*
X77059444Y-61872553D02*
X77036353Y-61895644D01*
X77013262Y-61872553D01*
X77036353Y-61849462D01*
X77059444Y-61872553D01*
G36*
X76947688Y-61871184D02*
G01*
X76943989Y-61895644D01*
X76904487Y-61939652D01*
X76897808Y-61941826D01*
X76861091Y-61909616D01*
X76851626Y-61895644D01*
X76862592Y-61856519D01*
X76897808Y-61849462D01*
X76947688Y-61871184D01*
G37*
X76947688Y-61871184D02*
X76943989Y-61895644D01*
X76904487Y-61939652D01*
X76897808Y-61941826D01*
X76861091Y-61909616D01*
X76851626Y-61895644D01*
X76862592Y-61856519D01*
X76897808Y-61849462D01*
X76947688Y-61871184D01*
G36*
X78298538Y-61920581D02*
G01*
X78306353Y-61941826D01*
X78268948Y-61982797D01*
X78237080Y-61988008D01*
X78175623Y-61963071D01*
X78167808Y-61941826D01*
X78205213Y-61900854D01*
X78237080Y-61895644D01*
X78298538Y-61920581D01*
G37*
X78298538Y-61920581D02*
X78306353Y-61941826D01*
X78268948Y-61982797D01*
X78237080Y-61988008D01*
X78175623Y-61963071D01*
X78167808Y-61941826D01*
X78205213Y-61900854D01*
X78237080Y-61895644D01*
X78298538Y-61920581D01*
G36*
X78092990Y-61967215D02*
G01*
X78121626Y-61993780D01*
X78082071Y-62024167D01*
X78006171Y-62034189D01*
X77919352Y-62020345D01*
X77890717Y-61993780D01*
X77930271Y-61963394D01*
X78006171Y-61953371D01*
X78092990Y-61967215D01*
G37*
X78092990Y-61967215D02*
X78121626Y-61993780D01*
X78082071Y-62024167D01*
X78006171Y-62034189D01*
X77919352Y-62020345D01*
X77890717Y-61993780D01*
X77930271Y-61963394D01*
X78006171Y-61953371D01*
X78092990Y-61967215D01*
G36*
X77359164Y-61836445D02*
G01*
X77331904Y-61907189D01*
X77281297Y-62000177D01*
X77253338Y-62026060D01*
X77228475Y-61999897D01*
X77222979Y-61991080D01*
X77223825Y-61946350D01*
X77241446Y-61941826D01*
X77284819Y-61904464D01*
X77290353Y-61872553D01*
X77316150Y-61811109D01*
X77338160Y-61803280D01*
X77359164Y-61836445D01*
G37*
X77359164Y-61836445D02*
X77331904Y-61907189D01*
X77281297Y-62000177D01*
X77253338Y-62026060D01*
X77228475Y-61999897D01*
X77222979Y-61991080D01*
X77223825Y-61946350D01*
X77241446Y-61941826D01*
X77284819Y-61904464D01*
X77290353Y-61872553D01*
X77316150Y-61811109D01*
X77338160Y-61803280D01*
X77359164Y-61836445D01*
G36*
X77090232Y-62003401D02*
G01*
X77083892Y-62030856D01*
X77059444Y-62034189D01*
X77021431Y-62017292D01*
X77028656Y-62003401D01*
X77083463Y-61997874D01*
X77090232Y-62003401D01*
G37*
X77090232Y-62003401D02*
X77083892Y-62030856D01*
X77059444Y-62034189D01*
X77021431Y-62017292D01*
X77028656Y-62003401D01*
X77083463Y-61997874D01*
X77090232Y-62003401D01*
G36*
X80242289Y-61796851D02*
G01*
X80296769Y-61885724D01*
X80332664Y-61991582D01*
X80342878Y-62082364D01*
X80320314Y-62126006D01*
X80315262Y-62126553D01*
X80297293Y-62087242D01*
X80292171Y-62021374D01*
X80267307Y-61903550D01*
X80219198Y-61802011D01*
X80146225Y-61687826D01*
X80242289Y-61796851D01*
G37*
X80242289Y-61796851D02*
X80296769Y-61885724D01*
X80332664Y-61991582D01*
X80342878Y-62082364D01*
X80320314Y-62126006D01*
X80315262Y-62126553D01*
X80297293Y-62087242D01*
X80292171Y-62021374D01*
X80267307Y-61903550D01*
X80219198Y-61802011D01*
X80146225Y-61687826D01*
X80242289Y-61796851D01*
G36*
X76766959Y-62049583D02*
G01*
X76772486Y-62104390D01*
X76766959Y-62111159D01*
X76739504Y-62104820D01*
X76736171Y-62080371D01*
X76753068Y-62042358D01*
X76766959Y-62049583D01*
G37*
X76766959Y-62049583D02*
X76772486Y-62104390D01*
X76766959Y-62111159D01*
X76739504Y-62104820D01*
X76736171Y-62080371D01*
X76753068Y-62042358D01*
X76766959Y-62049583D01*
G36*
X77913481Y-62127082D02*
G01*
X77864086Y-62165365D01*
X77811152Y-62171790D01*
X77798353Y-62154585D01*
X77834578Y-62124925D01*
X77870024Y-62108932D01*
X77917697Y-62105704D01*
X77913481Y-62127082D01*
G37*
X77913481Y-62127082D02*
X77864086Y-62165365D01*
X77811152Y-62171790D01*
X77798353Y-62154585D01*
X77834578Y-62124925D01*
X77870024Y-62108932D01*
X77917697Y-62105704D01*
X77913481Y-62127082D01*
G36*
X77778474Y-61653729D02*
G01*
X77806461Y-61687644D01*
X77867778Y-61816163D01*
X77852345Y-61929872D01*
X77764281Y-62006447D01*
X77746469Y-62012908D01*
X77679590Y-62062809D01*
X77678109Y-62107634D01*
X77679363Y-62164622D01*
X77663299Y-62172735D01*
X77613357Y-62136280D01*
X77599085Y-62109090D01*
X77606108Y-62024313D01*
X77628780Y-61990899D01*
X77652587Y-61954977D01*
X77600840Y-61963237D01*
X77590535Y-61966537D01*
X77531536Y-61981607D01*
X77552903Y-61957831D01*
X77567444Y-61947236D01*
X77668543Y-61916979D01*
X77717535Y-61922901D01*
X77777697Y-61910361D01*
X77800805Y-61848877D01*
X77784117Y-61775259D01*
X77731996Y-61728736D01*
X77686869Y-61672253D01*
X77690742Y-61637858D01*
X77722404Y-61609246D01*
X77778474Y-61653729D01*
G37*
X77778474Y-61653729D02*
X77806461Y-61687644D01*
X77867778Y-61816163D01*
X77852345Y-61929872D01*
X77764281Y-62006447D01*
X77746469Y-62012908D01*
X77679590Y-62062809D01*
X77678109Y-62107634D01*
X77679363Y-62164622D01*
X77663299Y-62172735D01*
X77613357Y-62136280D01*
X77599085Y-62109090D01*
X77606108Y-62024313D01*
X77628780Y-61990899D01*
X77652587Y-61954977D01*
X77600840Y-61963237D01*
X77590535Y-61966537D01*
X77531536Y-61981607D01*
X77552903Y-61957831D01*
X77567444Y-61947236D01*
X77668543Y-61916979D01*
X77717535Y-61922901D01*
X77777697Y-61910361D01*
X77800805Y-61848877D01*
X77784117Y-61775259D01*
X77731996Y-61728736D01*
X77686869Y-61672253D01*
X77690742Y-61637858D01*
X77722404Y-61609246D01*
X77778474Y-61653729D01*
G36*
X77400950Y-61945201D02*
G01*
X77447472Y-61995498D01*
X77500925Y-62068826D01*
X77548285Y-62147269D01*
X77542307Y-62159483D01*
X77510095Y-62135646D01*
X77450201Y-62101295D01*
X77423190Y-62143463D01*
X77419847Y-62158737D01*
X77403461Y-62213774D01*
X77381299Y-62185276D01*
X77367164Y-62150525D01*
X77357126Y-62067957D01*
X77380361Y-62042671D01*
X77409270Y-61999200D01*
X77403370Y-61984063D01*
X77380700Y-61936568D01*
X77400950Y-61945201D01*
G37*
X77400950Y-61945201D02*
X77447472Y-61995498D01*
X77500925Y-62068826D01*
X77548285Y-62147269D01*
X77542307Y-62159483D01*
X77510095Y-62135646D01*
X77450201Y-62101295D01*
X77423190Y-62143463D01*
X77419847Y-62158737D01*
X77403461Y-62213774D01*
X77381299Y-62185276D01*
X77367164Y-62150525D01*
X77357126Y-62067957D01*
X77380361Y-62042671D01*
X77409270Y-61999200D01*
X77403370Y-61984063D01*
X77380700Y-61936568D01*
X77400950Y-61945201D01*
G36*
X77242765Y-62113981D02*
G01*
X77260107Y-62147652D01*
X77271924Y-62212725D01*
X77240901Y-62200095D01*
X77219181Y-62169662D01*
X77204986Y-62109219D01*
X77210751Y-62098398D01*
X77242765Y-62113981D01*
G37*
X77242765Y-62113981D02*
X77260107Y-62147652D01*
X77271924Y-62212725D01*
X77240901Y-62200095D01*
X77219181Y-62169662D01*
X77204986Y-62109219D01*
X77210751Y-62098398D01*
X77242765Y-62113981D01*
G36*
X76961271Y-62025759D02*
G01*
X76967080Y-62062221D01*
X76995750Y-62114781D01*
X77034001Y-62110755D01*
X77080861Y-62112804D01*
X77075242Y-62151996D01*
X77049920Y-62200060D01*
X77004424Y-62208780D01*
X76909353Y-62187082D01*
X76840845Y-62147733D01*
X76828535Y-62120441D01*
X76857956Y-62098131D01*
X76882565Y-62108312D01*
X76917245Y-62110551D01*
X76907105Y-62064856D01*
X76902575Y-62000892D01*
X76922348Y-61988008D01*
X76961271Y-62025759D01*
G37*
X76961271Y-62025759D02*
X76967080Y-62062221D01*
X76995750Y-62114781D01*
X77034001Y-62110755D01*
X77080861Y-62112804D01*
X77075242Y-62151996D01*
X77049920Y-62200060D01*
X77004424Y-62208780D01*
X76909353Y-62187082D01*
X76840845Y-62147733D01*
X76828535Y-62120441D01*
X76857956Y-62098131D01*
X76882565Y-62108312D01*
X76917245Y-62110551D01*
X76907105Y-62064856D01*
X76902575Y-62000892D01*
X76922348Y-61988008D01*
X76961271Y-62025759D01*
G36*
X76748171Y-61922345D02*
G01*
X76678444Y-61952480D01*
X76584479Y-62006163D01*
X76551508Y-62054088D01*
X76588976Y-62079474D01*
X76606452Y-62080371D01*
X76617789Y-62102452D01*
X76571816Y-62148175D01*
X76469188Y-62209981D01*
X76417698Y-62203864D01*
X76412898Y-62181971D01*
X76441806Y-62120649D01*
X76468317Y-62089608D01*
X76496174Y-62044650D01*
X76449074Y-62034189D01*
X76373685Y-62062946D01*
X76356294Y-62088548D01*
X76309960Y-62117934D01*
X76279734Y-62106787D01*
X76258702Y-62067770D01*
X76321237Y-62018910D01*
X76330629Y-62013944D01*
X76438529Y-61970337D01*
X76507250Y-61956781D01*
X76603223Y-61945668D01*
X76689989Y-61927733D01*
X76760034Y-61911961D01*
X76748171Y-61922345D01*
G37*
X76748171Y-61922345D02*
X76678444Y-61952480D01*
X76584479Y-62006163D01*
X76551508Y-62054088D01*
X76588976Y-62079474D01*
X76606452Y-62080371D01*
X76617789Y-62102452D01*
X76571816Y-62148175D01*
X76469188Y-62209981D01*
X76417698Y-62203864D01*
X76412898Y-62181971D01*
X76441806Y-62120649D01*
X76468317Y-62089608D01*
X76496174Y-62044650D01*
X76449074Y-62034189D01*
X76373685Y-62062946D01*
X76356294Y-62088548D01*
X76309960Y-62117934D01*
X76279734Y-62106787D01*
X76258702Y-62067770D01*
X76321237Y-62018910D01*
X76330629Y-62013944D01*
X76438529Y-61970337D01*
X76507250Y-61956781D01*
X76603223Y-61945668D01*
X76689989Y-61927733D01*
X76760034Y-61911961D01*
X76748171Y-61922345D01*
G36*
X77598232Y-62234311D02*
G01*
X77591892Y-62261766D01*
X77567444Y-62265098D01*
X77529431Y-62248201D01*
X77536656Y-62234311D01*
X77591463Y-62228783D01*
X77598232Y-62234311D01*
G37*
X77598232Y-62234311D02*
X77591892Y-62261766D01*
X77567444Y-62265098D01*
X77529431Y-62248201D01*
X77536656Y-62234311D01*
X77591463Y-62228783D01*
X77598232Y-62234311D01*
G36*
X76074232Y-62188129D02*
G01*
X76079759Y-62242936D01*
X76074232Y-62249704D01*
X76046777Y-62243365D01*
X76043444Y-62218917D01*
X76060341Y-62180904D01*
X76074232Y-62188129D01*
G37*
X76074232Y-62188129D02*
X76079759Y-62242936D01*
X76074232Y-62249704D01*
X76046777Y-62243365D01*
X76043444Y-62218917D01*
X76060341Y-62180904D01*
X76074232Y-62188129D01*
G36*
X75396898Y-62242008D02*
G01*
X75373808Y-62265098D01*
X75350717Y-62242008D01*
X75373808Y-62218917D01*
X75396898Y-62242008D01*
G37*
X75396898Y-62242008D02*
X75373808Y-62265098D01*
X75350717Y-62242008D01*
X75373808Y-62218917D01*
X75396898Y-62242008D01*
G36*
X77475080Y-62288189D02*
G01*
X77451989Y-62311280D01*
X77428898Y-62288189D01*
X77451989Y-62265098D01*
X77475080Y-62288189D01*
G37*
X77475080Y-62288189D02*
X77451989Y-62311280D01*
X77428898Y-62288189D01*
X77451989Y-62265098D01*
X77475080Y-62288189D01*
G36*
X76200084Y-62115846D02*
G01*
X76240774Y-62195781D01*
X76226237Y-62266647D01*
X76193652Y-62301328D01*
X76183023Y-62252705D01*
X76182696Y-62234311D01*
X76158578Y-62144301D01*
X76124262Y-62110956D01*
X76097202Y-62088975D01*
X76118607Y-62084017D01*
X76200084Y-62115846D01*
G37*
X76200084Y-62115846D02*
X76240774Y-62195781D01*
X76226237Y-62266647D01*
X76193652Y-62301328D01*
X76183023Y-62252705D01*
X76182696Y-62234311D01*
X76158578Y-62144301D01*
X76124262Y-62110956D01*
X76097202Y-62088975D01*
X76118607Y-62084017D01*
X76200084Y-62115846D01*
G36*
X72776080Y-61664137D02*
G01*
X73009752Y-61893932D01*
X73184874Y-62067070D01*
X73309014Y-62191394D01*
X73389737Y-62274744D01*
X73434611Y-62324961D01*
X73451201Y-62349887D01*
X73447073Y-62357361D01*
X73445119Y-62357462D01*
X73410651Y-62326071D01*
X73321325Y-62238383D01*
X73186871Y-62104129D01*
X73017020Y-61933040D01*
X72821502Y-61734844D01*
X72763937Y-61676280D01*
X72094898Y-60995098D01*
X72776080Y-61664137D01*
G37*
X72776080Y-61664137D02*
X73009752Y-61893932D01*
X73184874Y-62067070D01*
X73309014Y-62191394D01*
X73389737Y-62274744D01*
X73434611Y-62324961D01*
X73451201Y-62349887D01*
X73447073Y-62357361D01*
X73445119Y-62357462D01*
X73410651Y-62326071D01*
X73321325Y-62238383D01*
X73186871Y-62104129D01*
X73017020Y-61933040D01*
X72821502Y-61734844D01*
X72763937Y-61676280D01*
X72094898Y-60995098D01*
X72776080Y-61664137D01*
G36*
X80289605Y-62201632D02*
G01*
X80274370Y-62242971D01*
X80209670Y-62316851D01*
X80202135Y-62324109D01*
X80094139Y-62426735D01*
X80181610Y-62304258D01*
X80246453Y-62226445D01*
X80287643Y-62200420D01*
X80289605Y-62201632D01*
G37*
X80289605Y-62201632D02*
X80274370Y-62242971D01*
X80209670Y-62316851D01*
X80202135Y-62324109D01*
X80094139Y-62426735D01*
X80181610Y-62304258D01*
X80246453Y-62226445D01*
X80287643Y-62200420D01*
X80289605Y-62201632D01*
G36*
X77113980Y-62299243D02*
G01*
X77127659Y-62310403D01*
X77191708Y-62375491D01*
X77176946Y-62402176D01*
X77156748Y-62403644D01*
X77107151Y-62366629D01*
X77086419Y-62327839D01*
X77074577Y-62277982D01*
X77113980Y-62299243D01*
G37*
X77113980Y-62299243D02*
X77127659Y-62310403D01*
X77191708Y-62375491D01*
X77176946Y-62402176D01*
X77156748Y-62403644D01*
X77107151Y-62366629D01*
X77086419Y-62327839D01*
X77074577Y-62277982D01*
X77113980Y-62299243D01*
G36*
X76954914Y-62293349D02*
G01*
X76920898Y-62357462D01*
X76885033Y-62400740D01*
X76875580Y-62359144D01*
X76875424Y-62348642D01*
X76898956Y-62265140D01*
X76920898Y-62242008D01*
X76961694Y-62238281D01*
X76954914Y-62293349D01*
G37*
X76954914Y-62293349D02*
X76920898Y-62357462D01*
X76885033Y-62400740D01*
X76875580Y-62359144D01*
X76875424Y-62348642D01*
X76898956Y-62265140D01*
X76920898Y-62242008D01*
X76961694Y-62238281D01*
X76954914Y-62293349D01*
G36*
X76028050Y-62326674D02*
G01*
X76033577Y-62381481D01*
X76028050Y-62388250D01*
X76000595Y-62381911D01*
X75997262Y-62357462D01*
X76014159Y-62319449D01*
X76028050Y-62326674D01*
G37*
X76028050Y-62326674D02*
X76033577Y-62381481D01*
X76028050Y-62388250D01*
X76000595Y-62381911D01*
X75997262Y-62357462D01*
X76014159Y-62319449D01*
X76028050Y-62326674D01*
G36*
X76377689Y-62322628D02*
G01*
X76452756Y-62373329D01*
X76459080Y-62380553D01*
X76490510Y-62429961D01*
X76459765Y-62440818D01*
X76355171Y-62417991D01*
X76286685Y-62379950D01*
X76274353Y-62354076D01*
X76306199Y-62314487D01*
X76377689Y-62322628D01*
G37*
X76377689Y-62322628D02*
X76452756Y-62373329D01*
X76459080Y-62380553D01*
X76490510Y-62429961D01*
X76459765Y-62440818D01*
X76355171Y-62417991D01*
X76286685Y-62379950D01*
X76274353Y-62354076D01*
X76306199Y-62314487D01*
X76377689Y-62322628D01*
G36*
X80037844Y-62450355D02*
G01*
X79988450Y-62488638D01*
X79935516Y-62495062D01*
X79922717Y-62477858D01*
X79958942Y-62448198D01*
X79994388Y-62432205D01*
X80042060Y-62428977D01*
X80037844Y-62450355D01*
G37*
X80037844Y-62450355D02*
X79988450Y-62488638D01*
X79935516Y-62495062D01*
X79922717Y-62477858D01*
X79958942Y-62448198D01*
X79994388Y-62432205D01*
X80042060Y-62428977D01*
X80037844Y-62450355D01*
G36*
X76662438Y-62272315D02*
G01*
X76669038Y-62335907D01*
X76715714Y-62406554D01*
X76759234Y-62471338D01*
X76748270Y-62496008D01*
X76691341Y-62459085D01*
X76673289Y-62426735D01*
X76611570Y-62365300D01*
X76575984Y-62357462D01*
X76512174Y-62336747D01*
X76520118Y-62292735D01*
X76594235Y-62252629D01*
X76597689Y-62251701D01*
X76660580Y-62249084D01*
X76662438Y-62272315D01*
G37*
X76662438Y-62272315D02*
X76669038Y-62335907D01*
X76715714Y-62406554D01*
X76759234Y-62471338D01*
X76748270Y-62496008D01*
X76691341Y-62459085D01*
X76673289Y-62426735D01*
X76611570Y-62365300D01*
X76575984Y-62357462D01*
X76512174Y-62336747D01*
X76520118Y-62292735D01*
X76594235Y-62252629D01*
X76597689Y-62251701D01*
X76660580Y-62249084D01*
X76662438Y-62272315D01*
G36*
X76597626Y-62472917D02*
G01*
X76574535Y-62496008D01*
X76551444Y-62472917D01*
X76574535Y-62449826D01*
X76597626Y-62472917D01*
G37*
X76597626Y-62472917D02*
X76574535Y-62496008D01*
X76551444Y-62472917D01*
X76574535Y-62449826D01*
X76597626Y-62472917D01*
G36*
X76166595Y-62419038D02*
G01*
X76172122Y-62473845D01*
X76166595Y-62480614D01*
X76139140Y-62474274D01*
X76135808Y-62449826D01*
X76152705Y-62411813D01*
X76166595Y-62419038D01*
G37*
X76166595Y-62419038D02*
X76172122Y-62473845D01*
X76166595Y-62480614D01*
X76139140Y-62474274D01*
X76135808Y-62449826D01*
X76152705Y-62411813D01*
X76166595Y-62419038D01*
G36*
X76043444Y-62472917D02*
G01*
X76020353Y-62496008D01*
X75997262Y-62472917D01*
X76020353Y-62449826D01*
X76043444Y-62472917D01*
G37*
X76043444Y-62472917D02*
X76020353Y-62496008D01*
X75997262Y-62472917D01*
X76020353Y-62449826D01*
X76043444Y-62472917D01*
G36*
X79876535Y-62519098D02*
G01*
X79853444Y-62542189D01*
X79830353Y-62519098D01*
X79853444Y-62496008D01*
X79876535Y-62519098D01*
G37*
X79876535Y-62519098D02*
X79853444Y-62542189D01*
X79830353Y-62519098D01*
X79853444Y-62496008D01*
X79876535Y-62519098D01*
G36*
X79768777Y-62557583D02*
G01*
X79762438Y-62585038D01*
X79737989Y-62588371D01*
X79699976Y-62571474D01*
X79707201Y-62557583D01*
X79762008Y-62552056D01*
X79768777Y-62557583D01*
G37*
X79768777Y-62557583D02*
X79762438Y-62585038D01*
X79737989Y-62588371D01*
X79699976Y-62571474D01*
X79707201Y-62557583D01*
X79762008Y-62552056D01*
X79768777Y-62557583D01*
G36*
X79630232Y-62603765D02*
G01*
X79623892Y-62631220D01*
X79599444Y-62634553D01*
X79561431Y-62617656D01*
X79568656Y-62603765D01*
X79623463Y-62598238D01*
X79630232Y-62603765D01*
G37*
X79630232Y-62603765D02*
X79623892Y-62631220D01*
X79599444Y-62634553D01*
X79561431Y-62617656D01*
X79568656Y-62603765D01*
X79623463Y-62598238D01*
X79630232Y-62603765D01*
G36*
X76489868Y-62557583D02*
G01*
X76495395Y-62612390D01*
X76489868Y-62619159D01*
X76462413Y-62612820D01*
X76459080Y-62588371D01*
X76475977Y-62550358D01*
X76489868Y-62557583D01*
G37*
X76489868Y-62557583D02*
X76495395Y-62612390D01*
X76489868Y-62619159D01*
X76462413Y-62612820D01*
X76459080Y-62588371D01*
X76475977Y-62550358D01*
X76489868Y-62557583D01*
G36*
X76350842Y-62570482D02*
G01*
X76343626Y-62588371D01*
X76302126Y-62632428D01*
X76294718Y-62634553D01*
X76274882Y-62598822D01*
X76274353Y-62588371D01*
X76309855Y-62543964D01*
X76323260Y-62542189D01*
X76350842Y-62570482D01*
G37*
X76350842Y-62570482D02*
X76343626Y-62588371D01*
X76302126Y-62632428D01*
X76294718Y-62634553D01*
X76274882Y-62598822D01*
X76274353Y-62588371D01*
X76309855Y-62543964D01*
X76323260Y-62542189D01*
X76350842Y-62570482D01*
G36*
X76181989Y-62611462D02*
G01*
X76158898Y-62634553D01*
X76135808Y-62611462D01*
X76158898Y-62588371D01*
X76181989Y-62611462D01*
G37*
X76181989Y-62611462D02*
X76158898Y-62634553D01*
X76135808Y-62611462D01*
X76158898Y-62588371D01*
X76181989Y-62611462D01*
G36*
X75997262Y-62611462D02*
G01*
X75974171Y-62634553D01*
X75951080Y-62611462D01*
X75974171Y-62588371D01*
X75997262Y-62611462D01*
G37*
X75997262Y-62611462D02*
X75974171Y-62634553D01*
X75951080Y-62611462D01*
X75974171Y-62588371D01*
X75997262Y-62611462D01*
G36*
X76886485Y-51228871D02*
G01*
X77106298Y-51667701D01*
X77327257Y-52030711D01*
X77559333Y-52334022D01*
X77595437Y-52375050D01*
X77716064Y-52496756D01*
X77822516Y-52563044D01*
X77952266Y-52595073D01*
X77994626Y-52600420D01*
X78121978Y-52608086D01*
X78201121Y-52600013D01*
X78213989Y-52589459D01*
X78190903Y-52535846D01*
X78129845Y-52426556D01*
X78043114Y-52283395D01*
X78025831Y-52255880D01*
X77928255Y-52093229D01*
X77817410Y-51895418D01*
X77701059Y-51677954D01*
X77586962Y-51456347D01*
X77482880Y-51246105D01*
X77396575Y-51062737D01*
X77335807Y-50921751D01*
X77308339Y-50838657D01*
X77309221Y-50823928D01*
X77351449Y-50813888D01*
X77353500Y-50815856D01*
X77408534Y-50890585D01*
X77499394Y-51027039D01*
X77615010Y-51207371D01*
X77744311Y-51413732D01*
X77876228Y-51628276D01*
X77999689Y-51833154D01*
X78103624Y-52010519D01*
X78176964Y-52142524D01*
X78180059Y-52148437D01*
X78278142Y-52327206D01*
X78375858Y-52489521D01*
X78454873Y-52605232D01*
X78467002Y-52620347D01*
X78510809Y-52678070D01*
X78540854Y-52740612D01*
X78559704Y-52825799D01*
X78569927Y-52951461D01*
X78574094Y-53135426D01*
X78574785Y-53368542D01*
X78581557Y-53690556D01*
X78600899Y-53979894D01*
X78630945Y-54223095D01*
X78669831Y-54406701D01*
X78715692Y-54517253D01*
X78736945Y-54538887D01*
X78760354Y-54536504D01*
X78750980Y-54516099D01*
X78738949Y-54455932D01*
X78724138Y-54318632D01*
X78707780Y-54119341D01*
X78707558Y-54116050D01*
X78768171Y-54116050D01*
X78771813Y-54277732D01*
X78783641Y-54347825D01*
X78805005Y-54326849D01*
X78837257Y-54215325D01*
X78852796Y-54148658D01*
X78874310Y-54011739D01*
X78858649Y-53932237D01*
X78832236Y-53901867D01*
X78796102Y-53886021D01*
X78776494Y-53924758D01*
X78768887Y-54033200D01*
X78768171Y-54116050D01*
X78707558Y-54116050D01*
X78691108Y-53873203D01*
X78675355Y-53595360D01*
X78674251Y-53573781D01*
X78662218Y-53346685D01*
X78740909Y-53346685D01*
X78743767Y-53450932D01*
X78750323Y-53498700D01*
X78790259Y-53689828D01*
X78844389Y-53803333D01*
X78921832Y-53853813D01*
X78976052Y-53860008D01*
X79088319Y-53860008D01*
X78951336Y-53657037D01*
X78918397Y-53604608D01*
X79008176Y-53604608D01*
X79013593Y-53652311D01*
X79063910Y-53716855D01*
X79128024Y-53762596D01*
X79150438Y-53767644D01*
X79159144Y-53739567D01*
X79114279Y-53674997D01*
X79046001Y-53614458D01*
X79008176Y-53604608D01*
X78918397Y-53604608D01*
X78873893Y-53533771D01*
X78824232Y-53438364D01*
X78814353Y-53405763D01*
X78780496Y-53338527D01*
X78767082Y-53328243D01*
X78740909Y-53346685D01*
X78662218Y-53346685D01*
X78658541Y-53277301D01*
X78642405Y-52995349D01*
X78627059Y-52747608D01*
X78613720Y-52553760D01*
X78604021Y-52437513D01*
X78561607Y-52181942D01*
X78486526Y-51880505D01*
X78389500Y-51568874D01*
X78281251Y-51282720D01*
X78210544Y-51128456D01*
X78137508Y-50973119D01*
X78098640Y-50868474D01*
X78095056Y-50823194D01*
X78127870Y-50845952D01*
X78184224Y-50923756D01*
X78319833Y-51167546D01*
X78445214Y-51472339D01*
X78563536Y-51847425D01*
X78677970Y-52302092D01*
X78720618Y-52495429D01*
X78814563Y-52861224D01*
X78925755Y-53144042D01*
X79060975Y-53352675D01*
X79227004Y-53495916D01*
X79430623Y-53582557D01*
X79581904Y-53612120D01*
X79807262Y-53641200D01*
X79614308Y-53498718D01*
X79455078Y-53345068D01*
X79295243Y-53129445D01*
X79152035Y-52880500D01*
X79042688Y-52626883D01*
X78998258Y-52474553D01*
X78980759Y-52405280D01*
X79045262Y-52405280D01*
X79068353Y-52428371D01*
X79091444Y-52405280D01*
X79068353Y-52382189D01*
X79045262Y-52405280D01*
X78980759Y-52405280D01*
X78930298Y-52205535D01*
X78841945Y-51906706D01*
X78838830Y-51897280D01*
X78950293Y-51897280D01*
X78974056Y-52012735D01*
X78995826Y-52142057D01*
X79004739Y-52220553D01*
X79011519Y-52285458D01*
X79021782Y-52260821D01*
X79030443Y-52218390D01*
X79026729Y-52103363D01*
X78999760Y-52010571D01*
X78950293Y-51897280D01*
X78838830Y-51897280D01*
X78815931Y-51828008D01*
X78906717Y-51828008D01*
X78923614Y-51866020D01*
X78937504Y-51858795D01*
X78943032Y-51803988D01*
X78937504Y-51797220D01*
X78910049Y-51803559D01*
X78906717Y-51828008D01*
X78815931Y-51828008D01*
X78770133Y-51689462D01*
X78860535Y-51689462D01*
X78877432Y-51727475D01*
X78891323Y-51720250D01*
X78896850Y-51665443D01*
X78891323Y-51658674D01*
X78863868Y-51665014D01*
X78860535Y-51689462D01*
X78770133Y-51689462D01*
X78742706Y-51606492D01*
X78730742Y-51574008D01*
X78814353Y-51574008D01*
X78837444Y-51597098D01*
X78860535Y-51574008D01*
X78837444Y-51550917D01*
X78814353Y-51574008D01*
X78730742Y-51574008D01*
X78688215Y-51458553D01*
X78768171Y-51458553D01*
X78785068Y-51496566D01*
X78798959Y-51489341D01*
X78804486Y-51434534D01*
X78798959Y-51427765D01*
X78771504Y-51434104D01*
X78768171Y-51458553D01*
X78688215Y-51458553D01*
X78642086Y-51333321D01*
X78549594Y-51115619D01*
X78531060Y-51077553D01*
X78397387Y-50812008D01*
X78539139Y-50812008D01*
X78622890Y-50820889D01*
X78683294Y-50861005D01*
X78740599Y-50952562D01*
X78792889Y-51065257D01*
X78859000Y-51232092D01*
X78934088Y-51447891D01*
X79004235Y-51672138D01*
X79018968Y-51723348D01*
X79079058Y-51930518D01*
X79139000Y-52127067D01*
X79188390Y-52279162D01*
X79200266Y-52312917D01*
X79254392Y-52449382D01*
X79327706Y-52618020D01*
X79411255Y-52800243D01*
X79496089Y-52977467D01*
X79573255Y-53131106D01*
X79633804Y-53242575D01*
X79668783Y-53293288D01*
X79672805Y-53294041D01*
X79668866Y-53243970D01*
X79639488Y-53132576D01*
X79597020Y-53001676D01*
X79553536Y-52864374D01*
X79493960Y-52659059D01*
X79424324Y-52407393D01*
X79350659Y-52131039D01*
X79300590Y-51937109D01*
X79230298Y-51669040D01*
X79161927Y-51422952D01*
X79100750Y-51216763D01*
X79052039Y-51068387D01*
X79026042Y-51004221D01*
X78969606Y-50886971D01*
X78957202Y-50829550D01*
X78985741Y-50812348D01*
X78995762Y-50812008D01*
X79038830Y-50854936D01*
X79095946Y-50974616D01*
X79162253Y-51157394D01*
X79232891Y-51389614D01*
X79303005Y-51657620D01*
X79316123Y-51712553D01*
X79402511Y-52061795D01*
X79495270Y-52405136D01*
X79589341Y-52726113D01*
X79679660Y-53008261D01*
X79761168Y-53235116D01*
X79828803Y-53390214D01*
X79835990Y-53403664D01*
X79977722Y-53589056D01*
X80183438Y-53761817D01*
X80200124Y-53773119D01*
X80355092Y-53884644D01*
X80496081Y-53999799D01*
X80573980Y-54074361D01*
X80672469Y-54190829D01*
X80812498Y-54367535D01*
X80982665Y-54589031D01*
X81171571Y-54839869D01*
X81367814Y-55104600D01*
X81559995Y-55367778D01*
X81736711Y-55613953D01*
X81886562Y-55827678D01*
X81998148Y-55993505D01*
X82041780Y-56063230D01*
X82227659Y-56376917D01*
X82235563Y-57000371D01*
X82235925Y-57275349D01*
X82231024Y-57558798D01*
X82221737Y-57816727D01*
X82209436Y-58009662D01*
X82194689Y-58204186D01*
X82194182Y-58332524D01*
X82211041Y-58420180D01*
X82248392Y-58492658D01*
X82272880Y-58527337D01*
X82312513Y-58589139D01*
X82339750Y-58660365D01*
X82356868Y-58758795D01*
X82366142Y-58902209D01*
X82369850Y-59108386D01*
X82370353Y-59288644D01*
X82369487Y-59542303D01*
X82365288Y-59720227D01*
X82355353Y-59839036D01*
X82337280Y-59915355D01*
X82308666Y-59965807D01*
X82267109Y-60007013D01*
X82266444Y-60007586D01*
X82142071Y-60095125D01*
X81962029Y-60198539D01*
X81754760Y-60303912D01*
X81548704Y-60397331D01*
X81372303Y-60464881D01*
X81281809Y-60489303D01*
X81146519Y-60524669D01*
X81043954Y-60570418D01*
X81031080Y-60579742D01*
X80944529Y-60638514D01*
X80821611Y-60707955D01*
X80800171Y-60718936D01*
X80648401Y-60808445D01*
X80504368Y-60912675D01*
X80499989Y-60916316D01*
X80391606Y-60992223D01*
X80237173Y-61082520D01*
X80061350Y-61174895D01*
X79888799Y-61257034D01*
X79744181Y-61316625D01*
X79652158Y-61341355D01*
X79648473Y-61341462D01*
X79565392Y-61357220D01*
X79436879Y-61396933D01*
X79378885Y-61418055D01*
X79178330Y-61494648D01*
X79416438Y-61735751D01*
X79554685Y-61890524D01*
X79628365Y-62007562D01*
X79638185Y-62061809D01*
X79602187Y-62109899D01*
X79505189Y-62171584D01*
X79339017Y-62251071D01*
X79095499Y-62352566D01*
X78999188Y-62390659D01*
X78769714Y-62477975D01*
X78564866Y-62551151D01*
X78402795Y-62604054D01*
X78301655Y-62630550D01*
X78283725Y-62632443D01*
X78291999Y-62616685D01*
X78374824Y-62574507D01*
X78520040Y-62511304D01*
X78715487Y-62432472D01*
X78859776Y-62376893D01*
X79093890Y-62286434D01*
X79298311Y-62204145D01*
X79456911Y-62136778D01*
X79553559Y-62091081D01*
X79574165Y-62077941D01*
X79569223Y-62019231D01*
X79490256Y-61909924D01*
X79383438Y-61796192D01*
X79252199Y-61671253D01*
X79160259Y-61604122D01*
X79086604Y-61582653D01*
X79026959Y-61590134D01*
X78930475Y-61646695D01*
X78911679Y-61732004D01*
X78973416Y-61820682D01*
X78999080Y-61838744D01*
X79071264Y-61926556D01*
X79087649Y-62039340D01*
X79046847Y-62137764D01*
X79010626Y-62166277D01*
X78935072Y-62199745D01*
X78794961Y-62256138D01*
X78612486Y-62326672D01*
X78467989Y-62381037D01*
X78271632Y-62456381D01*
X78104767Y-62524674D01*
X77988403Y-62577069D01*
X77947328Y-62600269D01*
X77881145Y-62626464D01*
X77858813Y-62618043D01*
X77844025Y-62601579D01*
X77845740Y-62585742D01*
X77876636Y-62564433D01*
X77949392Y-62531552D01*
X78076687Y-62480997D01*
X78271199Y-62406667D01*
X78398717Y-62358266D01*
X78661013Y-62256963D01*
X78845260Y-62179072D01*
X78960450Y-62117110D01*
X79015578Y-62063596D01*
X79019637Y-62011046D01*
X78981621Y-61951978D01*
X78940003Y-61907939D01*
X78861636Y-61842040D01*
X78817747Y-61829335D01*
X78814353Y-61839024D01*
X78781984Y-61882146D01*
X78681743Y-61946241D01*
X78508927Y-62033672D01*
X78258833Y-62146802D01*
X77926759Y-62287991D01*
X77890717Y-62302975D01*
X77577734Y-62430310D01*
X77335235Y-62522461D01*
X77150157Y-62583628D01*
X77009438Y-62618011D01*
X76900014Y-62629811D01*
X76874717Y-62629687D01*
X76713080Y-62624868D01*
X76882482Y-62571983D01*
X77001233Y-62529120D01*
X77078903Y-62490571D01*
X77086452Y-62484462D01*
X77158061Y-62454619D01*
X77205686Y-62449826D01*
X77276446Y-62428925D01*
X77290353Y-62403644D01*
X77330372Y-62370783D01*
X77424159Y-62357462D01*
X77534972Y-62337055D01*
X77690539Y-62283883D01*
X77837205Y-62218917D01*
X77986674Y-62148451D01*
X78106701Y-62098564D01*
X78169637Y-62080371D01*
X78246489Y-62060347D01*
X78345409Y-62016304D01*
X78486214Y-61948539D01*
X78594989Y-61901839D01*
X78698722Y-61831194D01*
X78712680Y-61739802D01*
X78647219Y-61642743D01*
X78572402Y-61590909D01*
X78544517Y-61610807D01*
X78579895Y-61687020D01*
X78588408Y-61698255D01*
X78629149Y-61753809D01*
X78606114Y-61743132D01*
X78570782Y-61715881D01*
X78494392Y-61677747D01*
X78456665Y-61683756D01*
X78460008Y-61730894D01*
X78486789Y-61754446D01*
X78524107Y-61812580D01*
X78491679Y-61869779D01*
X78407537Y-61894937D01*
X78358155Y-61885781D01*
X78392102Y-61854528D01*
X78427334Y-61808821D01*
X78403647Y-61783237D01*
X78363281Y-61716599D01*
X78352535Y-61644302D01*
X78378813Y-61556784D01*
X78472127Y-61514056D01*
X78479535Y-61512577D01*
X78593190Y-61510351D01*
X78664262Y-61535938D01*
X78705637Y-61549228D01*
X78720716Y-61486798D01*
X78721282Y-61451026D01*
X78712193Y-61367937D01*
X78685606Y-61373893D01*
X78681527Y-61379971D01*
X78643593Y-61414647D01*
X78614411Y-61368425D01*
X78549792Y-61305457D01*
X78504075Y-61295208D01*
X78484258Y-61279117D01*
X78493623Y-61272189D01*
X78629626Y-61272189D01*
X78652717Y-61295280D01*
X78675808Y-61272189D01*
X78674440Y-61270821D01*
X78787563Y-61270821D01*
X78791262Y-61295280D01*
X78830764Y-61339289D01*
X78837444Y-61341462D01*
X78874160Y-61309252D01*
X78883388Y-61295631D01*
X79048287Y-61295631D01*
X79059755Y-61319546D01*
X79085553Y-61353008D01*
X79152960Y-61424805D01*
X79183049Y-61424493D01*
X79183808Y-61416389D01*
X79152248Y-61377840D01*
X79102989Y-61335571D01*
X79048287Y-61295631D01*
X78883388Y-61295631D01*
X78883626Y-61295280D01*
X78872659Y-61256155D01*
X78837444Y-61249098D01*
X78787563Y-61270821D01*
X78674440Y-61270821D01*
X78652717Y-61249098D01*
X78629626Y-61272189D01*
X78493623Y-61272189D01*
X78542172Y-61236278D01*
X78583444Y-61214390D01*
X78691994Y-61146364D01*
X78731439Y-61073919D01*
X78730572Y-61018189D01*
X78723733Y-61001798D01*
X78814353Y-61001798D01*
X78842183Y-61058191D01*
X78906725Y-61133207D01*
X78979559Y-61198755D01*
X79032263Y-61226744D01*
X79039372Y-61224201D01*
X79025399Y-61180642D01*
X79005289Y-61157086D01*
X79463924Y-61157086D01*
X79475391Y-61181001D01*
X79501189Y-61214462D01*
X79568597Y-61286260D01*
X79598686Y-61285948D01*
X79599444Y-61277844D01*
X79567884Y-61239294D01*
X79518626Y-61197026D01*
X79463924Y-61157086D01*
X79005289Y-61157086D01*
X78959830Y-61103841D01*
X78942768Y-61087462D01*
X79414717Y-61087462D01*
X79437808Y-61110553D01*
X79460898Y-61087462D01*
X79437808Y-61064371D01*
X79414717Y-61087462D01*
X78942768Y-61087462D01*
X78939129Y-61083969D01*
X78859253Y-61017724D01*
X78816571Y-60997564D01*
X78814353Y-61001798D01*
X78723733Y-61001798D01*
X78720938Y-60995098D01*
X79322353Y-60995098D01*
X79345444Y-61018189D01*
X79368535Y-60995098D01*
X79345444Y-60972008D01*
X79322353Y-60995098D01*
X78720938Y-60995098D01*
X78682259Y-60902405D01*
X78660746Y-60879644D01*
X78768171Y-60879644D01*
X78785068Y-60917657D01*
X78798959Y-60910432D01*
X78804486Y-60855625D01*
X78798959Y-60848856D01*
X78771504Y-60855195D01*
X78768171Y-60879644D01*
X78660746Y-60879644D01*
X78617096Y-60833462D01*
X78517039Y-60750141D01*
X78409617Y-60642747D01*
X78404128Y-60636652D01*
X78387878Y-60624809D01*
X78515725Y-60624809D01*
X78563072Y-60670357D01*
X78649786Y-60730018D01*
X78669208Y-60727088D01*
X78629626Y-60671826D01*
X78558461Y-60613526D01*
X78522781Y-60602553D01*
X78515725Y-60624809D01*
X78387878Y-60624809D01*
X78285799Y-60550418D01*
X78166263Y-60538927D01*
X78075444Y-60597674D01*
X78022604Y-60633323D01*
X77917032Y-60688850D01*
X77867626Y-60712478D01*
X77702214Y-60791289D01*
X77535451Y-60873423D01*
X77512113Y-60885218D01*
X77393864Y-60939901D01*
X77308113Y-60969991D01*
X77294011Y-60972008D01*
X77228860Y-60990067D01*
X77109814Y-61036723D01*
X77002979Y-61083638D01*
X76843336Y-61143381D01*
X76637573Y-61201969D01*
X76412401Y-61253886D01*
X76194533Y-61293612D01*
X76010680Y-61315631D01*
X75887554Y-61314425D01*
X75886567Y-61314249D01*
X75773295Y-61293529D01*
X75633161Y-61267652D01*
X75627808Y-61266659D01*
X75509170Y-61229869D01*
X75433472Y-61179724D01*
X75429240Y-61173606D01*
X75356005Y-61119742D01*
X75305783Y-61110553D01*
X75215235Y-61082066D01*
X75102871Y-61011829D01*
X75081703Y-60994808D01*
X74969660Y-60926673D01*
X74869461Y-60907691D01*
X74806335Y-60939442D01*
X74796535Y-60976948D01*
X74759249Y-61013962D01*
X74729988Y-61018189D01*
X74670317Y-61032323D01*
X74630352Y-61086013D01*
X74603625Y-61196195D01*
X74583670Y-61379804D01*
X74581458Y-61407130D01*
X74570982Y-61567892D01*
X74578276Y-61667176D01*
X74613542Y-61735560D01*
X74686982Y-61803619D01*
X74723547Y-61832985D01*
X74822648Y-61920825D01*
X74881682Y-61990084D01*
X74888897Y-62008571D01*
X74921449Y-62080545D01*
X74999386Y-62167427D01*
X75093133Y-62242963D01*
X75173117Y-62280901D01*
X75194382Y-62279764D01*
X75248990Y-62292073D01*
X75258353Y-62331529D01*
X75289161Y-62414503D01*
X75364090Y-62513408D01*
X75371708Y-62521198D01*
X75433825Y-62595017D01*
X75443032Y-62633130D01*
X75436836Y-62634553D01*
X75385588Y-62603372D01*
X75287622Y-62519632D01*
X75159522Y-62398032D01*
X75081027Y-62319108D01*
X74860777Y-62091832D01*
X74698472Y-61920556D01*
X74586350Y-61796368D01*
X74516647Y-61710355D01*
X74481602Y-61653605D01*
X74473262Y-61621338D01*
X74447297Y-61581348D01*
X74387395Y-61601053D01*
X74320543Y-61670728D01*
X74315747Y-61678101D01*
X74301281Y-61732412D01*
X74331056Y-61801715D01*
X74415169Y-61903550D01*
X74491086Y-61982660D01*
X74617370Y-62127533D01*
X74676143Y-62234512D01*
X74665045Y-62297186D01*
X74612088Y-62311280D01*
X74542760Y-62326416D01*
X74446455Y-62358875D01*
X74321271Y-62406470D01*
X74428408Y-62520511D01*
X74490422Y-62601787D01*
X74479472Y-62634168D01*
X74473192Y-62634553D01*
X74425661Y-62602793D01*
X74322779Y-62513158D01*
X74173458Y-62374118D01*
X73986609Y-62194143D01*
X73771144Y-61981702D01*
X73535974Y-61745264D01*
X73513522Y-61722462D01*
X72982302Y-61181042D01*
X72516507Y-60703190D01*
X72115356Y-60288071D01*
X71778068Y-59934852D01*
X71503859Y-59642697D01*
X71291949Y-59410774D01*
X71141556Y-59238247D01*
X71051897Y-59124283D01*
X71023802Y-59071096D01*
X71090974Y-59071096D01*
X71112653Y-59112117D01*
X71191709Y-59210730D01*
X71320728Y-59358697D01*
X71492299Y-59547782D01*
X71699009Y-59769747D01*
X71933444Y-60016355D01*
X72056596Y-60144109D01*
X72486872Y-60588087D01*
X72857783Y-60969840D01*
X73173891Y-61293811D01*
X73439760Y-61564442D01*
X73659952Y-61786174D01*
X73839030Y-61963449D01*
X73981555Y-62100710D01*
X74092090Y-62202398D01*
X74175199Y-62272955D01*
X74235443Y-62316822D01*
X74277386Y-62338442D01*
X74305589Y-62342257D01*
X74312560Y-62340403D01*
X74419275Y-62305427D01*
X74500643Y-62282986D01*
X74581314Y-62254806D01*
X74602031Y-62214667D01*
X74559372Y-62146717D01*
X74449914Y-62035104D01*
X74446381Y-62031703D01*
X74305858Y-61886543D01*
X74232984Y-61780291D01*
X74221018Y-61697108D01*
X74263220Y-61621155D01*
X74268921Y-61614711D01*
X74349342Y-61547244D01*
X74403672Y-61526189D01*
X74440414Y-61484149D01*
X74477549Y-61373719D01*
X74500424Y-61260644D01*
X74534434Y-61096662D01*
X74578503Y-61001269D01*
X74643786Y-60950696D01*
X74646444Y-60949511D01*
X74725667Y-60906347D01*
X74750330Y-60880238D01*
X74717990Y-60840488D01*
X74633201Y-60758971D01*
X74514275Y-60653285D01*
X74513494Y-60652612D01*
X74276680Y-60448671D01*
X73767179Y-60626145D01*
X73257678Y-60803618D01*
X72480016Y-60012186D01*
X72207201Y-59731736D01*
X71997675Y-59507655D01*
X71847836Y-59332622D01*
X71754080Y-59199316D01*
X71725653Y-59131206D01*
X71748535Y-59131206D01*
X71779330Y-59177991D01*
X71864427Y-59278559D01*
X71992891Y-59421528D01*
X72153789Y-59595511D01*
X72336185Y-59789126D01*
X72529147Y-59990986D01*
X72721739Y-60189708D01*
X72903029Y-60373908D01*
X73062081Y-60532201D01*
X73187962Y-60653202D01*
X73269737Y-60725527D01*
X73294740Y-60741098D01*
X73342485Y-60726450D01*
X73458437Y-60686811D01*
X73623958Y-60628637D01*
X73777073Y-60573980D01*
X73966923Y-60502227D01*
X74119392Y-60437820D01*
X74216533Y-60388775D01*
X74242353Y-60366162D01*
X74279838Y-60330029D01*
X74311626Y-60325462D01*
X74373070Y-60299665D01*
X74380898Y-60277655D01*
X74351178Y-60253614D01*
X74294607Y-60276031D01*
X74215570Y-60303460D01*
X74184501Y-60298398D01*
X74131896Y-60298104D01*
X74012673Y-60318140D01*
X73849303Y-60354470D01*
X73789734Y-60369295D01*
X73608157Y-60413431D01*
X73455112Y-60446599D01*
X73357290Y-60463131D01*
X73343654Y-60464008D01*
X73276485Y-60431755D01*
X73172131Y-60347134D01*
X73052997Y-60228346D01*
X73051167Y-60226348D01*
X72912697Y-60077366D01*
X72741726Y-59896842D01*
X72570664Y-59718941D01*
X72536397Y-59683711D01*
X72304038Y-59434406D01*
X72140576Y-59234039D01*
X72047791Y-59084970D01*
X72043634Y-59070164D01*
X72107326Y-59070164D01*
X72137698Y-59121928D01*
X72204788Y-59147168D01*
X72228588Y-59137287D01*
X72243231Y-59142565D01*
X72232899Y-59178776D01*
X72248757Y-59260953D01*
X72343593Y-59386797D01*
X72413872Y-59459620D01*
X72524768Y-59562504D01*
X72608838Y-59628554D01*
X72646038Y-59643474D01*
X72678419Y-59663274D01*
X72724037Y-59742221D01*
X72783356Y-59830098D01*
X72841220Y-59863644D01*
X72896703Y-59900499D01*
X72903080Y-59929565D01*
X72936659Y-60002341D01*
X73017513Y-60085496D01*
X73018535Y-60086302D01*
X73099258Y-60163788D01*
X73133963Y-60224844D01*
X73133989Y-60225905D01*
X73173727Y-60290916D01*
X73268602Y-60346130D01*
X73381385Y-60370240D01*
X73443278Y-60348278D01*
X73439641Y-60299973D01*
X73436413Y-60252300D01*
X73457791Y-60256516D01*
X73499965Y-60252350D01*
X73503444Y-60235824D01*
X73468020Y-60188819D01*
X73454537Y-60186917D01*
X73427877Y-60158215D01*
X73436117Y-60137586D01*
X73498903Y-60108306D01*
X73536535Y-60115091D01*
X73583432Y-60115536D01*
X73592001Y-60052485D01*
X73586209Y-60003912D01*
X73583540Y-59902942D01*
X73605424Y-59852746D01*
X73605740Y-59852636D01*
X73628802Y-59803515D01*
X73652400Y-59686494D01*
X73671758Y-59525884D01*
X73673220Y-59509042D01*
X73684580Y-59327547D01*
X73676496Y-59195810D01*
X73641036Y-59073163D01*
X73570266Y-58918939D01*
X73550336Y-58879052D01*
X73469499Y-58707332D01*
X73426762Y-58574250D01*
X73413248Y-58438919D01*
X73419153Y-58274792D01*
X73425730Y-58099726D01*
X73411288Y-58004779D01*
X73366391Y-57978434D01*
X73281604Y-58009176D01*
X73226353Y-58039462D01*
X73094432Y-58090586D01*
X72989553Y-58107098D01*
X72875669Y-58133350D01*
X72810717Y-58178008D01*
X72735831Y-58236503D01*
X72696703Y-58247280D01*
X72544011Y-58288326D01*
X72393914Y-58397297D01*
X72273069Y-58552945D01*
X72246100Y-58606478D01*
X72156495Y-58823463D01*
X72111137Y-58973745D01*
X72107326Y-59070164D01*
X72043634Y-59070164D01*
X72025626Y-59006043D01*
X72014961Y-58965158D01*
X71967326Y-58970889D01*
X71887080Y-59009280D01*
X71792959Y-59071418D01*
X71748971Y-59126987D01*
X71748535Y-59131206D01*
X71725653Y-59131206D01*
X71712802Y-59100418D01*
X71720398Y-59028608D01*
X71773265Y-58976564D01*
X71867799Y-58936967D01*
X71940702Y-58916718D01*
X72045158Y-58857898D01*
X72088703Y-58788022D01*
X72104990Y-58706258D01*
X72104048Y-58679763D01*
X72058348Y-58689555D01*
X71948037Y-58726514D01*
X71793902Y-58782609D01*
X71616727Y-58849811D01*
X71437297Y-58920093D01*
X71276398Y-58985424D01*
X71154815Y-59037776D01*
X71093333Y-59069120D01*
X71090974Y-59071096D01*
X71023802Y-59071096D01*
X71022191Y-59068047D01*
X71022699Y-59064913D01*
X71072816Y-59026202D01*
X71192511Y-58964957D01*
X71364258Y-58889365D01*
X71570530Y-58807612D01*
X71586281Y-58801693D01*
X71831860Y-58706112D01*
X72006019Y-58628116D01*
X72125745Y-58558559D01*
X72208029Y-58488290D01*
X72241227Y-58449000D01*
X72405478Y-58304671D01*
X72582814Y-58223191D01*
X72717089Y-58172480D01*
X72811347Y-58125551D01*
X72835990Y-58105204D01*
X72898974Y-58069682D01*
X72953897Y-58062553D01*
X73076962Y-58040967D01*
X73220514Y-57985989D01*
X73357391Y-57912292D01*
X73460432Y-57834548D01*
X73502472Y-57767429D01*
X73502505Y-57766220D01*
X73513058Y-57704335D01*
X73527039Y-57701300D01*
X73531667Y-57754981D01*
X73522525Y-57875690D01*
X73501593Y-58039447D01*
X73496209Y-58074975D01*
X73470229Y-58262504D01*
X73464622Y-58395547D01*
X73482094Y-58510279D01*
X73525353Y-58642873D01*
X73541999Y-58686936D01*
X73612849Y-58851321D01*
X73689075Y-58997064D01*
X73734466Y-59066095D01*
X73800071Y-59175775D01*
X73826717Y-59271348D01*
X73846500Y-59366515D01*
X73895578Y-59489488D01*
X73958544Y-59610114D01*
X74019991Y-59698238D01*
X74058564Y-59725098D01*
X74078726Y-59682203D01*
X74092806Y-59566255D01*
X74100870Y-59396358D01*
X74102983Y-59191619D01*
X74099210Y-58971142D01*
X74089616Y-58754034D01*
X74074268Y-58559400D01*
X74054062Y-58410781D01*
X74029320Y-58247955D01*
X74029952Y-58206870D01*
X74148745Y-58206870D01*
X74156448Y-58231971D01*
X74181986Y-58309321D01*
X74172976Y-58339813D01*
X74164141Y-58411650D01*
X74177160Y-58536557D01*
X74191043Y-58607381D01*
X74221737Y-58789830D01*
X74248705Y-59038792D01*
X74269850Y-59328435D01*
X74283075Y-59632923D01*
X74285998Y-59777162D01*
X74290717Y-59868418D01*
X74309001Y-59948185D01*
X74350692Y-60032876D01*
X74425633Y-60138907D01*
X74543664Y-60282692D01*
X74692626Y-60455368D01*
X74843275Y-60626878D01*
X74971993Y-60770285D01*
X75066918Y-60872608D01*
X75116189Y-60920862D01*
X75119808Y-60922947D01*
X75129565Y-60882659D01*
X75132240Y-60774496D01*
X75127898Y-60636708D01*
X75154553Y-60288948D01*
X75270997Y-59934983D01*
X75452674Y-59609648D01*
X75643896Y-59391459D01*
X75909460Y-59191932D01*
X76231614Y-59022702D01*
X76501641Y-58922052D01*
X76711006Y-58862993D01*
X76916647Y-58815893D01*
X77101608Y-58783205D01*
X77248933Y-58767385D01*
X77341667Y-58770886D01*
X77362853Y-58796164D01*
X77362079Y-58797492D01*
X77298755Y-58831652D01*
X77186166Y-58847506D01*
X77174446Y-58847644D01*
X76892116Y-58877538D01*
X76573847Y-58959288D01*
X76250532Y-59080996D01*
X75953063Y-59230765D01*
X75712332Y-59396698D01*
X75683448Y-59421865D01*
X75514137Y-59621972D01*
X75368675Y-59898596D01*
X75358091Y-59923744D01*
X75245825Y-60244240D01*
X75188748Y-60525261D01*
X75186819Y-60758366D01*
X75239990Y-60935116D01*
X75348219Y-61047071D01*
X75364058Y-61055346D01*
X75453041Y-61112658D01*
X75489262Y-61164196D01*
X75522020Y-61195707D01*
X75546989Y-61191158D01*
X75634420Y-61189174D01*
X75697080Y-61206062D01*
X75781819Y-61236975D01*
X75813603Y-61245853D01*
X75824658Y-61204198D01*
X75835933Y-61088884D01*
X75845969Y-60918599D01*
X75852200Y-60752644D01*
X75859757Y-60548559D01*
X75869012Y-60381401D01*
X75878670Y-60271007D01*
X75885767Y-60236947D01*
X75893339Y-60272105D01*
X75899495Y-60382109D01*
X75903567Y-60549447D01*
X75904898Y-60738541D01*
X75904898Y-61259378D01*
X76078080Y-61229632D01*
X76471354Y-61150552D01*
X76812950Y-61054823D01*
X77013262Y-60983698D01*
X77232189Y-60898307D01*
X77378248Y-60835876D01*
X77465628Y-60788509D01*
X77508519Y-60748308D01*
X77521110Y-60707376D01*
X77521262Y-60700967D01*
X77514911Y-60678924D01*
X77597181Y-60678924D01*
X77629730Y-60694867D01*
X77633271Y-60694917D01*
X77659489Y-60675386D01*
X77754403Y-60675386D01*
X77787777Y-60678196D01*
X77792779Y-60675271D01*
X77835172Y-60614638D01*
X77859754Y-60545545D01*
X77875123Y-60473367D01*
X77855612Y-60483081D01*
X77819147Y-60530561D01*
X77766210Y-60618760D01*
X77754403Y-60675386D01*
X77659489Y-60675386D01*
X77686376Y-60655357D01*
X77748242Y-60554753D01*
X77778110Y-60486069D01*
X77788846Y-60452462D01*
X77940144Y-60452462D01*
X77945757Y-60534608D01*
X77962132Y-60531706D01*
X77983080Y-60487098D01*
X77986778Y-60477245D01*
X78406161Y-60477245D01*
X78417398Y-60503054D01*
X78463898Y-60552632D01*
X78490631Y-60542462D01*
X78491080Y-60536006D01*
X78458278Y-60496944D01*
X78437763Y-60482688D01*
X78406161Y-60477245D01*
X77986778Y-60477245D01*
X78012598Y-60408461D01*
X78698898Y-60408461D01*
X78929808Y-60620012D01*
X79059546Y-60737987D01*
X79135720Y-60803719D01*
X79172331Y-60827937D01*
X79183382Y-60821373D01*
X79183808Y-60814672D01*
X79150569Y-60778648D01*
X79063432Y-60702279D01*
X78941353Y-60602171D01*
X78698898Y-60408461D01*
X78012598Y-60408461D01*
X78016652Y-60397662D01*
X78018984Y-60388305D01*
X78312569Y-60388305D01*
X78359663Y-60360466D01*
X78413241Y-60312266D01*
X78481894Y-60231717D01*
X78502698Y-60175754D01*
X78501923Y-60173824D01*
X78465132Y-60179897D01*
X78400412Y-60243653D01*
X78395035Y-60250381D01*
X78323915Y-60350102D01*
X78312569Y-60388305D01*
X78018984Y-60388305D01*
X78026016Y-60360098D01*
X77994163Y-60326495D01*
X77983080Y-60325462D01*
X77950611Y-60365223D01*
X77940144Y-60452462D01*
X77788846Y-60452462D01*
X77818831Y-60358608D01*
X77832930Y-60268682D01*
X77827342Y-60246693D01*
X77782118Y-60240970D01*
X77726951Y-60311642D01*
X77657209Y-60465078D01*
X77644035Y-60498644D01*
X77601575Y-60620351D01*
X77597181Y-60678924D01*
X77514911Y-60678924D01*
X77508385Y-60656277D01*
X77465844Y-60685680D01*
X77374242Y-60733464D01*
X77321915Y-60741098D01*
X77261490Y-60712343D01*
X77259581Y-60676584D01*
X77296252Y-60676584D01*
X77313573Y-60693384D01*
X77334316Y-60694917D01*
X77383220Y-60659693D01*
X77451728Y-60579462D01*
X77521262Y-60579462D01*
X77544353Y-60602553D01*
X77567444Y-60579462D01*
X77544353Y-60556371D01*
X77521262Y-60579462D01*
X77451728Y-60579462D01*
X77460139Y-60569612D01*
X77511184Y-60498644D01*
X77611060Y-60349311D01*
X77665683Y-60257125D01*
X77681896Y-60202962D01*
X77666543Y-60167701D01*
X77638688Y-60142371D01*
X77596231Y-60126083D01*
X77550206Y-60160047D01*
X77488599Y-60257268D01*
X77431379Y-60366731D01*
X77350250Y-60529841D01*
X77306843Y-60627597D01*
X77296252Y-60676584D01*
X77259581Y-60676584D01*
X77256672Y-60622108D01*
X77307325Y-60464438D01*
X77315144Y-60445432D01*
X77329958Y-60395896D01*
X77302572Y-60398517D01*
X77218829Y-60455932D01*
X77205311Y-60465897D01*
X77097581Y-60532858D01*
X77029754Y-60537910D01*
X77004961Y-60520361D01*
X76982815Y-60443800D01*
X77059562Y-60443800D01*
X77096010Y-60464008D01*
X77145081Y-60433414D01*
X77236538Y-60353704D01*
X77336347Y-60256381D01*
X77447375Y-60136065D01*
X77497216Y-60058770D01*
X77495061Y-60007701D01*
X77481679Y-59990835D01*
X77435434Y-59970348D01*
X77371838Y-60001233D01*
X77273699Y-60093259D01*
X77241343Y-60127401D01*
X77131465Y-60261125D01*
X77068719Y-60371577D01*
X77059562Y-60443800D01*
X76982815Y-60443800D01*
X76979278Y-60431575D01*
X77033044Y-60296460D01*
X77166066Y-60115462D01*
X77195050Y-60081865D01*
X77337816Y-59919264D01*
X77174843Y-59956020D01*
X77036934Y-59969705D01*
X76934622Y-59929212D01*
X76914605Y-59914016D01*
X76849233Y-59851528D01*
X76851482Y-59829297D01*
X76925677Y-59829297D01*
X76939374Y-59856176D01*
X76993521Y-59873170D01*
X77101803Y-59877618D01*
X77227072Y-59871057D01*
X77332180Y-59855024D01*
X77374913Y-59838154D01*
X77367931Y-59793261D01*
X77338677Y-59729102D01*
X77299203Y-59669829D01*
X77249096Y-59657289D01*
X77156153Y-59687753D01*
X77117944Y-59703532D01*
X76991406Y-59758874D01*
X76933215Y-59795754D01*
X76925677Y-59829297D01*
X76851482Y-59829297D01*
X76854153Y-59802903D01*
X76895508Y-59757086D01*
X76942051Y-59696329D01*
X76914119Y-59675786D01*
X76912652Y-59675700D01*
X76915802Y-59662296D01*
X76990096Y-59631440D01*
X77065311Y-59606685D01*
X77129533Y-59574671D01*
X77360640Y-59574671D01*
X77366155Y-59650951D01*
X77396942Y-59734094D01*
X77499845Y-59903467D01*
X77649887Y-60058221D01*
X77823226Y-60180851D01*
X77996018Y-60253849D01*
X78119437Y-60264545D01*
X78183940Y-60225012D01*
X78275643Y-60133461D01*
X78333917Y-60062519D01*
X78419866Y-59958625D01*
X78483152Y-59898249D01*
X78503582Y-59891540D01*
X78535809Y-59876191D01*
X78553198Y-59842545D01*
X78549914Y-59780429D01*
X78524267Y-59768353D01*
X78516132Y-59752723D01*
X78569963Y-59724375D01*
X78670526Y-59647804D01*
X78790183Y-59499108D01*
X78836775Y-59424917D01*
X80753989Y-59424917D01*
X80777080Y-59448008D01*
X80800171Y-59424917D01*
X80777080Y-59401826D01*
X80753989Y-59424917D01*
X78836775Y-59424917D01*
X78894779Y-59332553D01*
X80800171Y-59332553D01*
X80823262Y-59355644D01*
X80846353Y-59332553D01*
X80823262Y-59309462D01*
X80800171Y-59332553D01*
X78894779Y-59332553D01*
X78919072Y-59293871D01*
X79047328Y-59047674D01*
X79156534Y-58797767D01*
X79288880Y-58470458D01*
X79394236Y-58222011D01*
X79476354Y-58044189D01*
X79506579Y-57988485D01*
X79619684Y-57988485D01*
X79669026Y-58059436D01*
X79742712Y-58138073D01*
X79891090Y-58274010D01*
X80052762Y-58377507D01*
X80256293Y-58464226D01*
X80452660Y-58527404D01*
X80650335Y-58581633D01*
X80795295Y-58603101D01*
X80922212Y-58588959D01*
X81065758Y-58536359D01*
X81215808Y-58464703D01*
X81405095Y-58358973D01*
X81526327Y-58258425D01*
X81595431Y-58157143D01*
X81642154Y-58051526D01*
X81659312Y-57987028D01*
X81657450Y-57980801D01*
X81609403Y-57988048D01*
X81514288Y-58028585D01*
X81497366Y-58037152D01*
X81403091Y-58074362D01*
X81289392Y-58090736D01*
X81129870Y-58088234D01*
X80973528Y-58076000D01*
X80792510Y-58059764D01*
X80646637Y-58047329D01*
X80560571Y-58040777D01*
X80550020Y-58040268D01*
X80511504Y-58079478D01*
X80462907Y-58179576D01*
X80441300Y-58238621D01*
X80389384Y-58369625D01*
X80356048Y-58411742D01*
X80348762Y-58367063D01*
X80374998Y-58237680D01*
X80379437Y-58221308D01*
X80409113Y-58084435D01*
X80391975Y-58007690D01*
X80314268Y-57964961D01*
X80233914Y-57945016D01*
X80090917Y-57901474D01*
X79934599Y-57836607D01*
X79912430Y-57825712D01*
X79740507Y-57738687D01*
X79663152Y-57856746D01*
X79620558Y-57930935D01*
X79619684Y-57988485D01*
X79506579Y-57988485D01*
X79538988Y-57928758D01*
X79575744Y-57877826D01*
X79612908Y-57813015D01*
X79674683Y-57681055D01*
X79753154Y-57501243D01*
X79840407Y-57292879D01*
X79928528Y-57075259D01*
X80009605Y-56867684D01*
X80075722Y-56689450D01*
X80118967Y-56559857D01*
X80124953Y-56538553D01*
X80171566Y-56445762D01*
X80263267Y-56317219D01*
X80369961Y-56192189D01*
X80474915Y-56083688D01*
X80522531Y-56046054D01*
X80513834Y-56078569D01*
X80501639Y-56099826D01*
X80409516Y-56236332D01*
X80316230Y-56353826D01*
X80260426Y-56440828D01*
X80188502Y-56584644D01*
X80111928Y-56757860D01*
X80042174Y-56933062D01*
X79990710Y-57082834D01*
X79969007Y-57179763D01*
X79968898Y-57183974D01*
X80011627Y-57253508D01*
X80126561Y-57322373D01*
X80293824Y-57382694D01*
X80493541Y-57426594D01*
X80619202Y-57441657D01*
X80802594Y-57462051D01*
X80961220Y-57489473D01*
X81062298Y-57518189D01*
X81065717Y-57519779D01*
X81152252Y-57591011D01*
X81162008Y-57670191D01*
X81115596Y-57721040D01*
X81081054Y-57723296D01*
X81091623Y-57676105D01*
X81079927Y-57601196D01*
X80983780Y-57547334D01*
X80809133Y-57516630D01*
X80623983Y-57510105D01*
X80361444Y-57511839D01*
X80546171Y-57675390D01*
X80635144Y-57759639D01*
X80656968Y-57793576D01*
X80619211Y-57781188D01*
X80529444Y-57726461D01*
X80395234Y-57633380D01*
X80224151Y-57505932D01*
X80223642Y-57505542D01*
X79919959Y-57272782D01*
X79849193Y-57442149D01*
X79809256Y-57565652D01*
X79799005Y-57659403D01*
X79802103Y-57673216D01*
X79859605Y-57719593D01*
X79988962Y-57775946D01*
X80170979Y-57836745D01*
X80386459Y-57896458D01*
X80616207Y-57949554D01*
X80841025Y-57990501D01*
X80957008Y-58005996D01*
X81147714Y-58024435D01*
X81279190Y-58025569D01*
X81383567Y-58005660D01*
X81492974Y-57960973D01*
X81539432Y-57938274D01*
X81607165Y-57900917D01*
X81723808Y-57900917D01*
X81746898Y-57924008D01*
X81769989Y-57900917D01*
X81746898Y-57877826D01*
X81723808Y-57900917D01*
X81607165Y-57900917D01*
X81645577Y-57879732D01*
X81725375Y-57814662D01*
X81795376Y-57722276D01*
X81872132Y-57581785D01*
X81946784Y-57426608D01*
X82136368Y-57023462D01*
X82134660Y-57254371D01*
X82128505Y-57377942D01*
X82113480Y-57420146D01*
X82099653Y-57400742D01*
X82073546Y-57366559D01*
X82038385Y-57396713D01*
X81984491Y-57501344D01*
X81967418Y-57539288D01*
X81903328Y-57697814D01*
X81853333Y-57846099D01*
X81839080Y-57900917D01*
X81809677Y-58039462D01*
X81997354Y-57857198D01*
X82185032Y-57674933D01*
X82182518Y-57050207D01*
X82180610Y-56796535D01*
X82175004Y-56614181D01*
X82162297Y-56482099D01*
X82139090Y-56379244D01*
X82101979Y-56284570D01*
X82047565Y-56177032D01*
X82038702Y-56160371D01*
X81958141Y-56026724D01*
X81830703Y-55836149D01*
X81667531Y-55603579D01*
X81479770Y-55343951D01*
X81278565Y-55072199D01*
X81075060Y-54803259D01*
X80880398Y-54552066D01*
X80705724Y-54333555D01*
X80562183Y-54162662D01*
X80485030Y-54078169D01*
X80255208Y-53873641D01*
X80040386Y-53751926D01*
X79828501Y-53707527D01*
X79691808Y-53716662D01*
X79492945Y-53762187D01*
X79348372Y-53835690D01*
X79226113Y-53958586D01*
X79133289Y-54090700D01*
X79051494Y-54213307D01*
X78991095Y-54297112D01*
X78968212Y-54321826D01*
X78952777Y-54288204D01*
X78992361Y-54194486D01*
X79066961Y-54074270D01*
X79135053Y-53959695D01*
X79140532Y-53910421D01*
X79083915Y-53927944D01*
X79029096Y-53964688D01*
X78966826Y-54062157D01*
X78932349Y-54237497D01*
X78931002Y-54253324D01*
X78902683Y-54444114D01*
X78854044Y-54639817D01*
X78836835Y-54691280D01*
X78795442Y-54855762D01*
X78765852Y-55094396D01*
X78747198Y-55414920D01*
X78743758Y-55522553D01*
X78733453Y-55780073D01*
X78717709Y-56029096D01*
X78698608Y-56242316D01*
X78678236Y-56392429D01*
X78676789Y-56400008D01*
X78642320Y-56589022D01*
X78605458Y-56812033D01*
X78582236Y-56965540D01*
X78539919Y-57173245D01*
X78483771Y-57318881D01*
X78452119Y-57362605D01*
X78390967Y-57461701D01*
X78343322Y-57603956D01*
X78334527Y-57648624D01*
X78286185Y-57808685D01*
X78199962Y-57984430D01*
X78151362Y-58059741D01*
X78014215Y-58261374D01*
X77882732Y-58473164D01*
X77767097Y-58676617D01*
X77677490Y-58853242D01*
X77624094Y-58984546D01*
X77613626Y-59036386D01*
X77589347Y-59132060D01*
X77527005Y-59266720D01*
X77472806Y-59359187D01*
X77393957Y-59488456D01*
X77360640Y-59574671D01*
X77129533Y-59574671D01*
X77251743Y-59513751D01*
X77409501Y-59370517D01*
X77516118Y-59201790D01*
X77549069Y-59072527D01*
X77566232Y-58960531D01*
X77588423Y-58897242D01*
X77589385Y-58852201D01*
X77572938Y-58847644D01*
X77528168Y-58816062D01*
X77429442Y-58727821D01*
X77286991Y-58592681D01*
X77111043Y-58420401D01*
X76911829Y-58220740D01*
X76850476Y-58158407D01*
X76220330Y-57516228D01*
X76307004Y-57516228D01*
X76755426Y-57966339D01*
X77203849Y-58416451D01*
X77574058Y-58309223D01*
X77750563Y-58256325D01*
X77894141Y-58210019D01*
X77980485Y-58178253D01*
X77991695Y-58172683D01*
X78007199Y-58130488D01*
X77980653Y-58107235D01*
X77929787Y-58063891D01*
X77825817Y-57966662D01*
X77680801Y-57827120D01*
X77506800Y-57656840D01*
X77363813Y-57515207D01*
X76805444Y-56959316D01*
X76307004Y-57516228D01*
X76220330Y-57516228D01*
X76174153Y-57469170D01*
X75831316Y-57692976D01*
X75657552Y-57798712D01*
X75486965Y-57882594D01*
X75300126Y-57950734D01*
X75077605Y-58009243D01*
X74799973Y-58064232D01*
X74487290Y-58115707D01*
X74298207Y-58148600D01*
X74189304Y-58177601D01*
X74148745Y-58206870D01*
X74029952Y-58206870D01*
X74030771Y-58153737D01*
X74058885Y-58108023D01*
X74061210Y-58106519D01*
X74127987Y-58085532D01*
X74264945Y-58055822D01*
X74450821Y-58021661D01*
X74624037Y-57993447D01*
X74863284Y-57951955D01*
X75099264Y-57903096D01*
X75298444Y-57854176D01*
X75390434Y-57826445D01*
X75535750Y-57766394D01*
X75700401Y-57682789D01*
X75863550Y-57588387D01*
X76004364Y-57495945D01*
X76102005Y-57418220D01*
X76135808Y-57370083D01*
X76099888Y-57303921D01*
X76008623Y-57211060D01*
X75886754Y-57110812D01*
X75759022Y-57022493D01*
X75650168Y-56965416D01*
X75603047Y-56954189D01*
X75449122Y-56969866D01*
X75234839Y-57012901D01*
X74979168Y-57077304D01*
X74701082Y-57157087D01*
X74419552Y-57246257D01*
X74153551Y-57338826D01*
X73922051Y-57428802D01*
X73744023Y-57510196D01*
X73642898Y-57573090D01*
X73567817Y-57614240D01*
X73445843Y-57658921D01*
X73299543Y-57701708D01*
X73151485Y-57737174D01*
X73024237Y-57759894D01*
X72940364Y-57764441D01*
X72921720Y-57746482D01*
X72896483Y-57705023D01*
X72813127Y-57605503D01*
X72678598Y-57455420D01*
X72499842Y-57262269D01*
X72283804Y-57033548D01*
X72037430Y-56776751D01*
X71767665Y-56499377D01*
X71741858Y-56473030D01*
X71470330Y-56194911D01*
X71221234Y-55937701D01*
X71001534Y-55708750D01*
X70818193Y-55515406D01*
X70678177Y-55365020D01*
X70588450Y-55264941D01*
X70555976Y-55222519D01*
X70556134Y-55221742D01*
X70592121Y-55248703D01*
X70685847Y-55334373D01*
X70830124Y-55471770D01*
X71017766Y-55653907D01*
X71241587Y-55873802D01*
X71494399Y-56124469D01*
X71769015Y-56398925D01*
X71817068Y-56447161D01*
X72186017Y-56815403D01*
X72493624Y-57117262D01*
X72741339Y-57354087D01*
X72930614Y-57527230D01*
X73062900Y-57638042D01*
X73139648Y-57687873D01*
X73153464Y-57691163D01*
X73257973Y-57668487D01*
X73387180Y-57615547D01*
X73403587Y-57607063D01*
X73557731Y-57524899D01*
X72110496Y-56055663D01*
X71808117Y-55747910D01*
X71524434Y-55457689D01*
X71266340Y-55192163D01*
X71040728Y-54958489D01*
X70854490Y-54763827D01*
X70714519Y-54615337D01*
X70627707Y-54520178D01*
X70602024Y-54488763D01*
X70620828Y-54500802D01*
X70698333Y-54572939D01*
X70828607Y-54699293D01*
X71005720Y-54873980D01*
X71223740Y-55091116D01*
X71476737Y-55344818D01*
X71758778Y-55629203D01*
X72063933Y-55938387D01*
X72085491Y-55960283D01*
X72454277Y-56334050D01*
X72763969Y-56645820D01*
X73019457Y-56900206D01*
X73225634Y-57101821D01*
X73387392Y-57255277D01*
X73509623Y-57365187D01*
X73597218Y-57436163D01*
X73655069Y-57472818D01*
X73688068Y-57479765D01*
X73693820Y-57476772D01*
X73783474Y-57424388D01*
X73937301Y-57355238D01*
X74130847Y-57278545D01*
X74339653Y-57203536D01*
X74539264Y-57139433D01*
X74704171Y-57095693D01*
X74807508Y-57069595D01*
X74896141Y-57034557D01*
X74985231Y-56979225D01*
X75089938Y-56892246D01*
X75225420Y-56762266D01*
X75406840Y-56577933D01*
X75437115Y-56546784D01*
X75601874Y-56378511D01*
X75704295Y-56277245D01*
X75745023Y-56242438D01*
X75724708Y-56273543D01*
X75643998Y-56370012D01*
X75638066Y-56376917D01*
X75498947Y-56535663D01*
X75367722Y-56680175D01*
X75266101Y-56786719D01*
X75239940Y-56812149D01*
X75145753Y-56911724D01*
X75129813Y-56963461D01*
X75192520Y-56969230D01*
X75269594Y-56950966D01*
X75518271Y-56906063D01*
X75723210Y-56932157D01*
X75903219Y-57032280D01*
X75934081Y-57058097D01*
X76054432Y-57176002D01*
X76155075Y-57295140D01*
X76181242Y-57333517D01*
X76257460Y-57458848D01*
X76522632Y-57190880D01*
X76787803Y-56922912D01*
X76639565Y-56684448D01*
X76491328Y-56445983D01*
X76572548Y-56265868D01*
X76676195Y-56094740D01*
X76821900Y-55925641D01*
X76957886Y-55807825D01*
X77847853Y-55807825D01*
X77881423Y-55839751D01*
X77890717Y-55845826D01*
X77975330Y-55886621D01*
X78015716Y-55879841D01*
X78006171Y-55845826D01*
X77940265Y-55805643D01*
X77899537Y-55800351D01*
X77847853Y-55807825D01*
X76957886Y-55807825D01*
X76981830Y-55787081D01*
X77112238Y-55713049D01*
X77245424Y-55691961D01*
X77432870Y-55714279D01*
X77496759Y-55728146D01*
X77703729Y-55764263D01*
X77846053Y-55763201D01*
X77916096Y-55725938D01*
X77916419Y-55674343D01*
X77898648Y-55583550D01*
X77895688Y-55535480D01*
X77983080Y-55535480D01*
X78010163Y-55676868D01*
X78098121Y-55820775D01*
X78257016Y-55981914D01*
X78332111Y-56045816D01*
X78489526Y-56164809D01*
X78596631Y-56222318D01*
X78642779Y-56220599D01*
X78659502Y-56160232D01*
X78674246Y-56025904D01*
X78685634Y-55836015D01*
X78692289Y-55608967D01*
X78693045Y-55549176D01*
X78692783Y-55320609D01*
X78687998Y-55129339D01*
X78679460Y-54992137D01*
X78667940Y-54925778D01*
X78664262Y-54922177D01*
X78644450Y-54963860D01*
X78630708Y-55070910D01*
X78626975Y-55164644D01*
X78620739Y-55363920D01*
X78607854Y-55554245D01*
X78590633Y-55712114D01*
X78571386Y-55814025D01*
X78560804Y-55837678D01*
X78510219Y-55838075D01*
X78451174Y-55770710D01*
X78398202Y-55657276D01*
X78371112Y-55554531D01*
X78348245Y-55436288D01*
X78330880Y-55400265D01*
X78308321Y-55437749D01*
X78289314Y-55487917D01*
X78233697Y-55590214D01*
X78164638Y-55605174D01*
X78067535Y-55538486D01*
X78004971Y-55488715D01*
X77984562Y-55503928D01*
X77983080Y-55535480D01*
X77895688Y-55535480D01*
X77890742Y-55455183D01*
X77890717Y-55448054D01*
X77871176Y-55319955D01*
X77809898Y-55263346D01*
X77701502Y-55225568D01*
X77622963Y-55195507D01*
X77516847Y-55153067D01*
X77654771Y-54952601D01*
X77733690Y-54830731D01*
X77764087Y-54750759D01*
X77753100Y-54680876D01*
X77727802Y-54627055D01*
X77648993Y-54495385D01*
X77568995Y-54382581D01*
X77486699Y-54233937D01*
X77491586Y-54109743D01*
X77515925Y-54074858D01*
X77630489Y-54074858D01*
X77663959Y-54083546D01*
X77705989Y-54086267D01*
X77824539Y-54108587D01*
X77890717Y-54137098D01*
X77979836Y-54178843D01*
X78028061Y-54148940D01*
X78040752Y-54114008D01*
X78121626Y-54114008D01*
X78135255Y-54200830D01*
X78161403Y-54229462D01*
X78183624Y-54191039D01*
X78179111Y-54114008D01*
X78177303Y-54107070D01*
X78219202Y-54107070D01*
X78311205Y-54236276D01*
X78383645Y-54330493D01*
X78480951Y-54447858D01*
X78584672Y-54567350D01*
X78676362Y-54667953D01*
X78737573Y-54728646D01*
X78751099Y-54737462D01*
X78739105Y-54702396D01*
X78692228Y-54614675D01*
X78670697Y-54577536D01*
X78624632Y-54470921D01*
X78576176Y-54313914D01*
X78530793Y-54131884D01*
X78493944Y-53950202D01*
X78471094Y-53794237D01*
X78467705Y-53689359D01*
X78474236Y-53665173D01*
X78474194Y-53629985D01*
X78468590Y-53629098D01*
X78435695Y-53667438D01*
X78379622Y-53766567D01*
X78329926Y-53868084D01*
X78219202Y-54107070D01*
X78177303Y-54107070D01*
X78156554Y-54027480D01*
X78139333Y-53998553D01*
X78126006Y-54038196D01*
X78121626Y-54114008D01*
X78040752Y-54114008D01*
X78044948Y-54102462D01*
X78071492Y-53996633D01*
X78096029Y-53891032D01*
X78118427Y-53790735D01*
X78260171Y-53790735D01*
X78283262Y-53813826D01*
X78306353Y-53790735D01*
X78283262Y-53767644D01*
X78260171Y-53790735D01*
X78118427Y-53790735D01*
X78125198Y-53760420D01*
X77950230Y-53898538D01*
X77826326Y-53985998D01*
X77716759Y-54046363D01*
X77682898Y-54058429D01*
X77630489Y-54074858D01*
X77515925Y-54074858D01*
X77530498Y-54053971D01*
X77556972Y-54008181D01*
X77542044Y-53999563D01*
X77487004Y-54036306D01*
X77396311Y-54132691D01*
X77283541Y-54270209D01*
X77162269Y-54430352D01*
X77046070Y-54594609D01*
X76948521Y-54744473D01*
X76883197Y-54861434D01*
X76863317Y-54924938D01*
X76852312Y-54997087D01*
X76818132Y-55003388D01*
X76735343Y-55021437D01*
X76630755Y-55125004D01*
X76503287Y-55314735D01*
X76411008Y-55448560D01*
X76313838Y-55559867D01*
X76286101Y-55584646D01*
X76196334Y-55681256D01*
X76106551Y-55814851D01*
X76087399Y-55850191D01*
X76022325Y-55959949D01*
X75966852Y-56023887D01*
X75951704Y-56030553D01*
X75951204Y-55997385D01*
X75993466Y-55911876D01*
X76065096Y-55795017D01*
X76152700Y-55667798D01*
X76242886Y-55551211D01*
X76294723Y-55492955D01*
X76377762Y-55389658D01*
X76469257Y-55251631D01*
X76495496Y-55206783D01*
X76600765Y-55019483D01*
X76504360Y-54967889D01*
X76414575Y-54894300D01*
X76323194Y-54783011D01*
X76314079Y-54769151D01*
X76220201Y-54622008D01*
X76251410Y-54806735D01*
X76284349Y-54941649D01*
X76326554Y-55042766D01*
X76336213Y-55056699D01*
X76364850Y-55103915D01*
X76321715Y-55099705D01*
X76320535Y-55099321D01*
X76223166Y-55026073D01*
X76129003Y-54883167D01*
X76097333Y-54806735D01*
X76135808Y-54806735D01*
X76158898Y-54829826D01*
X76181989Y-54806735D01*
X76158898Y-54783644D01*
X76135808Y-54806735D01*
X76097333Y-54806735D01*
X76050156Y-54692879D01*
X76006158Y-54521045D01*
X75975868Y-54314728D01*
X75948361Y-54043205D01*
X75924459Y-53726282D01*
X75904980Y-53383766D01*
X75890746Y-53035465D01*
X75882576Y-52701186D01*
X75881290Y-52400734D01*
X75882501Y-52354153D01*
X75957795Y-52354153D01*
X75958019Y-52556287D01*
X75961891Y-52794040D01*
X75969086Y-53056095D01*
X75979275Y-53331133D01*
X75992134Y-53607835D01*
X76007337Y-53874883D01*
X76024555Y-54120959D01*
X76043464Y-54334743D01*
X76063736Y-54504918D01*
X76069535Y-54542736D01*
X76095325Y-54677646D01*
X76113450Y-54728513D01*
X76123274Y-54703387D01*
X76124159Y-54610322D01*
X76115469Y-54457369D01*
X76096566Y-54252580D01*
X76094219Y-54230755D01*
X76080813Y-54072597D01*
X76736344Y-54072597D01*
X76741649Y-54204759D01*
X76755666Y-54362361D01*
X76774955Y-54519232D01*
X76796080Y-54649202D01*
X76815601Y-54726100D01*
X76823568Y-54736476D01*
X76864361Y-54701498D01*
X76936249Y-54613767D01*
X76978626Y-54555915D01*
X77062862Y-54433694D01*
X77096484Y-54365960D01*
X77082581Y-54332056D01*
X77024248Y-54311328D01*
X77015581Y-54309051D01*
X76933803Y-54255911D01*
X76846730Y-54154747D01*
X76831027Y-54130483D01*
X76770962Y-54039791D01*
X76742935Y-54024568D01*
X76736344Y-54072597D01*
X76080813Y-54072597D01*
X76075451Y-54009342D01*
X76063278Y-53795719D01*
X76951343Y-53795719D01*
X76970842Y-53894644D01*
X76997270Y-54017635D01*
X77011467Y-54101462D01*
X77012160Y-54110512D01*
X77041475Y-54111363D01*
X77112552Y-54059336D01*
X77131903Y-54041742D01*
X77250543Y-53930285D01*
X77120357Y-53826103D01*
X77010964Y-53745887D01*
X76958063Y-53734184D01*
X76951343Y-53795719D01*
X76063278Y-53795719D01*
X76059412Y-53727877D01*
X76047548Y-53418661D01*
X76041309Y-53113997D01*
X76040782Y-53038469D01*
X76037423Y-52772819D01*
X76029946Y-52525354D01*
X76019311Y-52317431D01*
X76006477Y-52170405D01*
X75999911Y-52128189D01*
X75982278Y-52074658D01*
X75969598Y-52102020D01*
X75961546Y-52198958D01*
X75957795Y-52354153D01*
X75882501Y-52354153D01*
X75887709Y-52153917D01*
X75901343Y-51989644D01*
X75933187Y-51796938D01*
X75973910Y-51603142D01*
X76018299Y-51427392D01*
X76061144Y-51288825D01*
X76097233Y-51206576D01*
X76117915Y-51194357D01*
X76115282Y-51245067D01*
X76086847Y-51351538D01*
X76067028Y-51410974D01*
X76023076Y-51576596D01*
X76000971Y-51741160D01*
X76000301Y-51776087D01*
X76003707Y-51863306D01*
X76013359Y-51880901D01*
X76034934Y-51822109D01*
X76070949Y-51691935D01*
X76112733Y-51549778D01*
X76149425Y-51447545D01*
X76167092Y-51414844D01*
X76177483Y-51432536D01*
X76162747Y-51504735D01*
X76121643Y-51709514D01*
X76102343Y-51937789D01*
X76105402Y-52156343D01*
X76131375Y-52331959D01*
X76148069Y-52382189D01*
X76181289Y-52456493D01*
X76200022Y-52478733D01*
X76206403Y-52438500D01*
X76202569Y-52325385D01*
X76192855Y-52163877D01*
X76185870Y-51932763D01*
X76197241Y-51794771D01*
X76258641Y-51794771D01*
X76268075Y-51944086D01*
X76311960Y-52132368D01*
X76384085Y-52339309D01*
X76478239Y-52544600D01*
X76588211Y-52727932D01*
X76613376Y-52762593D01*
X76728525Y-52968927D01*
X76805659Y-53212958D01*
X76828277Y-53405854D01*
X76870511Y-53526472D01*
X76984375Y-53654802D01*
X77151317Y-53778592D01*
X77352786Y-53885591D01*
X77570232Y-53963548D01*
X77718567Y-53993826D01*
X77768912Y-53967381D01*
X77863386Y-53893934D01*
X77958786Y-53810004D01*
X78092895Y-53698196D01*
X78189321Y-53649664D01*
X78258869Y-53651776D01*
X78328388Y-53656169D01*
X78381720Y-53603310D01*
X78425612Y-53511661D01*
X78465120Y-53385526D01*
X78473701Y-53286704D01*
X78470065Y-53271490D01*
X78473426Y-53179164D01*
X78496263Y-53137945D01*
X78525211Y-53046019D01*
X78521476Y-52910448D01*
X78489914Y-52771978D01*
X78441478Y-52678250D01*
X78363117Y-52621873D01*
X78291664Y-52622957D01*
X78260173Y-52680911D01*
X78260171Y-52681491D01*
X78220799Y-52742983D01*
X78146254Y-52778476D01*
X78026435Y-52768189D01*
X77916020Y-52720856D01*
X78044656Y-52720856D01*
X78050995Y-52748311D01*
X78075444Y-52751644D01*
X78113457Y-52734747D01*
X78106232Y-52720856D01*
X78051425Y-52715329D01*
X78044656Y-52720856D01*
X77916020Y-52720856D01*
X77864083Y-52698592D01*
X77675291Y-52581745D01*
X77476155Y-52429708D01*
X77282769Y-52254543D01*
X77111227Y-52068310D01*
X77001134Y-51920371D01*
X76864962Y-51712553D01*
X76891692Y-51874189D01*
X76916849Y-52029671D01*
X76944393Y-52204497D01*
X76948936Y-52233864D01*
X76991086Y-52387381D01*
X77069531Y-52481329D01*
X77100265Y-52501097D01*
X77174261Y-52546102D01*
X77169592Y-52554948D01*
X77117171Y-52542401D01*
X77040802Y-52527254D01*
X77018384Y-52551746D01*
X77041843Y-52635389D01*
X77059357Y-52682144D01*
X77106899Y-52759767D01*
X77153752Y-52773533D01*
X77223208Y-52774849D01*
X77315475Y-52818001D01*
X77399180Y-52887883D01*
X77428758Y-52941218D01*
X77401702Y-52959633D01*
X77331231Y-52933533D01*
X77214553Y-52902091D01*
X77090350Y-52902282D01*
X76955885Y-52878830D01*
X76902469Y-52844008D01*
X76967080Y-52844008D01*
X76983977Y-52882020D01*
X76997868Y-52874795D01*
X77003395Y-52819988D01*
X76997868Y-52813220D01*
X76970413Y-52819559D01*
X76967080Y-52844008D01*
X76902469Y-52844008D01*
X76808373Y-52782668D01*
X76712639Y-52682371D01*
X76874717Y-52682371D01*
X76898885Y-52743840D01*
X76919449Y-52751644D01*
X76944859Y-52717792D01*
X76937599Y-52682371D01*
X76904820Y-52621607D01*
X76892867Y-52613098D01*
X76876723Y-52650810D01*
X76874717Y-52682371D01*
X76712639Y-52682371D01*
X76662019Y-52629339D01*
X76651107Y-52613098D01*
X76736171Y-52613098D01*
X76753068Y-52651111D01*
X76766959Y-52643886D01*
X76772486Y-52589079D01*
X76766959Y-52582311D01*
X76739504Y-52588650D01*
X76736171Y-52613098D01*
X76651107Y-52613098D01*
X76604564Y-52543826D01*
X76920898Y-52543826D01*
X76943989Y-52566917D01*
X76967080Y-52543826D01*
X76943989Y-52520735D01*
X76920898Y-52543826D01*
X76604564Y-52543826D01*
X76531030Y-52434385D01*
X76429609Y-52213349D01*
X76411760Y-52159814D01*
X76364511Y-51992983D01*
X76331545Y-51850109D01*
X76320535Y-51769264D01*
X76308760Y-51706185D01*
X76289868Y-51704735D01*
X76258641Y-51794771D01*
X76197241Y-51794771D01*
X76198421Y-51780454D01*
X76220701Y-51721554D01*
X76249418Y-51621511D01*
X76229692Y-51510039D01*
X76207480Y-51373062D01*
X76221596Y-51270165D01*
X76268214Y-51227712D01*
X76270664Y-51227644D01*
X76291967Y-51269050D01*
X76309137Y-51374195D01*
X76314435Y-51443225D01*
X76328907Y-51589215D01*
X76352256Y-51703775D01*
X76362822Y-51731861D01*
X76394279Y-51824641D01*
X76423398Y-51958126D01*
X76427275Y-51981878D01*
X76465559Y-52135606D01*
X76528894Y-52308846D01*
X76554045Y-52364473D01*
X76619357Y-52485373D01*
X76667904Y-52532692D01*
X76714081Y-52519798D01*
X76717972Y-52516675D01*
X76772708Y-52428708D01*
X76785280Y-52364989D01*
X76790400Y-52300930D01*
X76807670Y-52317998D01*
X76832454Y-52377349D01*
X76874169Y-52459706D01*
X76896254Y-52459567D01*
X76895789Y-52385272D01*
X76873364Y-52260506D01*
X76847756Y-52123215D01*
X76818520Y-51931396D01*
X76791270Y-51722422D01*
X76786851Y-51684485D01*
X76761602Y-51463719D01*
X76735954Y-51240736D01*
X76715006Y-51059847D01*
X76713032Y-51042917D01*
X76683384Y-50788918D01*
X76886485Y-51228871D01*
G37*
X76886485Y-51228871D02*
X77106298Y-51667701D01*
X77327257Y-52030711D01*
X77559333Y-52334022D01*
X77595437Y-52375050D01*
X77716064Y-52496756D01*
X77822516Y-52563044D01*
X77952266Y-52595073D01*
X77994626Y-52600420D01*
X78121978Y-52608086D01*
X78201121Y-52600013D01*
X78213989Y-52589459D01*
X78190903Y-52535846D01*
X78129845Y-52426556D01*
X78043114Y-52283395D01*
X78025831Y-52255880D01*
X77928255Y-52093229D01*
X77817410Y-51895418D01*
X77701059Y-51677954D01*
X77586962Y-51456347D01*
X77482880Y-51246105D01*
X77396575Y-51062737D01*
X77335807Y-50921751D01*
X77308339Y-50838657D01*
X77309221Y-50823928D01*
X77351449Y-50813888D01*
X77353500Y-50815856D01*
X77408534Y-50890585D01*
X77499394Y-51027039D01*
X77615010Y-51207371D01*
X77744311Y-51413732D01*
X77876228Y-51628276D01*
X77999689Y-51833154D01*
X78103624Y-52010519D01*
X78176964Y-52142524D01*
X78180059Y-52148437D01*
X78278142Y-52327206D01*
X78375858Y-52489521D01*
X78454873Y-52605232D01*
X78467002Y-52620347D01*
X78510809Y-52678070D01*
X78540854Y-52740612D01*
X78559704Y-52825799D01*
X78569927Y-52951461D01*
X78574094Y-53135426D01*
X78574785Y-53368542D01*
X78581557Y-53690556D01*
X78600899Y-53979894D01*
X78630945Y-54223095D01*
X78669831Y-54406701D01*
X78715692Y-54517253D01*
X78736945Y-54538887D01*
X78760354Y-54536504D01*
X78750980Y-54516099D01*
X78738949Y-54455932D01*
X78724138Y-54318632D01*
X78707780Y-54119341D01*
X78707558Y-54116050D01*
X78768171Y-54116050D01*
X78771813Y-54277732D01*
X78783641Y-54347825D01*
X78805005Y-54326849D01*
X78837257Y-54215325D01*
X78852796Y-54148658D01*
X78874310Y-54011739D01*
X78858649Y-53932237D01*
X78832236Y-53901867D01*
X78796102Y-53886021D01*
X78776494Y-53924758D01*
X78768887Y-54033200D01*
X78768171Y-54116050D01*
X78707558Y-54116050D01*
X78691108Y-53873203D01*
X78675355Y-53595360D01*
X78674251Y-53573781D01*
X78662218Y-53346685D01*
X78740909Y-53346685D01*
X78743767Y-53450932D01*
X78750323Y-53498700D01*
X78790259Y-53689828D01*
X78844389Y-53803333D01*
X78921832Y-53853813D01*
X78976052Y-53860008D01*
X79088319Y-53860008D01*
X78951336Y-53657037D01*
X78918397Y-53604608D01*
X79008176Y-53604608D01*
X79013593Y-53652311D01*
X79063910Y-53716855D01*
X79128024Y-53762596D01*
X79150438Y-53767644D01*
X79159144Y-53739567D01*
X79114279Y-53674997D01*
X79046001Y-53614458D01*
X79008176Y-53604608D01*
X78918397Y-53604608D01*
X78873893Y-53533771D01*
X78824232Y-53438364D01*
X78814353Y-53405763D01*
X78780496Y-53338527D01*
X78767082Y-53328243D01*
X78740909Y-53346685D01*
X78662218Y-53346685D01*
X78658541Y-53277301D01*
X78642405Y-52995349D01*
X78627059Y-52747608D01*
X78613720Y-52553760D01*
X78604021Y-52437513D01*
X78561607Y-52181942D01*
X78486526Y-51880505D01*
X78389500Y-51568874D01*
X78281251Y-51282720D01*
X78210544Y-51128456D01*
X78137508Y-50973119D01*
X78098640Y-50868474D01*
X78095056Y-50823194D01*
X78127870Y-50845952D01*
X78184224Y-50923756D01*
X78319833Y-51167546D01*
X78445214Y-51472339D01*
X78563536Y-51847425D01*
X78677970Y-52302092D01*
X78720618Y-52495429D01*
X78814563Y-52861224D01*
X78925755Y-53144042D01*
X79060975Y-53352675D01*
X79227004Y-53495916D01*
X79430623Y-53582557D01*
X79581904Y-53612120D01*
X79807262Y-53641200D01*
X79614308Y-53498718D01*
X79455078Y-53345068D01*
X79295243Y-53129445D01*
X79152035Y-52880500D01*
X79042688Y-52626883D01*
X78998258Y-52474553D01*
X78980759Y-52405280D01*
X79045262Y-52405280D01*
X79068353Y-52428371D01*
X79091444Y-52405280D01*
X79068353Y-52382189D01*
X79045262Y-52405280D01*
X78980759Y-52405280D01*
X78930298Y-52205535D01*
X78841945Y-51906706D01*
X78838830Y-51897280D01*
X78950293Y-51897280D01*
X78974056Y-52012735D01*
X78995826Y-52142057D01*
X79004739Y-52220553D01*
X79011519Y-52285458D01*
X79021782Y-52260821D01*
X79030443Y-52218390D01*
X79026729Y-52103363D01*
X78999760Y-52010571D01*
X78950293Y-51897280D01*
X78838830Y-51897280D01*
X78815931Y-51828008D01*
X78906717Y-51828008D01*
X78923614Y-51866020D01*
X78937504Y-51858795D01*
X78943032Y-51803988D01*
X78937504Y-51797220D01*
X78910049Y-51803559D01*
X78906717Y-51828008D01*
X78815931Y-51828008D01*
X78770133Y-51689462D01*
X78860535Y-51689462D01*
X78877432Y-51727475D01*
X78891323Y-51720250D01*
X78896850Y-51665443D01*
X78891323Y-51658674D01*
X78863868Y-51665014D01*
X78860535Y-51689462D01*
X78770133Y-51689462D01*
X78742706Y-51606492D01*
X78730742Y-51574008D01*
X78814353Y-51574008D01*
X78837444Y-51597098D01*
X78860535Y-51574008D01*
X78837444Y-51550917D01*
X78814353Y-51574008D01*
X78730742Y-51574008D01*
X78688215Y-51458553D01*
X78768171Y-51458553D01*
X78785068Y-51496566D01*
X78798959Y-51489341D01*
X78804486Y-51434534D01*
X78798959Y-51427765D01*
X78771504Y-51434104D01*
X78768171Y-51458553D01*
X78688215Y-51458553D01*
X78642086Y-51333321D01*
X78549594Y-51115619D01*
X78531060Y-51077553D01*
X78397387Y-50812008D01*
X78539139Y-50812008D01*
X78622890Y-50820889D01*
X78683294Y-50861005D01*
X78740599Y-50952562D01*
X78792889Y-51065257D01*
X78859000Y-51232092D01*
X78934088Y-51447891D01*
X79004235Y-51672138D01*
X79018968Y-51723348D01*
X79079058Y-51930518D01*
X79139000Y-52127067D01*
X79188390Y-52279162D01*
X79200266Y-52312917D01*
X79254392Y-52449382D01*
X79327706Y-52618020D01*
X79411255Y-52800243D01*
X79496089Y-52977467D01*
X79573255Y-53131106D01*
X79633804Y-53242575D01*
X79668783Y-53293288D01*
X79672805Y-53294041D01*
X79668866Y-53243970D01*
X79639488Y-53132576D01*
X79597020Y-53001676D01*
X79553536Y-52864374D01*
X79493960Y-52659059D01*
X79424324Y-52407393D01*
X79350659Y-52131039D01*
X79300590Y-51937109D01*
X79230298Y-51669040D01*
X79161927Y-51422952D01*
X79100750Y-51216763D01*
X79052039Y-51068387D01*
X79026042Y-51004221D01*
X78969606Y-50886971D01*
X78957202Y-50829550D01*
X78985741Y-50812348D01*
X78995762Y-50812008D01*
X79038830Y-50854936D01*
X79095946Y-50974616D01*
X79162253Y-51157394D01*
X79232891Y-51389614D01*
X79303005Y-51657620D01*
X79316123Y-51712553D01*
X79402511Y-52061795D01*
X79495270Y-52405136D01*
X79589341Y-52726113D01*
X79679660Y-53008261D01*
X79761168Y-53235116D01*
X79828803Y-53390214D01*
X79835990Y-53403664D01*
X79977722Y-53589056D01*
X80183438Y-53761817D01*
X80200124Y-53773119D01*
X80355092Y-53884644D01*
X80496081Y-53999799D01*
X80573980Y-54074361D01*
X80672469Y-54190829D01*
X80812498Y-54367535D01*
X80982665Y-54589031D01*
X81171571Y-54839869D01*
X81367814Y-55104600D01*
X81559995Y-55367778D01*
X81736711Y-55613953D01*
X81886562Y-55827678D01*
X81998148Y-55993505D01*
X82041780Y-56063230D01*
X82227659Y-56376917D01*
X82235563Y-57000371D01*
X82235925Y-57275349D01*
X82231024Y-57558798D01*
X82221737Y-57816727D01*
X82209436Y-58009662D01*
X82194689Y-58204186D01*
X82194182Y-58332524D01*
X82211041Y-58420180D01*
X82248392Y-58492658D01*
X82272880Y-58527337D01*
X82312513Y-58589139D01*
X82339750Y-58660365D01*
X82356868Y-58758795D01*
X82366142Y-58902209D01*
X82369850Y-59108386D01*
X82370353Y-59288644D01*
X82369487Y-59542303D01*
X82365288Y-59720227D01*
X82355353Y-59839036D01*
X82337280Y-59915355D01*
X82308666Y-59965807D01*
X82267109Y-60007013D01*
X82266444Y-60007586D01*
X82142071Y-60095125D01*
X81962029Y-60198539D01*
X81754760Y-60303912D01*
X81548704Y-60397331D01*
X81372303Y-60464881D01*
X81281809Y-60489303D01*
X81146519Y-60524669D01*
X81043954Y-60570418D01*
X81031080Y-60579742D01*
X80944529Y-60638514D01*
X80821611Y-60707955D01*
X80800171Y-60718936D01*
X80648401Y-60808445D01*
X80504368Y-60912675D01*
X80499989Y-60916316D01*
X80391606Y-60992223D01*
X80237173Y-61082520D01*
X80061350Y-61174895D01*
X79888799Y-61257034D01*
X79744181Y-61316625D01*
X79652158Y-61341355D01*
X79648473Y-61341462D01*
X79565392Y-61357220D01*
X79436879Y-61396933D01*
X79378885Y-61418055D01*
X79178330Y-61494648D01*
X79416438Y-61735751D01*
X79554685Y-61890524D01*
X79628365Y-62007562D01*
X79638185Y-62061809D01*
X79602187Y-62109899D01*
X79505189Y-62171584D01*
X79339017Y-62251071D01*
X79095499Y-62352566D01*
X78999188Y-62390659D01*
X78769714Y-62477975D01*
X78564866Y-62551151D01*
X78402795Y-62604054D01*
X78301655Y-62630550D01*
X78283725Y-62632443D01*
X78291999Y-62616685D01*
X78374824Y-62574507D01*
X78520040Y-62511304D01*
X78715487Y-62432472D01*
X78859776Y-62376893D01*
X79093890Y-62286434D01*
X79298311Y-62204145D01*
X79456911Y-62136778D01*
X79553559Y-62091081D01*
X79574165Y-62077941D01*
X79569223Y-62019231D01*
X79490256Y-61909924D01*
X79383438Y-61796192D01*
X79252199Y-61671253D01*
X79160259Y-61604122D01*
X79086604Y-61582653D01*
X79026959Y-61590134D01*
X78930475Y-61646695D01*
X78911679Y-61732004D01*
X78973416Y-61820682D01*
X78999080Y-61838744D01*
X79071264Y-61926556D01*
X79087649Y-62039340D01*
X79046847Y-62137764D01*
X79010626Y-62166277D01*
X78935072Y-62199745D01*
X78794961Y-62256138D01*
X78612486Y-62326672D01*
X78467989Y-62381037D01*
X78271632Y-62456381D01*
X78104767Y-62524674D01*
X77988403Y-62577069D01*
X77947328Y-62600269D01*
X77881145Y-62626464D01*
X77858813Y-62618043D01*
X77844025Y-62601579D01*
X77845740Y-62585742D01*
X77876636Y-62564433D01*
X77949392Y-62531552D01*
X78076687Y-62480997D01*
X78271199Y-62406667D01*
X78398717Y-62358266D01*
X78661013Y-62256963D01*
X78845260Y-62179072D01*
X78960450Y-62117110D01*
X79015578Y-62063596D01*
X79019637Y-62011046D01*
X78981621Y-61951978D01*
X78940003Y-61907939D01*
X78861636Y-61842040D01*
X78817747Y-61829335D01*
X78814353Y-61839024D01*
X78781984Y-61882146D01*
X78681743Y-61946241D01*
X78508927Y-62033672D01*
X78258833Y-62146802D01*
X77926759Y-62287991D01*
X77890717Y-62302975D01*
X77577734Y-62430310D01*
X77335235Y-62522461D01*
X77150157Y-62583628D01*
X77009438Y-62618011D01*
X76900014Y-62629811D01*
X76874717Y-62629687D01*
X76713080Y-62624868D01*
X76882482Y-62571983D01*
X77001233Y-62529120D01*
X77078903Y-62490571D01*
X77086452Y-62484462D01*
X77158061Y-62454619D01*
X77205686Y-62449826D01*
X77276446Y-62428925D01*
X77290353Y-62403644D01*
X77330372Y-62370783D01*
X77424159Y-62357462D01*
X77534972Y-62337055D01*
X77690539Y-62283883D01*
X77837205Y-62218917D01*
X77986674Y-62148451D01*
X78106701Y-62098564D01*
X78169637Y-62080371D01*
X78246489Y-62060347D01*
X78345409Y-62016304D01*
X78486214Y-61948539D01*
X78594989Y-61901839D01*
X78698722Y-61831194D01*
X78712680Y-61739802D01*
X78647219Y-61642743D01*
X78572402Y-61590909D01*
X78544517Y-61610807D01*
X78579895Y-61687020D01*
X78588408Y-61698255D01*
X78629149Y-61753809D01*
X78606114Y-61743132D01*
X78570782Y-61715881D01*
X78494392Y-61677747D01*
X78456665Y-61683756D01*
X78460008Y-61730894D01*
X78486789Y-61754446D01*
X78524107Y-61812580D01*
X78491679Y-61869779D01*
X78407537Y-61894937D01*
X78358155Y-61885781D01*
X78392102Y-61854528D01*
X78427334Y-61808821D01*
X78403647Y-61783237D01*
X78363281Y-61716599D01*
X78352535Y-61644302D01*
X78378813Y-61556784D01*
X78472127Y-61514056D01*
X78479535Y-61512577D01*
X78593190Y-61510351D01*
X78664262Y-61535938D01*
X78705637Y-61549228D01*
X78720716Y-61486798D01*
X78721282Y-61451026D01*
X78712193Y-61367937D01*
X78685606Y-61373893D01*
X78681527Y-61379971D01*
X78643593Y-61414647D01*
X78614411Y-61368425D01*
X78549792Y-61305457D01*
X78504075Y-61295208D01*
X78484258Y-61279117D01*
X78493623Y-61272189D01*
X78629626Y-61272189D01*
X78652717Y-61295280D01*
X78675808Y-61272189D01*
X78674440Y-61270821D01*
X78787563Y-61270821D01*
X78791262Y-61295280D01*
X78830764Y-61339289D01*
X78837444Y-61341462D01*
X78874160Y-61309252D01*
X78883388Y-61295631D01*
X79048287Y-61295631D01*
X79059755Y-61319546D01*
X79085553Y-61353008D01*
X79152960Y-61424805D01*
X79183049Y-61424493D01*
X79183808Y-61416389D01*
X79152248Y-61377840D01*
X79102989Y-61335571D01*
X79048287Y-61295631D01*
X78883388Y-61295631D01*
X78883626Y-61295280D01*
X78872659Y-61256155D01*
X78837444Y-61249098D01*
X78787563Y-61270821D01*
X78674440Y-61270821D01*
X78652717Y-61249098D01*
X78629626Y-61272189D01*
X78493623Y-61272189D01*
X78542172Y-61236278D01*
X78583444Y-61214390D01*
X78691994Y-61146364D01*
X78731439Y-61073919D01*
X78730572Y-61018189D01*
X78723733Y-61001798D01*
X78814353Y-61001798D01*
X78842183Y-61058191D01*
X78906725Y-61133207D01*
X78979559Y-61198755D01*
X79032263Y-61226744D01*
X79039372Y-61224201D01*
X79025399Y-61180642D01*
X79005289Y-61157086D01*
X79463924Y-61157086D01*
X79475391Y-61181001D01*
X79501189Y-61214462D01*
X79568597Y-61286260D01*
X79598686Y-61285948D01*
X79599444Y-61277844D01*
X79567884Y-61239294D01*
X79518626Y-61197026D01*
X79463924Y-61157086D01*
X79005289Y-61157086D01*
X78959830Y-61103841D01*
X78942768Y-61087462D01*
X79414717Y-61087462D01*
X79437808Y-61110553D01*
X79460898Y-61087462D01*
X79437808Y-61064371D01*
X79414717Y-61087462D01*
X78942768Y-61087462D01*
X78939129Y-61083969D01*
X78859253Y-61017724D01*
X78816571Y-60997564D01*
X78814353Y-61001798D01*
X78723733Y-61001798D01*
X78720938Y-60995098D01*
X79322353Y-60995098D01*
X79345444Y-61018189D01*
X79368535Y-60995098D01*
X79345444Y-60972008D01*
X79322353Y-60995098D01*
X78720938Y-60995098D01*
X78682259Y-60902405D01*
X78660746Y-60879644D01*
X78768171Y-60879644D01*
X78785068Y-60917657D01*
X78798959Y-60910432D01*
X78804486Y-60855625D01*
X78798959Y-60848856D01*
X78771504Y-60855195D01*
X78768171Y-60879644D01*
X78660746Y-60879644D01*
X78617096Y-60833462D01*
X78517039Y-60750141D01*
X78409617Y-60642747D01*
X78404128Y-60636652D01*
X78387878Y-60624809D01*
X78515725Y-60624809D01*
X78563072Y-60670357D01*
X78649786Y-60730018D01*
X78669208Y-60727088D01*
X78629626Y-60671826D01*
X78558461Y-60613526D01*
X78522781Y-60602553D01*
X78515725Y-60624809D01*
X78387878Y-60624809D01*
X78285799Y-60550418D01*
X78166263Y-60538927D01*
X78075444Y-60597674D01*
X78022604Y-60633323D01*
X77917032Y-60688850D01*
X77867626Y-60712478D01*
X77702214Y-60791289D01*
X77535451Y-60873423D01*
X77512113Y-60885218D01*
X77393864Y-60939901D01*
X77308113Y-60969991D01*
X77294011Y-60972008D01*
X77228860Y-60990067D01*
X77109814Y-61036723D01*
X77002979Y-61083638D01*
X76843336Y-61143381D01*
X76637573Y-61201969D01*
X76412401Y-61253886D01*
X76194533Y-61293612D01*
X76010680Y-61315631D01*
X75887554Y-61314425D01*
X75886567Y-61314249D01*
X75773295Y-61293529D01*
X75633161Y-61267652D01*
X75627808Y-61266659D01*
X75509170Y-61229869D01*
X75433472Y-61179724D01*
X75429240Y-61173606D01*
X75356005Y-61119742D01*
X75305783Y-61110553D01*
X75215235Y-61082066D01*
X75102871Y-61011829D01*
X75081703Y-60994808D01*
X74969660Y-60926673D01*
X74869461Y-60907691D01*
X74806335Y-60939442D01*
X74796535Y-60976948D01*
X74759249Y-61013962D01*
X74729988Y-61018189D01*
X74670317Y-61032323D01*
X74630352Y-61086013D01*
X74603625Y-61196195D01*
X74583670Y-61379804D01*
X74581458Y-61407130D01*
X74570982Y-61567892D01*
X74578276Y-61667176D01*
X74613542Y-61735560D01*
X74686982Y-61803619D01*
X74723547Y-61832985D01*
X74822648Y-61920825D01*
X74881682Y-61990084D01*
X74888897Y-62008571D01*
X74921449Y-62080545D01*
X74999386Y-62167427D01*
X75093133Y-62242963D01*
X75173117Y-62280901D01*
X75194382Y-62279764D01*
X75248990Y-62292073D01*
X75258353Y-62331529D01*
X75289161Y-62414503D01*
X75364090Y-62513408D01*
X75371708Y-62521198D01*
X75433825Y-62595017D01*
X75443032Y-62633130D01*
X75436836Y-62634553D01*
X75385588Y-62603372D01*
X75287622Y-62519632D01*
X75159522Y-62398032D01*
X75081027Y-62319108D01*
X74860777Y-62091832D01*
X74698472Y-61920556D01*
X74586350Y-61796368D01*
X74516647Y-61710355D01*
X74481602Y-61653605D01*
X74473262Y-61621338D01*
X74447297Y-61581348D01*
X74387395Y-61601053D01*
X74320543Y-61670728D01*
X74315747Y-61678101D01*
X74301281Y-61732412D01*
X74331056Y-61801715D01*
X74415169Y-61903550D01*
X74491086Y-61982660D01*
X74617370Y-62127533D01*
X74676143Y-62234512D01*
X74665045Y-62297186D01*
X74612088Y-62311280D01*
X74542760Y-62326416D01*
X74446455Y-62358875D01*
X74321271Y-62406470D01*
X74428408Y-62520511D01*
X74490422Y-62601787D01*
X74479472Y-62634168D01*
X74473192Y-62634553D01*
X74425661Y-62602793D01*
X74322779Y-62513158D01*
X74173458Y-62374118D01*
X73986609Y-62194143D01*
X73771144Y-61981702D01*
X73535974Y-61745264D01*
X73513522Y-61722462D01*
X72982302Y-61181042D01*
X72516507Y-60703190D01*
X72115356Y-60288071D01*
X71778068Y-59934852D01*
X71503859Y-59642697D01*
X71291949Y-59410774D01*
X71141556Y-59238247D01*
X71051897Y-59124283D01*
X71023802Y-59071096D01*
X71090974Y-59071096D01*
X71112653Y-59112117D01*
X71191709Y-59210730D01*
X71320728Y-59358697D01*
X71492299Y-59547782D01*
X71699009Y-59769747D01*
X71933444Y-60016355D01*
X72056596Y-60144109D01*
X72486872Y-60588087D01*
X72857783Y-60969840D01*
X73173891Y-61293811D01*
X73439760Y-61564442D01*
X73659952Y-61786174D01*
X73839030Y-61963449D01*
X73981555Y-62100710D01*
X74092090Y-62202398D01*
X74175199Y-62272955D01*
X74235443Y-62316822D01*
X74277386Y-62338442D01*
X74305589Y-62342257D01*
X74312560Y-62340403D01*
X74419275Y-62305427D01*
X74500643Y-62282986D01*
X74581314Y-62254806D01*
X74602031Y-62214667D01*
X74559372Y-62146717D01*
X74449914Y-62035104D01*
X74446381Y-62031703D01*
X74305858Y-61886543D01*
X74232984Y-61780291D01*
X74221018Y-61697108D01*
X74263220Y-61621155D01*
X74268921Y-61614711D01*
X74349342Y-61547244D01*
X74403672Y-61526189D01*
X74440414Y-61484149D01*
X74477549Y-61373719D01*
X74500424Y-61260644D01*
X74534434Y-61096662D01*
X74578503Y-61001269D01*
X74643786Y-60950696D01*
X74646444Y-60949511D01*
X74725667Y-60906347D01*
X74750330Y-60880238D01*
X74717990Y-60840488D01*
X74633201Y-60758971D01*
X74514275Y-60653285D01*
X74513494Y-60652612D01*
X74276680Y-60448671D01*
X73767179Y-60626145D01*
X73257678Y-60803618D01*
X72480016Y-60012186D01*
X72207201Y-59731736D01*
X71997675Y-59507655D01*
X71847836Y-59332622D01*
X71754080Y-59199316D01*
X71725653Y-59131206D01*
X71748535Y-59131206D01*
X71779330Y-59177991D01*
X71864427Y-59278559D01*
X71992891Y-59421528D01*
X72153789Y-59595511D01*
X72336185Y-59789126D01*
X72529147Y-59990986D01*
X72721739Y-60189708D01*
X72903029Y-60373908D01*
X73062081Y-60532201D01*
X73187962Y-60653202D01*
X73269737Y-60725527D01*
X73294740Y-60741098D01*
X73342485Y-60726450D01*
X73458437Y-60686811D01*
X73623958Y-60628637D01*
X73777073Y-60573980D01*
X73966923Y-60502227D01*
X74119392Y-60437820D01*
X74216533Y-60388775D01*
X74242353Y-60366162D01*
X74279838Y-60330029D01*
X74311626Y-60325462D01*
X74373070Y-60299665D01*
X74380898Y-60277655D01*
X74351178Y-60253614D01*
X74294607Y-60276031D01*
X74215570Y-60303460D01*
X74184501Y-60298398D01*
X74131896Y-60298104D01*
X74012673Y-60318140D01*
X73849303Y-60354470D01*
X73789734Y-60369295D01*
X73608157Y-60413431D01*
X73455112Y-60446599D01*
X73357290Y-60463131D01*
X73343654Y-60464008D01*
X73276485Y-60431755D01*
X73172131Y-60347134D01*
X73052997Y-60228346D01*
X73051167Y-60226348D01*
X72912697Y-60077366D01*
X72741726Y-59896842D01*
X72570664Y-59718941D01*
X72536397Y-59683711D01*
X72304038Y-59434406D01*
X72140576Y-59234039D01*
X72047791Y-59084970D01*
X72043634Y-59070164D01*
X72107326Y-59070164D01*
X72137698Y-59121928D01*
X72204788Y-59147168D01*
X72228588Y-59137287D01*
X72243231Y-59142565D01*
X72232899Y-59178776D01*
X72248757Y-59260953D01*
X72343593Y-59386797D01*
X72413872Y-59459620D01*
X72524768Y-59562504D01*
X72608838Y-59628554D01*
X72646038Y-59643474D01*
X72678419Y-59663274D01*
X72724037Y-59742221D01*
X72783356Y-59830098D01*
X72841220Y-59863644D01*
X72896703Y-59900499D01*
X72903080Y-59929565D01*
X72936659Y-60002341D01*
X73017513Y-60085496D01*
X73018535Y-60086302D01*
X73099258Y-60163788D01*
X73133963Y-60224844D01*
X73133989Y-60225905D01*
X73173727Y-60290916D01*
X73268602Y-60346130D01*
X73381385Y-60370240D01*
X73443278Y-60348278D01*
X73439641Y-60299973D01*
X73436413Y-60252300D01*
X73457791Y-60256516D01*
X73499965Y-60252350D01*
X73503444Y-60235824D01*
X73468020Y-60188819D01*
X73454537Y-60186917D01*
X73427877Y-60158215D01*
X73436117Y-60137586D01*
X73498903Y-60108306D01*
X73536535Y-60115091D01*
X73583432Y-60115536D01*
X73592001Y-60052485D01*
X73586209Y-60003912D01*
X73583540Y-59902942D01*
X73605424Y-59852746D01*
X73605740Y-59852636D01*
X73628802Y-59803515D01*
X73652400Y-59686494D01*
X73671758Y-59525884D01*
X73673220Y-59509042D01*
X73684580Y-59327547D01*
X73676496Y-59195810D01*
X73641036Y-59073163D01*
X73570266Y-58918939D01*
X73550336Y-58879052D01*
X73469499Y-58707332D01*
X73426762Y-58574250D01*
X73413248Y-58438919D01*
X73419153Y-58274792D01*
X73425730Y-58099726D01*
X73411288Y-58004779D01*
X73366391Y-57978434D01*
X73281604Y-58009176D01*
X73226353Y-58039462D01*
X73094432Y-58090586D01*
X72989553Y-58107098D01*
X72875669Y-58133350D01*
X72810717Y-58178008D01*
X72735831Y-58236503D01*
X72696703Y-58247280D01*
X72544011Y-58288326D01*
X72393914Y-58397297D01*
X72273069Y-58552945D01*
X72246100Y-58606478D01*
X72156495Y-58823463D01*
X72111137Y-58973745D01*
X72107326Y-59070164D01*
X72043634Y-59070164D01*
X72025626Y-59006043D01*
X72014961Y-58965158D01*
X71967326Y-58970889D01*
X71887080Y-59009280D01*
X71792959Y-59071418D01*
X71748971Y-59126987D01*
X71748535Y-59131206D01*
X71725653Y-59131206D01*
X71712802Y-59100418D01*
X71720398Y-59028608D01*
X71773265Y-58976564D01*
X71867799Y-58936967D01*
X71940702Y-58916718D01*
X72045158Y-58857898D01*
X72088703Y-58788022D01*
X72104990Y-58706258D01*
X72104048Y-58679763D01*
X72058348Y-58689555D01*
X71948037Y-58726514D01*
X71793902Y-58782609D01*
X71616727Y-58849811D01*
X71437297Y-58920093D01*
X71276398Y-58985424D01*
X71154815Y-59037776D01*
X71093333Y-59069120D01*
X71090974Y-59071096D01*
X71023802Y-59071096D01*
X71022191Y-59068047D01*
X71022699Y-59064913D01*
X71072816Y-59026202D01*
X71192511Y-58964957D01*
X71364258Y-58889365D01*
X71570530Y-58807612D01*
X71586281Y-58801693D01*
X71831860Y-58706112D01*
X72006019Y-58628116D01*
X72125745Y-58558559D01*
X72208029Y-58488290D01*
X72241227Y-58449000D01*
X72405478Y-58304671D01*
X72582814Y-58223191D01*
X72717089Y-58172480D01*
X72811347Y-58125551D01*
X72835990Y-58105204D01*
X72898974Y-58069682D01*
X72953897Y-58062553D01*
X73076962Y-58040967D01*
X73220514Y-57985989D01*
X73357391Y-57912292D01*
X73460432Y-57834548D01*
X73502472Y-57767429D01*
X73502505Y-57766220D01*
X73513058Y-57704335D01*
X73527039Y-57701300D01*
X73531667Y-57754981D01*
X73522525Y-57875690D01*
X73501593Y-58039447D01*
X73496209Y-58074975D01*
X73470229Y-58262504D01*
X73464622Y-58395547D01*
X73482094Y-58510279D01*
X73525353Y-58642873D01*
X73541999Y-58686936D01*
X73612849Y-58851321D01*
X73689075Y-58997064D01*
X73734466Y-59066095D01*
X73800071Y-59175775D01*
X73826717Y-59271348D01*
X73846500Y-59366515D01*
X73895578Y-59489488D01*
X73958544Y-59610114D01*
X74019991Y-59698238D01*
X74058564Y-59725098D01*
X74078726Y-59682203D01*
X74092806Y-59566255D01*
X74100870Y-59396358D01*
X74102983Y-59191619D01*
X74099210Y-58971142D01*
X74089616Y-58754034D01*
X74074268Y-58559400D01*
X74054062Y-58410781D01*
X74029320Y-58247955D01*
X74029952Y-58206870D01*
X74148745Y-58206870D01*
X74156448Y-58231971D01*
X74181986Y-58309321D01*
X74172976Y-58339813D01*
X74164141Y-58411650D01*
X74177160Y-58536557D01*
X74191043Y-58607381D01*
X74221737Y-58789830D01*
X74248705Y-59038792D01*
X74269850Y-59328435D01*
X74283075Y-59632923D01*
X74285998Y-59777162D01*
X74290717Y-59868418D01*
X74309001Y-59948185D01*
X74350692Y-60032876D01*
X74425633Y-60138907D01*
X74543664Y-60282692D01*
X74692626Y-60455368D01*
X74843275Y-60626878D01*
X74971993Y-60770285D01*
X75066918Y-60872608D01*
X75116189Y-60920862D01*
X75119808Y-60922947D01*
X75129565Y-60882659D01*
X75132240Y-60774496D01*
X75127898Y-60636708D01*
X75154553Y-60288948D01*
X75270997Y-59934983D01*
X75452674Y-59609648D01*
X75643896Y-59391459D01*
X75909460Y-59191932D01*
X76231614Y-59022702D01*
X76501641Y-58922052D01*
X76711006Y-58862993D01*
X76916647Y-58815893D01*
X77101608Y-58783205D01*
X77248933Y-58767385D01*
X77341667Y-58770886D01*
X77362853Y-58796164D01*
X77362079Y-58797492D01*
X77298755Y-58831652D01*
X77186166Y-58847506D01*
X77174446Y-58847644D01*
X76892116Y-58877538D01*
X76573847Y-58959288D01*
X76250532Y-59080996D01*
X75953063Y-59230765D01*
X75712332Y-59396698D01*
X75683448Y-59421865D01*
X75514137Y-59621972D01*
X75368675Y-59898596D01*
X75358091Y-59923744D01*
X75245825Y-60244240D01*
X75188748Y-60525261D01*
X75186819Y-60758366D01*
X75239990Y-60935116D01*
X75348219Y-61047071D01*
X75364058Y-61055346D01*
X75453041Y-61112658D01*
X75489262Y-61164196D01*
X75522020Y-61195707D01*
X75546989Y-61191158D01*
X75634420Y-61189174D01*
X75697080Y-61206062D01*
X75781819Y-61236975D01*
X75813603Y-61245853D01*
X75824658Y-61204198D01*
X75835933Y-61088884D01*
X75845969Y-60918599D01*
X75852200Y-60752644D01*
X75859757Y-60548559D01*
X75869012Y-60381401D01*
X75878670Y-60271007D01*
X75885767Y-60236947D01*
X75893339Y-60272105D01*
X75899495Y-60382109D01*
X75903567Y-60549447D01*
X75904898Y-60738541D01*
X75904898Y-61259378D01*
X76078080Y-61229632D01*
X76471354Y-61150552D01*
X76812950Y-61054823D01*
X77013262Y-60983698D01*
X77232189Y-60898307D01*
X77378248Y-60835876D01*
X77465628Y-60788509D01*
X77508519Y-60748308D01*
X77521110Y-60707376D01*
X77521262Y-60700967D01*
X77514911Y-60678924D01*
X77597181Y-60678924D01*
X77629730Y-60694867D01*
X77633271Y-60694917D01*
X77659489Y-60675386D01*
X77754403Y-60675386D01*
X77787777Y-60678196D01*
X77792779Y-60675271D01*
X77835172Y-60614638D01*
X77859754Y-60545545D01*
X77875123Y-60473367D01*
X77855612Y-60483081D01*
X77819147Y-60530561D01*
X77766210Y-60618760D01*
X77754403Y-60675386D01*
X77659489Y-60675386D01*
X77686376Y-60655357D01*
X77748242Y-60554753D01*
X77778110Y-60486069D01*
X77788846Y-60452462D01*
X77940144Y-60452462D01*
X77945757Y-60534608D01*
X77962132Y-60531706D01*
X77983080Y-60487098D01*
X77986778Y-60477245D01*
X78406161Y-60477245D01*
X78417398Y-60503054D01*
X78463898Y-60552632D01*
X78490631Y-60542462D01*
X78491080Y-60536006D01*
X78458278Y-60496944D01*
X78437763Y-60482688D01*
X78406161Y-60477245D01*
X77986778Y-60477245D01*
X78012598Y-60408461D01*
X78698898Y-60408461D01*
X78929808Y-60620012D01*
X79059546Y-60737987D01*
X79135720Y-60803719D01*
X79172331Y-60827937D01*
X79183382Y-60821373D01*
X79183808Y-60814672D01*
X79150569Y-60778648D01*
X79063432Y-60702279D01*
X78941353Y-60602171D01*
X78698898Y-60408461D01*
X78012598Y-60408461D01*
X78016652Y-60397662D01*
X78018984Y-60388305D01*
X78312569Y-60388305D01*
X78359663Y-60360466D01*
X78413241Y-60312266D01*
X78481894Y-60231717D01*
X78502698Y-60175754D01*
X78501923Y-60173824D01*
X78465132Y-60179897D01*
X78400412Y-60243653D01*
X78395035Y-60250381D01*
X78323915Y-60350102D01*
X78312569Y-60388305D01*
X78018984Y-60388305D01*
X78026016Y-60360098D01*
X77994163Y-60326495D01*
X77983080Y-60325462D01*
X77950611Y-60365223D01*
X77940144Y-60452462D01*
X77788846Y-60452462D01*
X77818831Y-60358608D01*
X77832930Y-60268682D01*
X77827342Y-60246693D01*
X77782118Y-60240970D01*
X77726951Y-60311642D01*
X77657209Y-60465078D01*
X77644035Y-60498644D01*
X77601575Y-60620351D01*
X77597181Y-60678924D01*
X77514911Y-60678924D01*
X77508385Y-60656277D01*
X77465844Y-60685680D01*
X77374242Y-60733464D01*
X77321915Y-60741098D01*
X77261490Y-60712343D01*
X77259581Y-60676584D01*
X77296252Y-60676584D01*
X77313573Y-60693384D01*
X77334316Y-60694917D01*
X77383220Y-60659693D01*
X77451728Y-60579462D01*
X77521262Y-60579462D01*
X77544353Y-60602553D01*
X77567444Y-60579462D01*
X77544353Y-60556371D01*
X77521262Y-60579462D01*
X77451728Y-60579462D01*
X77460139Y-60569612D01*
X77511184Y-60498644D01*
X77611060Y-60349311D01*
X77665683Y-60257125D01*
X77681896Y-60202962D01*
X77666543Y-60167701D01*
X77638688Y-60142371D01*
X77596231Y-60126083D01*
X77550206Y-60160047D01*
X77488599Y-60257268D01*
X77431379Y-60366731D01*
X77350250Y-60529841D01*
X77306843Y-60627597D01*
X77296252Y-60676584D01*
X77259581Y-60676584D01*
X77256672Y-60622108D01*
X77307325Y-60464438D01*
X77315144Y-60445432D01*
X77329958Y-60395896D01*
X77302572Y-60398517D01*
X77218829Y-60455932D01*
X77205311Y-60465897D01*
X77097581Y-60532858D01*
X77029754Y-60537910D01*
X77004961Y-60520361D01*
X76982815Y-60443800D01*
X77059562Y-60443800D01*
X77096010Y-60464008D01*
X77145081Y-60433414D01*
X77236538Y-60353704D01*
X77336347Y-60256381D01*
X77447375Y-60136065D01*
X77497216Y-60058770D01*
X77495061Y-60007701D01*
X77481679Y-59990835D01*
X77435434Y-59970348D01*
X77371838Y-60001233D01*
X77273699Y-60093259D01*
X77241343Y-60127401D01*
X77131465Y-60261125D01*
X77068719Y-60371577D01*
X77059562Y-60443800D01*
X76982815Y-60443800D01*
X76979278Y-60431575D01*
X77033044Y-60296460D01*
X77166066Y-60115462D01*
X77195050Y-60081865D01*
X77337816Y-59919264D01*
X77174843Y-59956020D01*
X77036934Y-59969705D01*
X76934622Y-59929212D01*
X76914605Y-59914016D01*
X76849233Y-59851528D01*
X76851482Y-59829297D01*
X76925677Y-59829297D01*
X76939374Y-59856176D01*
X76993521Y-59873170D01*
X77101803Y-59877618D01*
X77227072Y-59871057D01*
X77332180Y-59855024D01*
X77374913Y-59838154D01*
X77367931Y-59793261D01*
X77338677Y-59729102D01*
X77299203Y-59669829D01*
X77249096Y-59657289D01*
X77156153Y-59687753D01*
X77117944Y-59703532D01*
X76991406Y-59758874D01*
X76933215Y-59795754D01*
X76925677Y-59829297D01*
X76851482Y-59829297D01*
X76854153Y-59802903D01*
X76895508Y-59757086D01*
X76942051Y-59696329D01*
X76914119Y-59675786D01*
X76912652Y-59675700D01*
X76915802Y-59662296D01*
X76990096Y-59631440D01*
X77065311Y-59606685D01*
X77129533Y-59574671D01*
X77360640Y-59574671D01*
X77366155Y-59650951D01*
X77396942Y-59734094D01*
X77499845Y-59903467D01*
X77649887Y-60058221D01*
X77823226Y-60180851D01*
X77996018Y-60253849D01*
X78119437Y-60264545D01*
X78183940Y-60225012D01*
X78275643Y-60133461D01*
X78333917Y-60062519D01*
X78419866Y-59958625D01*
X78483152Y-59898249D01*
X78503582Y-59891540D01*
X78535809Y-59876191D01*
X78553198Y-59842545D01*
X78549914Y-59780429D01*
X78524267Y-59768353D01*
X78516132Y-59752723D01*
X78569963Y-59724375D01*
X78670526Y-59647804D01*
X78790183Y-59499108D01*
X78836775Y-59424917D01*
X80753989Y-59424917D01*
X80777080Y-59448008D01*
X80800171Y-59424917D01*
X80777080Y-59401826D01*
X80753989Y-59424917D01*
X78836775Y-59424917D01*
X78894779Y-59332553D01*
X80800171Y-59332553D01*
X80823262Y-59355644D01*
X80846353Y-59332553D01*
X80823262Y-59309462D01*
X80800171Y-59332553D01*
X78894779Y-59332553D01*
X78919072Y-59293871D01*
X79047328Y-59047674D01*
X79156534Y-58797767D01*
X79288880Y-58470458D01*
X79394236Y-58222011D01*
X79476354Y-58044189D01*
X79506579Y-57988485D01*
X79619684Y-57988485D01*
X79669026Y-58059436D01*
X79742712Y-58138073D01*
X79891090Y-58274010D01*
X80052762Y-58377507D01*
X80256293Y-58464226D01*
X80452660Y-58527404D01*
X80650335Y-58581633D01*
X80795295Y-58603101D01*
X80922212Y-58588959D01*
X81065758Y-58536359D01*
X81215808Y-58464703D01*
X81405095Y-58358973D01*
X81526327Y-58258425D01*
X81595431Y-58157143D01*
X81642154Y-58051526D01*
X81659312Y-57987028D01*
X81657450Y-57980801D01*
X81609403Y-57988048D01*
X81514288Y-58028585D01*
X81497366Y-58037152D01*
X81403091Y-58074362D01*
X81289392Y-58090736D01*
X81129870Y-58088234D01*
X80973528Y-58076000D01*
X80792510Y-58059764D01*
X80646637Y-58047329D01*
X80560571Y-58040777D01*
X80550020Y-58040268D01*
X80511504Y-58079478D01*
X80462907Y-58179576D01*
X80441300Y-58238621D01*
X80389384Y-58369625D01*
X80356048Y-58411742D01*
X80348762Y-58367063D01*
X80374998Y-58237680D01*
X80379437Y-58221308D01*
X80409113Y-58084435D01*
X80391975Y-58007690D01*
X80314268Y-57964961D01*
X80233914Y-57945016D01*
X80090917Y-57901474D01*
X79934599Y-57836607D01*
X79912430Y-57825712D01*
X79740507Y-57738687D01*
X79663152Y-57856746D01*
X79620558Y-57930935D01*
X79619684Y-57988485D01*
X79506579Y-57988485D01*
X79538988Y-57928758D01*
X79575744Y-57877826D01*
X79612908Y-57813015D01*
X79674683Y-57681055D01*
X79753154Y-57501243D01*
X79840407Y-57292879D01*
X79928528Y-57075259D01*
X80009605Y-56867684D01*
X80075722Y-56689450D01*
X80118967Y-56559857D01*
X80124953Y-56538553D01*
X80171566Y-56445762D01*
X80263267Y-56317219D01*
X80369961Y-56192189D01*
X80474915Y-56083688D01*
X80522531Y-56046054D01*
X80513834Y-56078569D01*
X80501639Y-56099826D01*
X80409516Y-56236332D01*
X80316230Y-56353826D01*
X80260426Y-56440828D01*
X80188502Y-56584644D01*
X80111928Y-56757860D01*
X80042174Y-56933062D01*
X79990710Y-57082834D01*
X79969007Y-57179763D01*
X79968898Y-57183974D01*
X80011627Y-57253508D01*
X80126561Y-57322373D01*
X80293824Y-57382694D01*
X80493541Y-57426594D01*
X80619202Y-57441657D01*
X80802594Y-57462051D01*
X80961220Y-57489473D01*
X81062298Y-57518189D01*
X81065717Y-57519779D01*
X81152252Y-57591011D01*
X81162008Y-57670191D01*
X81115596Y-57721040D01*
X81081054Y-57723296D01*
X81091623Y-57676105D01*
X81079927Y-57601196D01*
X80983780Y-57547334D01*
X80809133Y-57516630D01*
X80623983Y-57510105D01*
X80361444Y-57511839D01*
X80546171Y-57675390D01*
X80635144Y-57759639D01*
X80656968Y-57793576D01*
X80619211Y-57781188D01*
X80529444Y-57726461D01*
X80395234Y-57633380D01*
X80224151Y-57505932D01*
X80223642Y-57505542D01*
X79919959Y-57272782D01*
X79849193Y-57442149D01*
X79809256Y-57565652D01*
X79799005Y-57659403D01*
X79802103Y-57673216D01*
X79859605Y-57719593D01*
X79988962Y-57775946D01*
X80170979Y-57836745D01*
X80386459Y-57896458D01*
X80616207Y-57949554D01*
X80841025Y-57990501D01*
X80957008Y-58005996D01*
X81147714Y-58024435D01*
X81279190Y-58025569D01*
X81383567Y-58005660D01*
X81492974Y-57960973D01*
X81539432Y-57938274D01*
X81607165Y-57900917D01*
X81723808Y-57900917D01*
X81746898Y-57924008D01*
X81769989Y-57900917D01*
X81746898Y-57877826D01*
X81723808Y-57900917D01*
X81607165Y-57900917D01*
X81645577Y-57879732D01*
X81725375Y-57814662D01*
X81795376Y-57722276D01*
X81872132Y-57581785D01*
X81946784Y-57426608D01*
X82136368Y-57023462D01*
X82134660Y-57254371D01*
X82128505Y-57377942D01*
X82113480Y-57420146D01*
X82099653Y-57400742D01*
X82073546Y-57366559D01*
X82038385Y-57396713D01*
X81984491Y-57501344D01*
X81967418Y-57539288D01*
X81903328Y-57697814D01*
X81853333Y-57846099D01*
X81839080Y-57900917D01*
X81809677Y-58039462D01*
X81997354Y-57857198D01*
X82185032Y-57674933D01*
X82182518Y-57050207D01*
X82180610Y-56796535D01*
X82175004Y-56614181D01*
X82162297Y-56482099D01*
X82139090Y-56379244D01*
X82101979Y-56284570D01*
X82047565Y-56177032D01*
X82038702Y-56160371D01*
X81958141Y-56026724D01*
X81830703Y-55836149D01*
X81667531Y-55603579D01*
X81479770Y-55343951D01*
X81278565Y-55072199D01*
X81075060Y-54803259D01*
X80880398Y-54552066D01*
X80705724Y-54333555D01*
X80562183Y-54162662D01*
X80485030Y-54078169D01*
X80255208Y-53873641D01*
X80040386Y-53751926D01*
X79828501Y-53707527D01*
X79691808Y-53716662D01*
X79492945Y-53762187D01*
X79348372Y-53835690D01*
X79226113Y-53958586D01*
X79133289Y-54090700D01*
X79051494Y-54213307D01*
X78991095Y-54297112D01*
X78968212Y-54321826D01*
X78952777Y-54288204D01*
X78992361Y-54194486D01*
X79066961Y-54074270D01*
X79135053Y-53959695D01*
X79140532Y-53910421D01*
X79083915Y-53927944D01*
X79029096Y-53964688D01*
X78966826Y-54062157D01*
X78932349Y-54237497D01*
X78931002Y-54253324D01*
X78902683Y-54444114D01*
X78854044Y-54639817D01*
X78836835Y-54691280D01*
X78795442Y-54855762D01*
X78765852Y-55094396D01*
X78747198Y-55414920D01*
X78743758Y-55522553D01*
X78733453Y-55780073D01*
X78717709Y-56029096D01*
X78698608Y-56242316D01*
X78678236Y-56392429D01*
X78676789Y-56400008D01*
X78642320Y-56589022D01*
X78605458Y-56812033D01*
X78582236Y-56965540D01*
X78539919Y-57173245D01*
X78483771Y-57318881D01*
X78452119Y-57362605D01*
X78390967Y-57461701D01*
X78343322Y-57603956D01*
X78334527Y-57648624D01*
X78286185Y-57808685D01*
X78199962Y-57984430D01*
X78151362Y-58059741D01*
X78014215Y-58261374D01*
X77882732Y-58473164D01*
X77767097Y-58676617D01*
X77677490Y-58853242D01*
X77624094Y-58984546D01*
X77613626Y-59036386D01*
X77589347Y-59132060D01*
X77527005Y-59266720D01*
X77472806Y-59359187D01*
X77393957Y-59488456D01*
X77360640Y-59574671D01*
X77129533Y-59574671D01*
X77251743Y-59513751D01*
X77409501Y-59370517D01*
X77516118Y-59201790D01*
X77549069Y-59072527D01*
X77566232Y-58960531D01*
X77588423Y-58897242D01*
X77589385Y-58852201D01*
X77572938Y-58847644D01*
X77528168Y-58816062D01*
X77429442Y-58727821D01*
X77286991Y-58592681D01*
X77111043Y-58420401D01*
X76911829Y-58220740D01*
X76850476Y-58158407D01*
X76220330Y-57516228D01*
X76307004Y-57516228D01*
X76755426Y-57966339D01*
X77203849Y-58416451D01*
X77574058Y-58309223D01*
X77750563Y-58256325D01*
X77894141Y-58210019D01*
X77980485Y-58178253D01*
X77991695Y-58172683D01*
X78007199Y-58130488D01*
X77980653Y-58107235D01*
X77929787Y-58063891D01*
X77825817Y-57966662D01*
X77680801Y-57827120D01*
X77506800Y-57656840D01*
X77363813Y-57515207D01*
X76805444Y-56959316D01*
X76307004Y-57516228D01*
X76220330Y-57516228D01*
X76174153Y-57469170D01*
X75831316Y-57692976D01*
X75657552Y-57798712D01*
X75486965Y-57882594D01*
X75300126Y-57950734D01*
X75077605Y-58009243D01*
X74799973Y-58064232D01*
X74487290Y-58115707D01*
X74298207Y-58148600D01*
X74189304Y-58177601D01*
X74148745Y-58206870D01*
X74029952Y-58206870D01*
X74030771Y-58153737D01*
X74058885Y-58108023D01*
X74061210Y-58106519D01*
X74127987Y-58085532D01*
X74264945Y-58055822D01*
X74450821Y-58021661D01*
X74624037Y-57993447D01*
X74863284Y-57951955D01*
X75099264Y-57903096D01*
X75298444Y-57854176D01*
X75390434Y-57826445D01*
X75535750Y-57766394D01*
X75700401Y-57682789D01*
X75863550Y-57588387D01*
X76004364Y-57495945D01*
X76102005Y-57418220D01*
X76135808Y-57370083D01*
X76099888Y-57303921D01*
X76008623Y-57211060D01*
X75886754Y-57110812D01*
X75759022Y-57022493D01*
X75650168Y-56965416D01*
X75603047Y-56954189D01*
X75449122Y-56969866D01*
X75234839Y-57012901D01*
X74979168Y-57077304D01*
X74701082Y-57157087D01*
X74419552Y-57246257D01*
X74153551Y-57338826D01*
X73922051Y-57428802D01*
X73744023Y-57510196D01*
X73642898Y-57573090D01*
X73567817Y-57614240D01*
X73445843Y-57658921D01*
X73299543Y-57701708D01*
X73151485Y-57737174D01*
X73024237Y-57759894D01*
X72940364Y-57764441D01*
X72921720Y-57746482D01*
X72896483Y-57705023D01*
X72813127Y-57605503D01*
X72678598Y-57455420D01*
X72499842Y-57262269D01*
X72283804Y-57033548D01*
X72037430Y-56776751D01*
X71767665Y-56499377D01*
X71741858Y-56473030D01*
X71470330Y-56194911D01*
X71221234Y-55937701D01*
X71001534Y-55708750D01*
X70818193Y-55515406D01*
X70678177Y-55365020D01*
X70588450Y-55264941D01*
X70555976Y-55222519D01*
X70556134Y-55221742D01*
X70592121Y-55248703D01*
X70685847Y-55334373D01*
X70830124Y-55471770D01*
X71017766Y-55653907D01*
X71241587Y-55873802D01*
X71494399Y-56124469D01*
X71769015Y-56398925D01*
X71817068Y-56447161D01*
X72186017Y-56815403D01*
X72493624Y-57117262D01*
X72741339Y-57354087D01*
X72930614Y-57527230D01*
X73062900Y-57638042D01*
X73139648Y-57687873D01*
X73153464Y-57691163D01*
X73257973Y-57668487D01*
X73387180Y-57615547D01*
X73403587Y-57607063D01*
X73557731Y-57524899D01*
X72110496Y-56055663D01*
X71808117Y-55747910D01*
X71524434Y-55457689D01*
X71266340Y-55192163D01*
X71040728Y-54958489D01*
X70854490Y-54763827D01*
X70714519Y-54615337D01*
X70627707Y-54520178D01*
X70602024Y-54488763D01*
X70620828Y-54500802D01*
X70698333Y-54572939D01*
X70828607Y-54699293D01*
X71005720Y-54873980D01*
X71223740Y-55091116D01*
X71476737Y-55344818D01*
X71758778Y-55629203D01*
X72063933Y-55938387D01*
X72085491Y-55960283D01*
X72454277Y-56334050D01*
X72763969Y-56645820D01*
X73019457Y-56900206D01*
X73225634Y-57101821D01*
X73387392Y-57255277D01*
X73509623Y-57365187D01*
X73597218Y-57436163D01*
X73655069Y-57472818D01*
X73688068Y-57479765D01*
X73693820Y-57476772D01*
X73783474Y-57424388D01*
X73937301Y-57355238D01*
X74130847Y-57278545D01*
X74339653Y-57203536D01*
X74539264Y-57139433D01*
X74704171Y-57095693D01*
X74807508Y-57069595D01*
X74896141Y-57034557D01*
X74985231Y-56979225D01*
X75089938Y-56892246D01*
X75225420Y-56762266D01*
X75406840Y-56577933D01*
X75437115Y-56546784D01*
X75601874Y-56378511D01*
X75704295Y-56277245D01*
X75745023Y-56242438D01*
X75724708Y-56273543D01*
X75643998Y-56370012D01*
X75638066Y-56376917D01*
X75498947Y-56535663D01*
X75367722Y-56680175D01*
X75266101Y-56786719D01*
X75239940Y-56812149D01*
X75145753Y-56911724D01*
X75129813Y-56963461D01*
X75192520Y-56969230D01*
X75269594Y-56950966D01*
X75518271Y-56906063D01*
X75723210Y-56932157D01*
X75903219Y-57032280D01*
X75934081Y-57058097D01*
X76054432Y-57176002D01*
X76155075Y-57295140D01*
X76181242Y-57333517D01*
X76257460Y-57458848D01*
X76522632Y-57190880D01*
X76787803Y-56922912D01*
X76639565Y-56684448D01*
X76491328Y-56445983D01*
X76572548Y-56265868D01*
X76676195Y-56094740D01*
X76821900Y-55925641D01*
X76957886Y-55807825D01*
X77847853Y-55807825D01*
X77881423Y-55839751D01*
X77890717Y-55845826D01*
X77975330Y-55886621D01*
X78015716Y-55879841D01*
X78006171Y-55845826D01*
X77940265Y-55805643D01*
X77899537Y-55800351D01*
X77847853Y-55807825D01*
X76957886Y-55807825D01*
X76981830Y-55787081D01*
X77112238Y-55713049D01*
X77245424Y-55691961D01*
X77432870Y-55714279D01*
X77496759Y-55728146D01*
X77703729Y-55764263D01*
X77846053Y-55763201D01*
X77916096Y-55725938D01*
X77916419Y-55674343D01*
X77898648Y-55583550D01*
X77895688Y-55535480D01*
X77983080Y-55535480D01*
X78010163Y-55676868D01*
X78098121Y-55820775D01*
X78257016Y-55981914D01*
X78332111Y-56045816D01*
X78489526Y-56164809D01*
X78596631Y-56222318D01*
X78642779Y-56220599D01*
X78659502Y-56160232D01*
X78674246Y-56025904D01*
X78685634Y-55836015D01*
X78692289Y-55608967D01*
X78693045Y-55549176D01*
X78692783Y-55320609D01*
X78687998Y-55129339D01*
X78679460Y-54992137D01*
X78667940Y-54925778D01*
X78664262Y-54922177D01*
X78644450Y-54963860D01*
X78630708Y-55070910D01*
X78626975Y-55164644D01*
X78620739Y-55363920D01*
X78607854Y-55554245D01*
X78590633Y-55712114D01*
X78571386Y-55814025D01*
X78560804Y-55837678D01*
X78510219Y-55838075D01*
X78451174Y-55770710D01*
X78398202Y-55657276D01*
X78371112Y-55554531D01*
X78348245Y-55436288D01*
X78330880Y-55400265D01*
X78308321Y-55437749D01*
X78289314Y-55487917D01*
X78233697Y-55590214D01*
X78164638Y-55605174D01*
X78067535Y-55538486D01*
X78004971Y-55488715D01*
X77984562Y-55503928D01*
X77983080Y-55535480D01*
X77895688Y-55535480D01*
X77890742Y-55455183D01*
X77890717Y-55448054D01*
X77871176Y-55319955D01*
X77809898Y-55263346D01*
X77701502Y-55225568D01*
X77622963Y-55195507D01*
X77516847Y-55153067D01*
X77654771Y-54952601D01*
X77733690Y-54830731D01*
X77764087Y-54750759D01*
X77753100Y-54680876D01*
X77727802Y-54627055D01*
X77648993Y-54495385D01*
X77568995Y-54382581D01*
X77486699Y-54233937D01*
X77491586Y-54109743D01*
X77515925Y-54074858D01*
X77630489Y-54074858D01*
X77663959Y-54083546D01*
X77705989Y-54086267D01*
X77824539Y-54108587D01*
X77890717Y-54137098D01*
X77979836Y-54178843D01*
X78028061Y-54148940D01*
X78040752Y-54114008D01*
X78121626Y-54114008D01*
X78135255Y-54200830D01*
X78161403Y-54229462D01*
X78183624Y-54191039D01*
X78179111Y-54114008D01*
X78177303Y-54107070D01*
X78219202Y-54107070D01*
X78311205Y-54236276D01*
X78383645Y-54330493D01*
X78480951Y-54447858D01*
X78584672Y-54567350D01*
X78676362Y-54667953D01*
X78737573Y-54728646D01*
X78751099Y-54737462D01*
X78739105Y-54702396D01*
X78692228Y-54614675D01*
X78670697Y-54577536D01*
X78624632Y-54470921D01*
X78576176Y-54313914D01*
X78530793Y-54131884D01*
X78493944Y-53950202D01*
X78471094Y-53794237D01*
X78467705Y-53689359D01*
X78474236Y-53665173D01*
X78474194Y-53629985D01*
X78468590Y-53629098D01*
X78435695Y-53667438D01*
X78379622Y-53766567D01*
X78329926Y-53868084D01*
X78219202Y-54107070D01*
X78177303Y-54107070D01*
X78156554Y-54027480D01*
X78139333Y-53998553D01*
X78126006Y-54038196D01*
X78121626Y-54114008D01*
X78040752Y-54114008D01*
X78044948Y-54102462D01*
X78071492Y-53996633D01*
X78096029Y-53891032D01*
X78118427Y-53790735D01*
X78260171Y-53790735D01*
X78283262Y-53813826D01*
X78306353Y-53790735D01*
X78283262Y-53767644D01*
X78260171Y-53790735D01*
X78118427Y-53790735D01*
X78125198Y-53760420D01*
X77950230Y-53898538D01*
X77826326Y-53985998D01*
X77716759Y-54046363D01*
X77682898Y-54058429D01*
X77630489Y-54074858D01*
X77515925Y-54074858D01*
X77530498Y-54053971D01*
X77556972Y-54008181D01*
X77542044Y-53999563D01*
X77487004Y-54036306D01*
X77396311Y-54132691D01*
X77283541Y-54270209D01*
X77162269Y-54430352D01*
X77046070Y-54594609D01*
X76948521Y-54744473D01*
X76883197Y-54861434D01*
X76863317Y-54924938D01*
X76852312Y-54997087D01*
X76818132Y-55003388D01*
X76735343Y-55021437D01*
X76630755Y-55125004D01*
X76503287Y-55314735D01*
X76411008Y-55448560D01*
X76313838Y-55559867D01*
X76286101Y-55584646D01*
X76196334Y-55681256D01*
X76106551Y-55814851D01*
X76087399Y-55850191D01*
X76022325Y-55959949D01*
X75966852Y-56023887D01*
X75951704Y-56030553D01*
X75951204Y-55997385D01*
X75993466Y-55911876D01*
X76065096Y-55795017D01*
X76152700Y-55667798D01*
X76242886Y-55551211D01*
X76294723Y-55492955D01*
X76377762Y-55389658D01*
X76469257Y-55251631D01*
X76495496Y-55206783D01*
X76600765Y-55019483D01*
X76504360Y-54967889D01*
X76414575Y-54894300D01*
X76323194Y-54783011D01*
X76314079Y-54769151D01*
X76220201Y-54622008D01*
X76251410Y-54806735D01*
X76284349Y-54941649D01*
X76326554Y-55042766D01*
X76336213Y-55056699D01*
X76364850Y-55103915D01*
X76321715Y-55099705D01*
X76320535Y-55099321D01*
X76223166Y-55026073D01*
X76129003Y-54883167D01*
X76097333Y-54806735D01*
X76135808Y-54806735D01*
X76158898Y-54829826D01*
X76181989Y-54806735D01*
X76158898Y-54783644D01*
X76135808Y-54806735D01*
X76097333Y-54806735D01*
X76050156Y-54692879D01*
X76006158Y-54521045D01*
X75975868Y-54314728D01*
X75948361Y-54043205D01*
X75924459Y-53726282D01*
X75904980Y-53383766D01*
X75890746Y-53035465D01*
X75882576Y-52701186D01*
X75881290Y-52400734D01*
X75882501Y-52354153D01*
X75957795Y-52354153D01*
X75958019Y-52556287D01*
X75961891Y-52794040D01*
X75969086Y-53056095D01*
X75979275Y-53331133D01*
X75992134Y-53607835D01*
X76007337Y-53874883D01*
X76024555Y-54120959D01*
X76043464Y-54334743D01*
X76063736Y-54504918D01*
X76069535Y-54542736D01*
X76095325Y-54677646D01*
X76113450Y-54728513D01*
X76123274Y-54703387D01*
X76124159Y-54610322D01*
X76115469Y-54457369D01*
X76096566Y-54252580D01*
X76094219Y-54230755D01*
X76080813Y-54072597D01*
X76736344Y-54072597D01*
X76741649Y-54204759D01*
X76755666Y-54362361D01*
X76774955Y-54519232D01*
X76796080Y-54649202D01*
X76815601Y-54726100D01*
X76823568Y-54736476D01*
X76864361Y-54701498D01*
X76936249Y-54613767D01*
X76978626Y-54555915D01*
X77062862Y-54433694D01*
X77096484Y-54365960D01*
X77082581Y-54332056D01*
X77024248Y-54311328D01*
X77015581Y-54309051D01*
X76933803Y-54255911D01*
X76846730Y-54154747D01*
X76831027Y-54130483D01*
X76770962Y-54039791D01*
X76742935Y-54024568D01*
X76736344Y-54072597D01*
X76080813Y-54072597D01*
X76075451Y-54009342D01*
X76063278Y-53795719D01*
X76951343Y-53795719D01*
X76970842Y-53894644D01*
X76997270Y-54017635D01*
X77011467Y-54101462D01*
X77012160Y-54110512D01*
X77041475Y-54111363D01*
X77112552Y-54059336D01*
X77131903Y-54041742D01*
X77250543Y-53930285D01*
X77120357Y-53826103D01*
X77010964Y-53745887D01*
X76958063Y-53734184D01*
X76951343Y-53795719D01*
X76063278Y-53795719D01*
X76059412Y-53727877D01*
X76047548Y-53418661D01*
X76041309Y-53113997D01*
X76040782Y-53038469D01*
X76037423Y-52772819D01*
X76029946Y-52525354D01*
X76019311Y-52317431D01*
X76006477Y-52170405D01*
X75999911Y-52128189D01*
X75982278Y-52074658D01*
X75969598Y-52102020D01*
X75961546Y-52198958D01*
X75957795Y-52354153D01*
X75882501Y-52354153D01*
X75887709Y-52153917D01*
X75901343Y-51989644D01*
X75933187Y-51796938D01*
X75973910Y-51603142D01*
X76018299Y-51427392D01*
X76061144Y-51288825D01*
X76097233Y-51206576D01*
X76117915Y-51194357D01*
X76115282Y-51245067D01*
X76086847Y-51351538D01*
X76067028Y-51410974D01*
X76023076Y-51576596D01*
X76000971Y-51741160D01*
X76000301Y-51776087D01*
X76003707Y-51863306D01*
X76013359Y-51880901D01*
X76034934Y-51822109D01*
X76070949Y-51691935D01*
X76112733Y-51549778D01*
X76149425Y-51447545D01*
X76167092Y-51414844D01*
X76177483Y-51432536D01*
X76162747Y-51504735D01*
X76121643Y-51709514D01*
X76102343Y-51937789D01*
X76105402Y-52156343D01*
X76131375Y-52331959D01*
X76148069Y-52382189D01*
X76181289Y-52456493D01*
X76200022Y-52478733D01*
X76206403Y-52438500D01*
X76202569Y-52325385D01*
X76192855Y-52163877D01*
X76185870Y-51932763D01*
X76197241Y-51794771D01*
X76258641Y-51794771D01*
X76268075Y-51944086D01*
X76311960Y-52132368D01*
X76384085Y-52339309D01*
X76478239Y-52544600D01*
X76588211Y-52727932D01*
X76613376Y-52762593D01*
X76728525Y-52968927D01*
X76805659Y-53212958D01*
X76828277Y-53405854D01*
X76870511Y-53526472D01*
X76984375Y-53654802D01*
X77151317Y-53778592D01*
X77352786Y-53885591D01*
X77570232Y-53963548D01*
X77718567Y-53993826D01*
X77768912Y-53967381D01*
X77863386Y-53893934D01*
X77958786Y-53810004D01*
X78092895Y-53698196D01*
X78189321Y-53649664D01*
X78258869Y-53651776D01*
X78328388Y-53656169D01*
X78381720Y-53603310D01*
X78425612Y-53511661D01*
X78465120Y-53385526D01*
X78473701Y-53286704D01*
X78470065Y-53271490D01*
X78473426Y-53179164D01*
X78496263Y-53137945D01*
X78525211Y-53046019D01*
X78521476Y-52910448D01*
X78489914Y-52771978D01*
X78441478Y-52678250D01*
X78363117Y-52621873D01*
X78291664Y-52622957D01*
X78260173Y-52680911D01*
X78260171Y-52681491D01*
X78220799Y-52742983D01*
X78146254Y-52778476D01*
X78026435Y-52768189D01*
X77916020Y-52720856D01*
X78044656Y-52720856D01*
X78050995Y-52748311D01*
X78075444Y-52751644D01*
X78113457Y-52734747D01*
X78106232Y-52720856D01*
X78051425Y-52715329D01*
X78044656Y-52720856D01*
X77916020Y-52720856D01*
X77864083Y-52698592D01*
X77675291Y-52581745D01*
X77476155Y-52429708D01*
X77282769Y-52254543D01*
X77111227Y-52068310D01*
X77001134Y-51920371D01*
X76864962Y-51712553D01*
X76891692Y-51874189D01*
X76916849Y-52029671D01*
X76944393Y-52204497D01*
X76948936Y-52233864D01*
X76991086Y-52387381D01*
X77069531Y-52481329D01*
X77100265Y-52501097D01*
X77174261Y-52546102D01*
X77169592Y-52554948D01*
X77117171Y-52542401D01*
X77040802Y-52527254D01*
X77018384Y-52551746D01*
X77041843Y-52635389D01*
X77059357Y-52682144D01*
X77106899Y-52759767D01*
X77153752Y-52773533D01*
X77223208Y-52774849D01*
X77315475Y-52818001D01*
X77399180Y-52887883D01*
X77428758Y-52941218D01*
X77401702Y-52959633D01*
X77331231Y-52933533D01*
X77214553Y-52902091D01*
X77090350Y-52902282D01*
X76955885Y-52878830D01*
X76902469Y-52844008D01*
X76967080Y-52844008D01*
X76983977Y-52882020D01*
X76997868Y-52874795D01*
X77003395Y-52819988D01*
X76997868Y-52813220D01*
X76970413Y-52819559D01*
X76967080Y-52844008D01*
X76902469Y-52844008D01*
X76808373Y-52782668D01*
X76712639Y-52682371D01*
X76874717Y-52682371D01*
X76898885Y-52743840D01*
X76919449Y-52751644D01*
X76944859Y-52717792D01*
X76937599Y-52682371D01*
X76904820Y-52621607D01*
X76892867Y-52613098D01*
X76876723Y-52650810D01*
X76874717Y-52682371D01*
X76712639Y-52682371D01*
X76662019Y-52629339D01*
X76651107Y-52613098D01*
X76736171Y-52613098D01*
X76753068Y-52651111D01*
X76766959Y-52643886D01*
X76772486Y-52589079D01*
X76766959Y-52582311D01*
X76739504Y-52588650D01*
X76736171Y-52613098D01*
X76651107Y-52613098D01*
X76604564Y-52543826D01*
X76920898Y-52543826D01*
X76943989Y-52566917D01*
X76967080Y-52543826D01*
X76943989Y-52520735D01*
X76920898Y-52543826D01*
X76604564Y-52543826D01*
X76531030Y-52434385D01*
X76429609Y-52213349D01*
X76411760Y-52159814D01*
X76364511Y-51992983D01*
X76331545Y-51850109D01*
X76320535Y-51769264D01*
X76308760Y-51706185D01*
X76289868Y-51704735D01*
X76258641Y-51794771D01*
X76197241Y-51794771D01*
X76198421Y-51780454D01*
X76220701Y-51721554D01*
X76249418Y-51621511D01*
X76229692Y-51510039D01*
X76207480Y-51373062D01*
X76221596Y-51270165D01*
X76268214Y-51227712D01*
X76270664Y-51227644D01*
X76291967Y-51269050D01*
X76309137Y-51374195D01*
X76314435Y-51443225D01*
X76328907Y-51589215D01*
X76352256Y-51703775D01*
X76362822Y-51731861D01*
X76394279Y-51824641D01*
X76423398Y-51958126D01*
X76427275Y-51981878D01*
X76465559Y-52135606D01*
X76528894Y-52308846D01*
X76554045Y-52364473D01*
X76619357Y-52485373D01*
X76667904Y-52532692D01*
X76714081Y-52519798D01*
X76717972Y-52516675D01*
X76772708Y-52428708D01*
X76785280Y-52364989D01*
X76790400Y-52300930D01*
X76807670Y-52317998D01*
X76832454Y-52377349D01*
X76874169Y-52459706D01*
X76896254Y-52459567D01*
X76895789Y-52385272D01*
X76873364Y-52260506D01*
X76847756Y-52123215D01*
X76818520Y-51931396D01*
X76791270Y-51722422D01*
X76786851Y-51684485D01*
X76761602Y-51463719D01*
X76735954Y-51240736D01*
X76715006Y-51059847D01*
X76713032Y-51042917D01*
X76683384Y-50788918D01*
X76886485Y-51228871D01*
G36*
X73572384Y-62507307D02*
G01*
X73618898Y-62540667D01*
X73696753Y-62597396D01*
X73730504Y-62621485D01*
X73715326Y-62633926D01*
X73701523Y-62634553D01*
X73637174Y-62601835D01*
X73589917Y-62553735D01*
X73550565Y-62499722D01*
X73572384Y-62507307D01*
G37*
X73572384Y-62507307D02*
X73618898Y-62540667D01*
X73696753Y-62597396D01*
X73730504Y-62621485D01*
X73715326Y-62633926D01*
X73701523Y-62634553D01*
X73637174Y-62601835D01*
X73589917Y-62553735D01*
X73550565Y-62499722D01*
X73572384Y-62507307D01*
%TD*%
M02*
