M48
; DRILL file {KiCad 5.1.9-73d0e3b20d~88~ubuntu20.04.1} date Sun Feb 21 20:05:22 2021
; FORMAT={-:-/ absolute / metric / decimal}
; #@! TF.CreationDate,2021-02-21T20:05:22+08:00
; #@! TF.GenerationSoftware,Kicad,Pcbnew,5.1.9-73d0e3b20d~88~ubuntu20.04.1
FMAT,2
METRIC
T1C0.300
T2C0.600
T3C0.650
T4C1.152
T5C2.200
%
G90
G05
T1
X46.258Y-60.935
X46.543Y-45.019
X47.447Y-60.046
X48.245Y-48.946
X48.402Y-55.535
X48.485Y-54.36
X48.905Y-47.904
X50.14Y-48.959
X50.14Y-51.517
X50.353Y-63.571
X50.362Y-52.561
X50.596Y-55.234
X50.648Y-59.416
X50.749Y-50.587
X51.013Y-53.584
X51.44Y-56.723
X51.532Y-63.591
X51.592Y-48.2
X51.709Y-45.568
X52.299Y-61.951
X52.556Y-50.964
X52.622Y-52.603
X52.71Y-59.517
X52.796Y-48.179
X53.162Y-44.242
X53.193Y-47.026
X53.223Y-49.301
X53.243Y-53.472
X53.249Y-54.542
X53.308Y-50.263
X53.315Y-63.221
X53.526Y-52.594
X53.843Y-49.5
X53.916Y-48.526
X54.036Y-54.982
X54.107Y-56.027
X54.171Y-59.517
X54.298Y-54.247
X54.35Y-51.553
X54.844Y-52.86
X55.107Y-54.289
X55.174Y-44.211
X55.347Y-63.957
X55.494Y-52.877
X55.981Y-54.001
X56.159Y-56.152
X56.22Y-62.067
X56.33Y-57.422
X56.459Y-50.068
X56.621Y-54.336
X57.409Y-53.485
X57.414Y-61.737
X57.424Y-46.096
X57.6Y-49.992
X57.663Y-55.961
X57.727Y-48.532
X58.362Y-53.802
X58.445Y-58.293
X58.831Y-46.121
X59.241Y-56.99
X59.329Y-51.857
X59.71Y-46.868
X60.14Y-53.167
X60.152Y-49.007
X60.193Y-51.145
X60.198Y-50.378
X62.032Y-51.674
X62.172Y-53.167
X62.26Y-44.663
X62.616Y-53.739
X62.68Y-62.756
X62.87Y-55.199
X63.332Y-64.221
X63.536Y-56.759
X64.679Y-48.895
X65.347Y-52.977
X65.928Y-58.029
X66.045Y-52.342
X66.134Y-62.921
X66.157Y-61.61
X66.502Y-64.102
X66.567Y-66.123
X66.65Y-46.899
X66.934Y-65.486
X67.061Y-60.025
X67.315Y-54.755
X68.036Y-62.311
X68.519Y-51.45
X68.522Y-59.835
X68.776Y-54.628
X69.728Y-54.12
X69.792Y-62.248
X70.681Y-55.517
X70.934Y-65.521
X73.538Y-52.596
X73.602Y-51.897
X73.669Y-50.734
X73.919Y-54.755
X73.919Y-57.93
X74.723Y-50.839
X75.189Y-51.834
X75.253Y-52.659
X75.253Y-54.755
X75.316Y-56.279
X77.246Y-57.277
X78.166Y-61.676
X79.19Y-55.009
X79.253Y-55.961
X79.253Y-57.79
X79.38Y-61.676
X79.38Y-63.137
T3
X48.325Y-51.72
X48.325Y-57.5
T4
X44.958Y-62.484
X45.212Y-46.736
X83.317Y-66.375
T5
X81.603Y-46.69
T2
G00X44.945Y-50.29
M15
G01X44.345Y-50.29
M16
G05
G00X44.945Y-58.93
M15
G01X44.345Y-58.93
M16
G05
G00X49.375Y-50.29
M15
G01X48.275Y-50.29
M16
G05
G00X49.375Y-58.93
M15
G01X48.275Y-58.93
M16
G05
T0
M30
